<svg xmlns="http://www.w3.org/2000/svg" width="400" height="300" fill="none" viewBox="0 0 400 300">
  <g class="Community">
    <path fill="#eaf1f5" d="M64.9 112.82c27.766 0 50.275-22.509 50.275-50.275S92.666 12.27 64.9 12.27 14.625 34.779 14.625 62.545 37.134 112.82 64.9 112.82Z" class="shade10"/>
    <path fill="#121212" d="M61.63 130.66A56.127 56.127 0 0 1 9.773 96.01 56.13 56.13 0 1 1 117.76 74.53a56.194 56.194 0 0 1-56.13 56.13Zm0-111.76a55.63 55.63 0 1 0 55.63 55.63A55.694 55.694 0 0 0 61.63 18.9Z" class="shade90"/>
    <path fill="#ffffff" d="m46.22 51.34-6.845-7.16s4.355-2.5 8.09-4.36c3.735-1.86 11.365-4.445 11.365-4.445l-12 14.72" class="shade0"/>
    <path fill="#121212" d="M46.22 51.59a.24.24 0 0 1-.18-.08l-6.85-7.16a.255.255 0 0 1-.025-.313.245.245 0 0 1 .085-.077c.04 0 4.405-2.5 8.105-4.365 3.7-1.865 11.315-4.435 11.395-4.46a.25.25 0 0 1 .27.395l-12 14.72a.255.255 0 0 1-.355.04.26.26 0 0 1-.035-.355l11.43-14.04c-2.075.725-7.545 2.67-10.5 4.15-3.15 1.575-6.785 3.615-7.805 4.195l6.63 6.925a.25.25 0 0 1 0 .355.26.26 0 0 1-.165.07Z" class="shade90"/>
    <path fill="#ffffff" d="M151.755 92.43 158 91.185s.035-6.19-2.175-8.405c-2.805-2.8-2.5-4.045-6.23-9.34-3.73-5.295-3.11-6.225-3.11-6.225" class="shade0"/>
    <path fill="#121212" d="M151.755 92.68a.247.247 0 0 1-.158-.056.246.246 0 0 1-.049-.33.253.253 0 0 1 .157-.11l6-1.204c0-1.075-.21-6.13-2.105-8a16.266 16.266 0 0 1-3.055-4.24 49.763 49.763 0 0 0-3.195-5.135c-3.65-5.17-3.24-6.33-3.12-6.5a.249.249 0 0 1 .347-.068.252.252 0 0 1 .068.348s-.3 1.11 3.11 5.945A50.844 50.844 0 0 1 153 78.5a15.437 15.437 0 0 0 2.97 4.13c2.26 2.26 2.255 8.325 2.25 8.585a.247.247 0 0 1-.2.24l-6.225 1.245-.04-.02Z" class="shade90"/>
    <path fill="#ffffff" d="M155.5 36.085s2.18-7.16 4.36-8.405c2.18-1.245 4.045 0 2.5 5s-2.18 7.47-2.18 7.47" class="shade0"/>
    <path fill="#121212" d="M160.16 40.38h-.06a.244.244 0 0 1-.088-.042.247.247 0 0 1-.092-.263s.64-2.555 2.18-7.5c.765-2.45.75-4.22-.04-4.855-.475-.38-1.235-.32-2.085.165-2.07 1.185-4.225 8.19-4.245 8.265a.251.251 0 0 1-.48-.15c.095-.295 2.235-7.27 4.475-8.55 1.04-.59 2-.635 2.65-.12.975.785 1.045 2.7.205 5.395-1.535 4.915-2.17 7.43-2.175 7.455a.252.252 0 0 1-.245.2Z" class="shade90"/>
    <path fill="#ffffff" d="M161.405 36.71s2.18-7.16 4.36-8.41 4.045 0 2.5 5-2.18 7.47-2.18 7.47" class="shade0"/>
    <path fill="#121212" d="M166.075 41H166a.248.248 0 0 1-.154-.115.272.272 0 0 1-.032-.092.23.23 0 0 1 .006-.098s.64-2.555 2.18-7.5c.765-2.45.75-4.22-.04-4.86-.475-.38-1.235-.32-2.085.17-2.07 1.18-4.225 8.19-4.245 8.26a.247.247 0 0 1-.213.177.24.24 0 0 1-.097-.012.251.251 0 0 1-.15-.12.252.252 0 0 1-.02-.19c.09-.295 2.235-7.27 4.475-8.55 1.04-.595 2-.64 2.65-.125.975.785 1.045 2.7.205 5.4-1.535 4.91-2.17 7.43-2.175 7.455a.252.252 0 0 1-.23.2Z" class="shade90"/>
    <path fill="#ffffff" d="M167 37.955s2.18-7.16 4.36-8.405c2.18-1.245 4.045 0 2.5 5S171.68 42 171.68 42" class="shade0"/>
    <path fill="#121212" d="M171.68 42.25h-.06a.259.259 0 0 1-.155-.115.258.258 0 0 1-.03-.19s.645-2.555 2.185-7.5c.765-2.45.75-4.22-.04-4.86-.5-.38-1.235-.32-2.09.17-2.065 1.18-4.22 8.19-4.24 8.26a.255.255 0 0 1-.315.165.25.25 0 0 1-.165-.31c.09-.295 2.235-7.27 4.475-8.55 1.04-.595 2-.64 2.645-.125 1 .785 1.05 2.7.21 5.4-1.54 4.915-2.17 7.43-2.18 7.455a.246.246 0 0 1-.24.2Z" class="shade90"/>
    <path fill="#ffffff" d="M172.615 38.575s2.18-7.16 4.355-8.405c2.175-1.245 4.05 0 2.5 5-1.55 5-2.175 7.47-2.175 7.47" class="shade0"/>
    <path fill="#121212" d="M177.285 42.875h-.06a.246.246 0 0 1-.157-.114.255.255 0 0 1-.028-.191c0-.025.645-2.555 2.185-7.5.765-2.45.75-4.22-.045-4.855-.47-.38-1.23-.32-2.085.165-2.07 1.185-4.22 8.195-4.24 8.265a.255.255 0 0 1-.315.165.249.249 0 0 1-.165-.31c.09-.3 2.235-7.27 4.475-8.55 1.04-.595 2-.64 2.645-.125.975.785 1.05 2.7.205 5.395-1.535 4.915-2.17 7.435-2.175 7.46a.252.252 0 0 1-.24.195Z" class="shade90"/>
    <path fill="#ffffff" d="M157.05 72.82s12.76-9.65 14.63-16.19c1.87-6.54 2.8-15.565-1.245-18.675-4.045-3.11-25.84 8.405-25.215 14 .625 5.595.93 11.83.93 11.83" class="shade0"/>
    <path fill="#121212" d="M157.05 73.07a.242.242 0 0 1-.2-.1.249.249 0 0 1 .045-.35c.13-.095 12.72-9.675 14.545-16.06 1.895-6.625 2.725-15.42-1.16-18.41-1.79-1.375-8.155.41-14.81 4.16-6.33 3.565-10.255 7.34-10 9.625.62 5.545.935 11.78.935 11.845a.242.242 0 0 1-.014.096.241.241 0 0 1-.221.164.232.232 0 0 1-.185-.057.23.23 0 0 1-.075-.178c0-.065-.32-6.285-.935-11.815-.335-3 5.08-7.2 10.255-10.115 5.76-3.245 13.025-5.915 15.36-4.12 4.085 3.14 3.27 12.17 1.335 18.945-1.87 6.545-14.195 15.925-14.72 16.32a.245.245 0 0 1-.155.05Z" class="shade90"/>
    <path fill="#ffffff" d="M159.23 69.675 147.4 97.1l-9.03-22.725 1.87-7.16 5.8-8.46" class="shade0"/>
    <path fill="#121212" d="M147.395 97.35a.245.245 0 0 1-.23-.155l-9.03-22.725a.273.273 0 0 1 0-.155l1.865-7.16a.453.453 0 0 1 .035-.08l5.805-8.465a.256.256 0 0 1 .345-.065.253.253 0 0 1 .106.161.25.25 0 0 1-.041.189l-5.775 8.425-1.84 7.04 8.775 22.09L159 69.575a.251.251 0 0 1 .325-.13.255.255 0 0 1 .135.33L147.625 97.2a.252.252 0 0 1-.23.15Z" class="shade90"/>
    <path fill="#9fbdd0" d="M92.606 100.215s1.87 12.765 8.719 19c6.85 6.235 15.565 7.47 25.215.62S158 91.185 158 91.185s-2.8-1.555-6.225-9.96c-3.425-8.405-11.5-14-11.5-14s-6.535 7.785-9.96 11.5c-3.425 3.715-15.875 16.5-15.875 16.5s-2.5-5.605-6.85-13.075c-4.35-7.47-9.34-11.3-9.34-11.3l-4.97-2.64" class="shade40"/>
    <path fill="#121212" d="M113.79 124.73c-5.295 0-9.55-2.535-12.635-5.34-6.835-6.215-8.775-19-8.795-19.14a.256.256 0 0 1 .21-.285.256.256 0 0 1 .285.215c0 .125 1.935 12.745 8.635 18.84 7.39 6.715 16 6.925 24.905.605 9-6.4 28.915-26.135 31.2-28.405-.795-.6-3.215-2.895-6.07-9.9-3.07-7.535-10.025-12.87-11.245-13.765-1 1.18-6.72 7.965-9.82 11.35-3.39 3.695-15.755 16.375-15.88 16.5a.256.256 0 0 1-.225.07.26.26 0 0 1-.185-.145c-.025-.055-2.535-5.68-6.835-13.05-4.3-7.37-9.23-11.19-9.275-11.225l-4.94-2.62a.252.252 0 1 1 .235-.445l4.975 2.645c.085.06 5.105 3.965 9.435 11.395 3.735 6.375 6.105 11.47 6.735 12.765 1.795-1.84 12.5-12.835 15.615-16.23 3.385-3.69 9.89-11.43 9.955-11.5a.248.248 0 0 1 .335-.045c.08.055 8.195 5.745 11.605 14.12 3.335 8.18 6.09 9.825 6.12 9.84a.26.26 0 0 1 .084.078.246.246 0 0 1 .03.22.262.262 0 0 1-.059.097c-.22.215-21.92 21.885-31.475 28.665-4.825 3.395-9.14 4.69-12.92 4.69Z" class="shade90"/>
    <path fill="#121212" d="M108.655 84.32s-.345.75-.415 5.055a38.635 38.635 0 0 1-.69 7.125l1.245 5 5.45-6.07-5.59-11.11Z" class="shade90"/>
    <path fill="#ffffff" d="M137.967 41.22c1.223-5.012.793-9.421-.961-9.85-1.755-.428-4.169 3.287-5.392 8.298-1.224 5.011-.793 9.42.961 9.85 1.755.428 4.169-3.288 5.392-8.299Z" class="shade0"/>
    <path fill="#121212" d="M132.855 49.8c-.114 0-.229-.014-.34-.04-1.915-.47-2.42-4.925-1.145-10.15a21.134 21.134 0 0 1 2.53-6.265c1.08-1.665 2.205-2.455 3.165-2.215.96.24 1.595 1.45 1.785 3.42a21.084 21.084 0 0 1-.64 6.73 21.135 21.135 0 0 1-2.53 6.265c-.955 1.455-1.945 2.255-2.825 2.255Zm3.87-18.215c-.695 0-1.555.725-2.405 2.03a20.495 20.495 0 0 0-2.465 6.11c-1.29 5.285-.64 9.2.78 9.55.725.17 1.68-.555 2.625-2a20.614 20.614 0 0 0 2.46-6.11 20.63 20.63 0 0 0 .635-6.56c-.17-1.72-.685-2.81-1.41-3a.801.801 0 0 0-.22-.02Z" class="shade90"/>
    <path fill="#6998b5" d="m132.235 46.4 59.055 26.42 9.34-44.205-64.285 4.825-.31.31c-3.545 3.345-4.29 7.65-3.9 12.5a.177.177 0 0 0 .1.15Z" class="shade50"/>
    <path fill="#121212" d="M191 72.195s-10-8.09-5.625-24.59 10.9-19 15.88-19 8.095 9.65 4.355 25.215S193.78 76.245 191 72.195Z" class="shade90"/>
    <path fill="#6998b5" d="M197.455 53.79c-.266 0-.53-.047-.78-.14l-12.63-4.565a.253.253 0 0 1-.15-.16.257.257 0 0 1-.011-.114.241.241 0 0 1 .041-.106s.68-1.055.07-3.31a.238.238 0 0 1 .05-.22.25.25 0 0 1 .21-.09L197.95 46a2.687 2.687 0 0 1 2.1.875c.575.73.645 1.83.2 3.275l-.62 2a2.28 2.28 0 0 1-2.175 1.61v.03ZM184.5 48.71l12.365 4.47a1.779 1.779 0 0 0 1.963-.522c.156-.184.272-.398.342-.628l.62-2c.395-1.28.355-2.225-.11-2.82a2.213 2.213 0 0 0-1.73-.71l-13.39-.91a5.063 5.063 0 0 1-.06 3.12Z" class="shade50"/>
    <path fill="#121212" d="M219.73 46.305h-.74a.25.25 0 0 1-.24-.255.231.231 0 0 1 .018-.097.245.245 0 0 1 .139-.134.246.246 0 0 1 .098-.014c.1 0 10.105.275 24.535-2.795a.254.254 0 0 1 .188.036.25.25 0 0 1 .107.159.264.264 0 0 1 .003.097.247.247 0 0 1-.193.198c-12.25 2.595-21.335 2.805-23.915 2.805ZM231.14 81.5a.257.257 0 0 1-.24-.17c-2.43-7.295-19-16.58-19.185-16.67a.255.255 0 0 1-.095-.345.252.252 0 0 1 .34-.095 99.478 99.478 0 0 1 8.74 5.62c6.035 4.37 9.625 8.18 10.675 11.33a.242.242 0 0 1-.07.267.25.25 0 0 1-.085.048l-.08.015Zm-3.735-20.885h-.045l-8.405-1.56a.248.248 0 0 1-.2-.192.23.23 0 0 1 0-.098.25.25 0 0 1 .29-.2l8.405 1.555a.252.252 0 0 1 .227.273.252.252 0 0 1-.272.227v-.005ZM73.5 46.555s-.265 4.24 2.12 5.83c2.385 1.59 6.1.795 8.22-3.445 2.12-4.24 12.195-16.17 12.195-16.17L87 28.155s-4.5-1.5-7.395 3.555c-2.895 5.055-.53 7.42-1.59 10.07-1.06 2.65-4.515 4.775-4.515 4.775Z" class="shade90"/>
    <path fill="#9fbdd0" d="M92.58 104.521a50.049 50.049 0 0 1-27.68 8.299c-12.99 0-24.83-4.927-33.752-13.014l1.092-3.636s14.63-33.625 20.545-38.295c5.915-4.67 19.3-1.245 22.725 0 1.624.59 4.855 2.58 8.634 4.91 4.192 2.582 9.06 5.58 13.156 7.545a7.644 7.644 0 0 1 3.29 2.95l-3 13.22c-1.393 3.96-3.277 11.05-5.01 18.021Z" class="shade40"/>
    <path fill="#121212" d="m87.78 64.88 5 2.5s-3.31 7.5-6.53 9.865a14.346 14.346 0 0 1-6.44 2.635l-1.755-6.735-5.825 4.2s-4.42-3.905-5.885-7.71c-1.465-3.805-.03-14.705-.03-14.705a59.846 59.846 0 0 1 12.145 3.11" class="shade90"/>
    <path fill="#9fbdd0" d="M27.026 95.609a50.449 50.449 0 0 0 16.725 12.56c2.303-.845 4.39-2.22 5.894-4.219C55.25 96.5 63.965 70 63.965 70l-30.195-.605c-2.687 5.997-5.786 17.623-6.744 26.214Z" class="shade40"/>
    <path fill="#121212" d="M26.806 95.356c.148.17.296.34.446.51.913-8.48 3.957-20.149 6.748-26.371a.25.25 0 0 0-.322-.334.253.253 0 0 0-.138.134c-2.04 4.57-4.285 12.205-5.705 19.48a92.15 92.15 0 0 0-1.029 6.58Zm17.271 12.962c2.209-.85 4.27-2.207 5.793-4.223 5.44-7.248 13.88-32.56 14.34-33.943l.02-.057a.261.261 0 1 0-.5-.155l-.018.053c-.449 1.345-8.887 26.612-14.267 33.807-1.554 2.071-3.713 3.417-6.015 4.218.215.102.43.202.647.3Z" class="shade90"/>
    <path fill="#eaf1f5" d="M338.85 148.78c23.986 0 43.43-19.444 43.43-43.43s-19.444-43.43-43.43-43.43-43.43 19.444-43.43 43.43 19.444 43.43 43.43 43.43Z" class="shade10"/>
    <path fill="#ffffff" d="M378.39 111.11c0 5.36-4.28 17.85-7.76 27.12a43.428 43.428 0 0 1-37.451 11.109 43.434 43.434 0 0 1-31.229-23.469c.05-.145.105-.295.17-.44 6.845-16.5 26.46-30.82 38.6-30.5 12.14.32 37.67 7.155 37.67 16.18Z" class="shade0"/>
    <path fill="#121212" d="M340.875 150.275A43.452 43.452 0 0 1 301.725 126a.223.223 0 0 1 0-.19c.05-.155.11-.305.175-.455 7.12-17.165 26.705-30.67 38.455-30.67h.38c11.255.29 37.915 6.975 37.915 16.44 0 5.36-4.225 17.745-7.77 27.195a.266.266 0 0 1-.07.11 43.503 43.503 0 0 1-29.935 11.845Zm-38.655-24.42a43.19 43.19 0 0 0 68.195 12.235c3.53-9.405 7.725-21.7 7.725-27 0-3.855-5-7.81-14.12-11.13-7.435-2.71-16.8-4.64-23.305-4.81h-.38c-11.59 0-30.935 13.37-38 30.36a4.645 4.645 0 0 1-.115.345Z" class="shade90"/>
    <path fill="#121212" d="M371.935 130a37.38 37.38 0 0 0-3.745 6.5c-.72 1.7-1.21 3.465-1.78 5.21a43.59 43.59 0 0 0 4.22-3.5 288.67 288.67 0 0 0 4.5-12.75c-1.08 1.54-2.13 3.01-3.195 4.54Zm-27.23 18.85c-4.41.105-8.9.345-13.265-.44-4.23-.76-8.5-2.57-10.71-6.5-1.07-1.905-1.5-4.09-1.85-6.22-.355-2.03-.625-4.39-2-6.03-2.275-2.715-6.65-2.395-9.84-2.57a20.951 20.951 0 0 1-4.82-.72 43.478 43.478 0 0 0 47.815 22.665 52.98 52.98 0 0 0-5.33-.185ZM340.655 87s6.225 2.55 6.79.57c.565-1.98-.565-2.55-.565-2.55s2-.85 2.265-2.265c.265-1.415-.285-1.7-.285-1.7s2.55-.845 2-3.395c-.55-2.55-2-3.115-2-3.115s3.965-3.395 2-5.66c-1.965-2.265-2-2.545-2-2.545s.85-1.7-1.415-2.55C345.18 62.94 324.5 72 324.5 72s-1.415 2.83-.85 4.81c.565 1.98 2.55 4.245 2.55 4.245s-.57 2 .845 4.815C328.46 88.685 333 89 333 89l4.815-1.135" class="shade90"/>
    <path fill="#121212" d="M340.875 150.275a43.68 43.68 0 1 1 29.95-11.885v.025a43.502 43.502 0 0 1-29.95 11.86Zm0-86.855a43.225 43.225 0 0 0-43.175 43.175 43.176 43.176 0 0 0 50.601 42.538 43.179 43.179 0 0 0 22.134-11.063v-.025a42.77 42.77 0 0 0 13.595-31.45 43.228 43.228 0 0 0-43.155-43.175Z" class="shade90"/>
    <path fill="#6998b5" d="M87.47 287c30.174 0 54.635-24.461 54.635-54.635S117.644 177.73 87.47 177.73s-54.635 24.461-54.635 54.635S57.295 287 87.47 287Z" class="shade50"/>
    <path fill="#121212" d="M84.67 282.58a56.136 56.136 0 1 1 37.37-14.25 56.034 56.034 0 0 1-37.37 14.25Zm0-111.76a55.635 55.635 0 0 0-51.395 34.341 55.632 55.632 0 0 0 72.684 72.684A55.624 55.624 0 0 0 140.3 226.45a55.691 55.691 0 0 0-55.63-55.63Z" class="shade90"/>
    <path fill="#ffffff" d="M36.715 32.5s-5.745-6.375-8.55-7.62c-2.805-1.245.31-3.425 2.18-3.115 1.87.31 6.225 3.735 7.47 5.605 1.245 1.87-1.1 5.13-1.1 5.13Z" class="shade0"/>
    <path fill="#121212" d="M36.715 32.755a.249.249 0 0 1-.185-.085c-.03-.06-5.745-6.355-8.465-7.565-1.35-.595-1.34-1.38-1.215-1.79.325-1.085 2.175-2 3.535-1.795 1.955.325 6.355 3.785 7.64 5.71C39.31 29.155 37 32.5 36.92 32.65a.259.259 0 0 1-.19.105h-.015ZM29.96 22c-1.075 0-2.405.71-2.635 1.47-.17.565.42.96.945 1.195 2.54 1.13 7.325 6.26 8.415 7.45.5-.79 1.865-3.18.925-4.595-1.22-1.825-5.5-5.195-7.305-5.5a2.6 2.6 0 0 0-.345-.02Z" class="shade90"/>
    <path fill="#ffffff" d="M36.57 19.585s-2.8 3.425-3.425 6.85c-.626 3.425 7.784 11.83 7.784 11.83l1.87 9.65 11.5-4.045-1.554-11.21s.31-1.555-.625-5c-.935-3.445-4.045-7.785-4.045-7.785s4.36-1.555 4.36-2.8c0-1.245-5.605-.935-5.605-.935l-10.26 3.445Z" class="shade0"/>
    <path fill="#121212" d="M42.8 48.165a.215.215 0 0 1-.125-.035.245.245 0 0 1-.125-.17l-1.85-9.575c-.79-.795-8.42-8.59-7.8-12 .62-3.41 3.36-6.82 3.5-6.965a.242.242 0 0 1 .1-.07l10.275-3.425a.307.307 0 0 1 .065 0c.5-.025 4.675-.23 5.635.675a.691.691 0 0 1 .235.5c0 1.22-3.06 2.5-4.22 2.925.695 1 3.085 4.615 3.9 7.595.86 3.165.68 4.765.635 5.05l1.55 11.17a.255.255 0 0 1-.165.27l-11.5 4.045a.225.225 0 0 1-.11.01ZM36.72 19.8c-.355.45-2.765 3.595-3.325 6.68-.595 3.255 7.63 11.52 7.71 11.605a.274.274 0 0 1 .07.13L43 47.585 54.05 43.7l-1.53-11a.503.503 0 0 1 0-.085s.285-1.555-.62-4.865c-.905-3.31-4-7.66-4-7.705a.26.26 0 0 1-.035-.22.27.27 0 0 1 .155-.16c1.74-.62 4.195-1.83 4.195-2.565a.2.2 0 0 0-.08-.145c-.6-.57-3.5-.635-5.23-.54L36.72 19.8Z" class="shade90"/>
    <path fill="#121212" d="M37.815 24.5a.25.25 0 0 1-.25-.235A9.675 9.675 0 0 1 39.22 18.5a.252.252 0 1 1 .405.3c-1.74 2.365-1.56 5.425-1.56 5.455a.25.25 0 0 1-.23.265l-.02-.02Zm4.05-1.865a.244.244 0 0 1-.245-.25c0-.43.11-4.22 1.38-5.19a.244.244 0 0 1 .35.05.255.255 0 0 1-.05.35c-.91.695-1.16 3.7-1.18 4.795a.25.25 0 0 1-.255.245Z" class="shade90"/>
    <path fill="#ffffff" d="M82.61 44.655s-2.765 7.305-5.255 10.11a6.29 6.29 0 0 1-5.605 2.18l.5 8.13a7.569 7.569 0 0 0 5.555 6.22A7.57 7.57 0 0 0 86.4 67.59l4.96-9.09-8.75-14.155" class="shade0"/>
    <path fill="#121212" d="M79.775 71.8a7.997 7.997 0 0 1-2-.26A7.824 7.824 0 0 1 72 65.11l-.5-8.15a.246.246 0 0 1 .085-.205.24.24 0 0 1 .215-.055 6.1 6.1 0 0 0 5.365-2.1c2.43-2.735 5.185-9.965 5.21-10.035a.29.29 0 0 1 .04-.065.246.246 0 0 1 .08-.345.255.255 0 0 1 .345.08l8.75 14.16a.25.25 0 0 1 0 .25l-4.94 9.09a7.805 7.805 0 0 1-6.875 4.065ZM72 57.23l.5 7.83a7.33 7.33 0 0 0 13.685 2.41l4.89-8.97-8.34-13.5c-.54 1.39-2.95 7.385-5.195 9.91A6.554 6.554 0 0 1 72 57.23Z" class="shade90"/>
    <path fill="#121212" d="M83.29 47.34c.055 2.655-.26 5.315-.1 7.965a7.856 7.856 0 0 0 1.275 4.155c.7 1 1.415 1.215 2.57 1.26.963.047 1.914.23 2.825.545l1.5-2.765-8.11-13.12c.055.695.03 1.39.04 1.96Z" class="shade90"/>
    <path fill="#6998b5" d="M6.56 244.64c1.05 0 1.9-.848 1.9-1.895 0-1.046-.85-1.895-1.9-1.895-1.05 0-1.9.849-1.9 1.895 0 1.047.85 1.895 1.9 1.895ZM4.695 9.29c1.05 0 1.9-.848 1.9-1.895 0-1.047-.85-1.895-1.9-1.895-1.05 0-1.9.848-1.9 1.895 0 1.047.85 1.895 1.9 1.895Z" class="shade50"/>
    <path fill="#ffffff" d="M108.175 101.77s4.045-4.355 5.91-6.535c1.865-2.18 12.145-12.14 12.145-12.14" class="shade0"/>
    <path fill="#121212" d="M108.17 102a.246.246 0 0 1-.249-.293.235.235 0 0 1 .069-.127c.04-.045 4.065-4.38 5.905-6.53 1.84-2.15 11.74-11.75 12.16-12.155a.246.246 0 0 1 .183-.097.25.25 0 0 1 .25.166.244.244 0 0 1-.018.207.241.241 0 0 1-.07.079c-.1.1-10.285 10-12.125 12.125-1.84 2.125-5.88 6.5-5.92 6.545a.25.25 0 0 1-.185.08Z" class="shade90"/>
    <path fill="#ffffff" d="M147.71 64.725S144.595 58.81 144 56c-.595-2.81-2.5-11.21-3.425-15.255-.925-4.045 4.045-3.425 5.29.31a19.945 19.945 0 0 0 3.425 6.225 48.91 48.91 0 0 1 5.915 5.605c3.425 3.735 3.425 6.54 3.425 6.54" class="shade0"/>
    <path fill="#121212" d="M147.71 65a.25.25 0 0 1-.22-.135c-.13-.24-3.14-6-3.76-8.775-1.645-7.4-2.795-12.53-3.425-15.255-.36-1.56.095-2.68 1.225-3 1.5-.425 3.75.77 4.55 3.17a19.902 19.902 0 0 0 3.36 6.125 50.422 50.422 0 0 1 5.925 5.615c3.45 3.765 3.5 6.59 3.5 6.71a.256.256 0 0 1-.25.25.25.25 0 0 1-.25-.25c0-.03-.055-2.765-3.36-6.37a49.483 49.483 0 0 0-5.89-5.585l-.04-.035a19.957 19.957 0 0 1-3.47-6.31c-.75-2.245-2.8-3.175-3.94-2.85-.85.24-1.17 1.115-.875 2.405.63 2.725 1.785 7.855 3.425 15.255.61 2.735 3.685 8.595 3.715 8.655a.236.236 0 0 1 .019.19.251.251 0 0 1-.124.145.228.228 0 0 1-.115.045Zm-15.255-28.355h-.065l-3.89-1.035a.262.262 0 0 1-.159-.117.258.258 0 0 1 .284-.383l3.875 1.045a.253.253 0 0 1 .217.283.251.251 0 0 1-.282.218l.02-.01Zm-2.8 5.295h-.06l-2.215-.5a.252.252 0 0 1-.193-.202.27.27 0 0 1 .003-.098.245.245 0 0 1 .3-.185l2.22.5a.246.246 0 0 1 .185.3.25.25 0 0 1-.24.185Z" class="shade90"/>
    <path fill="#ffffff" d="M78.41 71.425s-3.235 14.78-6.66 23.185Z" class="shade0"/>
    <path fill="#121212" d="M71.75 94.86a.315.315 0 0 1-.095 0 .25.25 0 0 1-.155-.36c3.375-8.285 6.61-23 6.645-23.14a.255.255 0 1 1 .5.105c-.035.145-3.28 14.895-6.675 23.225a.24.24 0 0 1-.22.17Z" class="shade90"/>
    <path fill="#6998b5" d="M121.27 22.86c-1.535.26-1.745.47-2 2-.26-1.54-.47-1.75-2-2 1.54-.26 1.75-.47 2-2 .255 1.53.465 1.74 2 2Zm-10.955-7.17c-1.535.26-1.745.47-2 2-.26-1.535-.47-1.745-2-2 1.54-.26 1.75-.475 2-2 .255 1.525.465 1.74 2 2Zm25.535.89c-4.96.84-5.64 1.5-6.5 6.5-.84-4.96-1.5-5.64-6.5-6.5 4.955-.84 5.635-1.5 6.5-6.5.86 4.98 1.54 5.66 6.5 6.5Z" class="shade50"/>
    <path fill="#121212" d="M249.165 56.74c-4.96.84-5.64 1.5-6.5 6.5-.835-4.955-1.5-5.635-6.475-6.5 4.96-.84 5.64-1.5 6.475-6.5.86 4.98 1.54 5.66 6.5 6.5Zm-169.79 26.2a.935.935 0 1 0 0-1.87.935.935 0 0 0 0 1.87Zm-2.49 7.47a.935.935 0 1 0 0-1.87.935.935 0 0 0 0 1.87Zm-1.865 6.85a.935.935 0 1 0 0-1.87.935.935 0 0 0 0 1.87Zm70.185-64.32a.251.251 0 0 1-.25-.25.25.25 0 0 1 .25-.25l42.675-3.14a.26.26 0 0 1 .27.235.251.251 0 0 1-.23.265l-42.675 3.14h-.04Z" class="shade90"/>
    <path fill="#ffffff" d="M180.285 34.625a.251.251 0 0 1-.25-.25.25.25 0 0 1 .25-.25l4.47-.16a.26.26 0 0 1 .26.245.249.249 0 0 1-.24.255l-4.47.16h-.02Zm-30.71 1.085a.25.25 0 0 1-.25-.24.256.256 0 0 1 .245-.26l27.43-.97a.259.259 0 0 1 .26.245.249.249 0 0 1-.24.255l-27.425.97h-.02Z" class="shade0"/>
    <path fill="#121212" d="M151.805 97.5a.261.261 0 0 1-.105 0c-.21-.095-5.225-2.415-8-9.61-2.71-7.035-9.16-12-9.225-12.055a.252.252 0 0 1 .119-.449.252.252 0 0 1 .186.05c.065.054 6.625 5.11 9.385 12.274 2.69 7 7.685 9.31 7.735 9.335a.252.252 0 0 1 .125.33.236.236 0 0 1-.22.125ZM99.61 50.25a11.589 11.589 0 0 0 4.05-5.605 19.536 19.536 0 0 0 .93-7.145l-6.845-2.8" class="shade90"/>
    <path fill="#ffffff" d="M101.885 37.805S103.5 48.41 98.969 54.5c-4.53 6.09-8.604 5.38-11.4 3.18-3.71-2.915-6.094-11.395-3.71-19.085 2.386-7.69 14.846-7.15 18.026-.79Z" class="shade0"/>
    <path fill="#121212" d="M91.725 59.53a6.965 6.965 0 0 1-4.31-1.645c-3.805-3-6.24-11.5-3.795-19.36 1-3.305 4.035-5.5 8.05-5.8 4.5-.365 8.795 1.675 10.44 4.97.012.023.02.049.025.075.252 2.026.329 4.07.23 6.11-.15 3.15-.83 7.575-3.195 10.775-2.135 2.89-4.37 4.5-6.64 4.82a6.227 6.227 0 0 1-.805.055Zm1-26.35c-.334 0-.667.015-1 .045-3.805.31-6.65 2.345-7.61 5.45-1.885 6.07-.86 15.29 3.625 18.815 1.535 1.205 3.125 1.705 4.735 1.5 2.135-.29 4.255-1.845 6.31-4.625 4.255-5.76 2.97-15.77 2.875-16.475-1.465-2.86-5.04-4.71-8.945-4.71h.01Z" class="shade90"/>
    <path fill="#121212" d="M82.8 35.42s2.915 2.12 8.215 2.12 6.1-1.04 6.1-1.04 2.65 3.445 6.89 3.445S108.5 36.5 108.5 36.5s3.445-.795 3.18-3.445c-.265-2.65-1.855-3.18-1.855-3.18a5.646 5.646 0 0 1-4.5 1.06c-2.65-.53-3.18-1.595-3.18-1.595S95 23.225 89.69 26.14c-5.31 2.915-6.89 9.28-6.89 9.28Z" class="shade90"/>
    <path fill="#ffffff" d="M83.33 47.615s-3.445-1.325-3.445-4.5 2.915-3.18 3.445-1.59a7.58 7.58 0 0 1 .235 2" class="shade0"/>
    <path fill="#121212" d="M83.33 47.865a.195.195 0 0 1-.09 0c-.035 0-3.605-1.425-3.605-4.74 0-1.885.965-2.71 1.87-2.86a1.83 1.83 0 0 1 2.06 1.195 7.38 7.38 0 0 1 .25 2.06.25.25 0 0 1-.5 0 6.937 6.937 0 0 0-.225-1.915 1.335 1.335 0 0 0-1.5-.855c-.7.115-1.45.795-1.45 2.365 0 2.97 3.25 4.26 3.285 4.275a.254.254 0 1 1-.09.5l-.005-.025Z" class="shade90"/>
    <path fill="#ffffff" d="M81.21 42.045s-.795 1.06 0 2.92Z" class="shade0"/>
    <path fill="#121212" d="M81.21 45.21a.245.245 0 0 1-.23-.15c-.845-1.965 0-3.115.03-3.165a.25.25 0 0 1 .4.3c-.03.04-.695 1 .03 2.67a.245.245 0 0 1-.23.345Z" class="shade90"/>
    <path fill="#ffffff" d="M93.405 45.5s-1.42-1.625-4.22-.38Z" class="shade0"/>
    <path fill="#121212" d="M93.405 45.5a22.795 22.795 0 0 0-3.045-.25 6.912 6.912 0 0 1-1.175-.13c.229-.37.56-.665.955-.85 1.14-.58 2.96-.155 3.265 1.23Z" class="shade90"/>
    <path fill="#ffffff" d="M96.055 46.025s.265 2.12.53 3.445c.265 1.325.53 1.855-.265 2.385-.795.53-2.65-.53-2.915-1.06" class="shade0"/>
    <path fill="#121212" d="M95.765 52.25a2.408 2.408 0 0 1-.62-.09c-.805-.215-1.745-.81-1.965-1.255a.25.25 0 1 1 .445-.22c.44.49 1.014.837 1.65 1a1.169 1.169 0 0 0 .905-.03c.5-.345.5-.62.27-1.61-.035-.155-.075-.33-.11-.5-.265-1.32-.53-3.445-.535-3.465a.252.252 0 1 1 .5-.065s.27 2.13.53 3.43c.035.185.075.355.105.5.22 1 .35 1.585-.5 2.135a1.285 1.285 0 0 1-.675.17Z" class="shade90"/>
    <path fill="#ffffff" d="M97.38 46.29a2.91 2.91 0 0 1 3.445.53" class="shade0"/>
    <path fill="#121212" d="M97.38 46.29a1.775 1.775 0 0 1 1.905-.95 1.738 1.738 0 0 1 1.54 1.5c-.415 0-.705-.085-1-.115-.835-.115-1.6-.215-2.46-.415l.015-.02ZM85.185 32.24S81.5 34.36 81.74 37c.195 2 1.35 6.08 1.925 8.045l.94.105c.765-1.25 2.205-1.2 3.1-3 1.325-2.65 3.84-7 3.84-7l-6.36-2.91Z" class="shade90"/>
    <path fill="#9fbdd0" d="M45.687 109.018c3.385-2.641 6.14-7.222 7.103-14.098C57.12 63.79 59 35.15 59 35.15S56.185 39.5 48.4 42s-9 1.87-9 1.87-1.7 6-3.885 14.075c-3.197 11.859-7.444 28.281-8.948 37.13a50.41 50.41 0 0 0 19.12 13.943Z" class="shade40"/>
    <path fill="#121212" d="M26.326 94.79c1.492-8.64 5.486-24.173 8.904-36.91 1.658-6.14 3.048-11.102 3.611-13.114.17-.609.266-.947.27-.966a.274.274 0 0 1 .14-.16.25.25 0 0 1 .214 0l.016.003c.174.038 1.768.384 8.824-1.888 7.595-2.43 10.425-6.7 10.45-6.745a.254.254 0 0 1 .29-.1.25.25 0 0 1 .17.25c0 .29-1.92 29-6.23 59.79-.875 6.275-3.357 11.209-7.073 14.161-.172-.07-.342-.141-.512-.213 3.733-2.858 6.23-7.748 7.105-14.008 3.9-27.84 5.825-54 6.17-58.925-1.12 1.34-4.175 4.345-10.175 6.275-6 1.93-8.255 2.015-8.95 1.92-.33 1.17-1.89 6.715-3.82 13.85-3.488 12.933-7.556 28.774-8.98 37.28a51.552 51.552 0 0 1-.424-.5Zm77.599-54.075c-3.585 0-5.955-3.34-6.595-4.36a7.78 7.78 0 0 1-4.7 1.965 25.002 25.002 0 0 1-5.095 0 .253.253 0 0 1 .07-.5c1.662.166 3.337.166 5 0a7.12 7.12 0 0 0 4.605-2.035.27.27 0 0 1 .215-.085.255.255 0 0 1 .195.13c.025.045 2.62 4.63 6.655 4.375 3.94-.245 3.925-3.14 3.92-3.265a.26.26 0 0 1 .065-.172.258.258 0 0 1 .165-.083 3.946 3.946 0 0 0 3.06-2.43.248.248 0 0 1 .33-.125.247.247 0 0 1 .125.33 4.496 4.496 0 0 1-3.255 2.69c-.075.78-.61 3.32-4.38 3.555-.14.01-.26.01-.38.01Z" class="shade90"/>
    <path fill="#ffffff" d="M94.465 54s-2.655-1.325-3.45-2.385a12.12 12.12 0 0 1-1.06-1.59s-.53 2.12.265 3.71a3.541 3.541 0 0 0 2.39 1.855 3.125 3.125 0 0 1 1.63-1.5l.225-.09Z" class="shade0"/>
    <path fill="#121212" d="M92.605 55.815h-.04a3.75 3.75 0 0 1-2.565-2c-.83-1.65-.31-3.79-.285-3.88a.245.245 0 0 1 .36-.16c.044.024.08.06.105.105a12.61 12.61 0 0 0 1.035 1.555c.755 1 3.335 2.3 3.36 2.31a.25.25 0 0 1 0 .46l-.225.09a2.87 2.87 0 0 0-1.5 1.38.244.244 0 0 1-.245.14Zm-2.5-5.11a5.31 5.31 0 0 0 .355 2.895 3.307 3.307 0 0 0 2.035 1.675 3.395 3.395 0 0 1 1.4-1.32c-.81-.44-2.445-1.39-3.065-2.215-.33-.43-.57-.775-.74-1.035h.015Z" class="shade90"/>
    <path fill="#121212" d="M93.315 54.89a.255.255 0 0 1-.165-.065l-3.36-3.05a.25.25 0 0 1 .177-.427c.067 0 .13.026.178.072l3.36 3.05a.245.245 0 0 1-.19.42Zm11.745-24.16h-.03c-1.13-.14-2.5-1.08-4.06-2.165-2-1.385-4.275-2.955-6.5-3.125-3.895-.3-7.605 3.315-7.645 3.35a.24.24 0 0 1-.35 0 .25.25 0 0 1 0-.355c.16-.155 3.92-3.815 8.035-3.5 2.375.185 4.705 1.79 6.76 3.21 1.455 1 2.825 1.955 3.835 2.085a.252.252 0 0 1 .213.182.25.25 0 0 1-.082.26.256.256 0 0 1-.176.058ZM42.77 53.225a20.76 20.76 0 0 1-6.905-1.03.239.239 0 0 1-.15-.315.256.256 0 0 1 .32-.155c8.535 3.05 22.415-1.815 22.555-1.865a.244.244 0 0 1 .32.15.25.25 0 0 1-.15.32c-.11.035-8.26 2.895-15.99 2.895Z" class="shade90"/>
    <path fill="#ffffff" d="M55.715 47.605c.774 0 1.4-.907 1.4-2.025 0-1.119-.626-2.025-1.4-2.025-.773 0-1.4.906-1.4 2.025 0 1.118.627 2.025 1.4 2.025Z" class="shade0"/>
    <path fill="#121212" d="M55.715 47.855c-.91 0-1.65-1-1.65-2.275s.74-2.275 1.65-2.275c.91 0 1.655 1 1.655 2.275s-.745 2.275-1.655 2.275Zm0-4.05c-.62 0-1.15.815-1.15 1.775s.53 1.775 1.15 1.775c.62 0 1.155-.815 1.155-1.775s-.53-1.775-1.155-1.775Z" class="shade90"/>
    <path fill="#ffffff" d="M152.145 91.161c.613-.935.586-2.037-.06-2.461-.647-.424-1.668-.01-2.281.926-.614.935-.586 2.037.06 2.46.647.425 1.668.01 2.281-.925Z" class="shade0"/>
    <path fill="#121212" d="M150.44 92.5a1.265 1.265 0 0 1-.71-.205c-.76-.5-.82-1.76-.135-2.805a2.787 2.787 0 0 1 1.245-1.07 1.498 1.498 0 0 1 1.385.07c.76.5.82 1.76.135 2.81a2.466 2.466 0 0 1-1.92 1.2Zm1.06-3.7a1.357 1.357 0 0 0-.5.1c-.412.186-.76.49-1 .875-.5.805-.53 1.775 0 2.115.53.34 1.41-.045 1.935-.85.525-.805.53-1.77 0-2.115a.795.795 0 0 0-.435-.125Z" class="shade90"/>
    <path fill="#6998b5" d="m117.51 127.88 11.985 19.5-13.075.62-3.11 20.235 116.895 12.295-118.61-11.515 2.805-24.905h11.83l-8.72-16.56" class="shade50"/>
    <path fill="#ffffff" d="m319.865 199.21-5.915 8.405s24.59 6.225 37.045 15.255c12.455 9.03 16.81 11.83 16.81 11.83L389 196.41s-41.405-11.21-47.32-14.945c-5.915-3.735-6.225-3.735-6.225-3.735l-15.59 21.48Z" class="shade0"/>
    <path fill="#121212" d="M367.805 234.95a.248.248 0 0 1-.135-.04c-.045-.03-4.5-2.91-16.825-11.835s-36.715-15.155-36.96-15.215a.238.238 0 0 1-.17-.155.24.24 0 0 1 .03-.235l5.915-8.405 15.565-21.5a.246.246 0 0 1 .09-.076.255.255 0 0 1 .115-.029c.315 0 3.63 2.055 6.36 3.775 5.815 3.675 46.835 14.8 47.25 14.915a.248.248 0 0 1 .1.05.24.24 0 0 1 .05.31l-21.165 38.29a.25.25 0 0 1-.16.12.126.126 0 0 1-.06.03Zm-53.445-27.5c3.055.805 25.24 6.835 36.78 15.205 10.785 7.815 15.54 11 16.575 11.675l20.885-37.78c-4.085-1.11-41.405-11.3-47.08-14.885-4.31-2.725-5.62-3.45-6-3.64l-15.45 21.315-5.71 8.11Z" class="shade90"/>
    <path fill="#ffffff" d="m365.285 180.585-.435-1.415s-11.24 1.815-15.575.5c-4.335-1.315-.055 6.37 7.61 5.085 7.665-1.285 8.4-4.17 8.4-4.17Z" class="shade0"/>
    <path fill="#121212" d="M355.17 185.17c-3.81 0-6.55-2.135-7.5-3.695-.445-.745-.5-1.405-.205-1.81.225-.285.725-.555 1.86-.215 4.23 1.265 15.35-.5 15.465-.5a.246.246 0 0 1 .275.175l.44 1.41a.258.258 0 0 1 0 .135c-.035.125-.875 3.08-8.605 4.375a10.33 10.33 0 0 1-1.73.125Zm-6.765-5.38a.626.626 0 0 0-.5.185c-.175.225-.085.7.24 1.245 1 1.675 4.25 4.06 8.72 3.31 6.755-1.135 8-3.54 8.185-3.95l-.35-1.125c-1.625.25-11.41 1.69-15.5.475a2.728 2.728 0 0 0-.795-.14Z" class="shade90"/>
    <path fill="#ffffff" d="M340.1 172.125s8.09 10.275 31.75 19.615c23.66 9.34 23.66 9 23.66 9l-18.365 34.87L315.5 199.5s19.93-20.835 24.6-27.375Z" class="shade0"/>
    <path fill="#121212" d="M377.145 235.885a.284.284 0 0 1-.13-.035l-61.635-36.11a.272.272 0 0 1-.125-.185.247.247 0 0 1 .07-.205c.2-.21 19.965-20.92 24.57-27.37a.255.255 0 0 1 .195-.105c.039 0 .078.008.113.025.036.016.067.04.092.07.08.105 8.34 10.335 31.65 19.535 21.205 8.375 23.36 8.995 23.555 8.995a.24.24 0 0 1 .24.196.249.249 0 0 1-.025.169l-18.35 34.885a.245.245 0 0 1-.155.125l-.065.01Zm-61.24-36.42 61.14 35.82 18.11-34.375c-1.25-.35-5.82-2-23.395-8.94-12.26-4.835-20.26-9.92-24.81-13.34a44.506 44.506 0 0 1-6.84-6.095c-4.665 6.365-22.05 24.67-24.205 26.93Z" class="shade90"/>
    <path fill="#121212" d="M340.95 191.675a.238.238 0 0 1-.125-.035.257.257 0 0 1-.116-.154.26.26 0 0 1 .026-.191c.57-.945 1.12-1.93 1.645-2.88a52.742 52.742 0 0 1 3.295-5.4.243.243 0 0 1 .163-.1.249.249 0 0 1 .285.209.256.256 0 0 1-.043.186 50.938 50.938 0 0 0-3.26 5.345c-.53.955-1.08 1.945-1.655 2.9a.246.246 0 0 1-.215.12Zm-9.415 10.68a.259.259 0 0 1-.106-.026.255.255 0 0 1-.084-.069.249.249 0 0 1-.047-.086c-.01-.031-.013-.064-.01-.097a.248.248 0 0 1 .092-.167 45.242 45.242 0 0 0 7.3-7.595.255.255 0 0 1 .35-.05c.052.04.086.1.095.166a.254.254 0 0 1-.05.184 45.508 45.508 0 0 1-7.38 7.68.248.248 0 0 1-.16.06Zm9.79-4.24a.24.24 0 0 1-.16-.055.25.25 0 0 1-.035-.35 51.435 51.435 0 0 0 4.61-7.06c.825-1.43 1.685-2.915 2.61-4.32a.245.245 0 0 1 .345-.075.257.257 0 0 1 .07.35C347.85 188 347 189.5 346.17 190.9a51.155 51.155 0 0 1-4.67 7.125.255.255 0 0 1-.078.064.25.25 0 0 1-.097.026Zm-6.375 6.425a.247.247 0 0 1-.146-.045.246.246 0 0 1-.098-.273.248.248 0 0 1 .084-.127 45.497 45.497 0 0 0 5.28-5.145.248.248 0 0 1 .355 0 .25.25 0 0 1 0 .35 45.683 45.683 0 0 1-5.32 5.2.237.237 0 0 1-.155.04Zm3.41 2.185a.263.263 0 0 1-.241-.181.246.246 0 0 1 .086-.264c.065-.055 6.455-5.245 9.915-11.585 3.46-6.34 5.285-8.5 5.36-8.57a.256.256 0 0 1 .355 0 .233.233 0 0 1 .06.076.236.236 0 0 1 .026.094.225.225 0 0 1-.012.096.23.23 0 0 1-.049.084s-1.84 2.135-5.305 8.5c-3.5 6.425-9.97 11.68-10.035 11.735a.274.274 0 0 1-.16.015Zm11.6-6.61a.259.259 0 0 1-.145-.045.236.236 0 0 1-.102-.16.244.244 0 0 1 .042-.185c1.115-1.595 2.095-3.325 3.035-5a51.498 51.498 0 0 1 3.71-5.92c.13-.165.255-.33.39-.5a.254.254 0 0 1 .355-.03.266.266 0 0 1 .089.172.25.25 0 0 1-.059.183c-.13.15-.255.31-.375.47a50.315 50.315 0 0 0-3.67 5.9c-.95 1.68-1.935 3.42-3.065 5.035a.253.253 0 0 1-.205.08Zm-8.185 8.795a.253.253 0 0 1-.146-.044.253.253 0 0 1-.093-.121.248.248 0 0 1 .079-.28 40.222 40.222 0 0 0 2.18-1.92.264.264 0 0 1 .081-.055.27.27 0 0 1 .097-.019c.033 0 .065.007.096.019a.264.264 0 0 1 .135.135.242.242 0 0 1-.054.27 37.3 37.3 0 0 1-2.21 1.945.234.234 0 0 1-.165.07Zm16.165-14.345a.287.287 0 0 1-.13-.035.251.251 0 0 1-.08-.345 28.149 28.149 0 0 1 2.575-3.685.251.251 0 0 1 .42.146.254.254 0 0 1-.04.174 29.03 29.03 0 0 0-2.53 3.625.243.243 0 0 1-.092.088.248.248 0 0 1-.123.032Zm-12.755 16.525a.26.26 0 0 1-.102-.025A.263.263 0 0 1 345 211a.246.246 0 0 1 .04-.35 45.237 45.237 0 0 0 9.36-10.62.248.248 0 0 1 .345-.075.242.242 0 0 1 .112.254.228.228 0 0 1-.037.091 45.61 45.61 0 0 1-9.465 10.735.249.249 0 0 1-.17.055Zm17.045-15.655a.232.232 0 0 1-.135-.04.248.248 0 0 1-.075-.345 24.643 24.643 0 0 1 1.695-2.365.254.254 0 0 1 .444.139.241.241 0 0 1-.059.181 24.278 24.278 0 0 0-1.66 2.32.268.268 0 0 1-.21.11ZM351.14 211a.248.248 0 0 1-.233-.156.251.251 0 0 1 .058-.274 47.23 47.23 0 0 0 9.125-12.385.247.247 0 0 1 .145-.124.246.246 0 0 1 .19.014.26.26 0 0 1 .125.147.258.258 0 0 1-.015.193 47.706 47.706 0 0 1-9.22 12.5.261.261 0 0 1-.175.085Zm12.66-10.405a.238.238 0 0 1-.125-.035.24.24 0 0 1-.117-.151.248.248 0 0 1 .027-.189l.13-.22a37.114 37.114 0 0 1 3.415-5.13.249.249 0 0 1 .277-.102.248.248 0 0 1 .181.233.245.245 0 0 1-.078.189 37.066 37.066 0 0 0-3.365 5.065l-.145.245a.252.252 0 0 1-.2.095Zm-5.155 8.165a.244.244 0 0 1-.133-.04.244.244 0 0 1-.091-.105.254.254 0 0 1 .034-.265 23.525 23.525 0 0 0 3.585-5.415.24.24 0 0 1 .059-.079.25.25 0 0 1 .355.016.241.241 0 0 1 .041.273 24.095 24.095 0 0 1-3.66 5.53.255.255 0 0 1-.19.085Zm-6.645 6.7a.252.252 0 0 1-.18-.075.244.244 0 0 1 0-.35c.5-.47.965-.93 1.45-1.395.705-.675 1.41-1.345 2.1-2.03a.264.264 0 0 1 .081-.055.26.26 0 0 1 .192 0 .269.269 0 0 1 .082.055.256.256 0 0 1 0 .355c-.7.685-1.405 1.36-2.11 2.035l-1.445 1.39a.237.237 0 0 1-.17.07Zm12.755-8.355a.238.238 0 0 1-.13-.035.242.242 0 0 1-.073-.066.243.243 0 0 1-.046-.187.239.239 0 0 1 .034-.092c.61-1 1.195-2.05 1.76-3.065a41.038 41.038 0 0 1 4.24-6.605.248.248 0 0 1 .352-.032.252.252 0 0 1 .033.352 40.984 40.984 0 0 0-4.19 6.525 85.96 85.96 0 0 1-1.765 3.085.25.25 0 0 1-.215.12Zm-9.33 10.54a.248.248 0 0 1-.232-.165.244.244 0 0 1-.007-.149.254.254 0 0 1 .079-.126 45.1 45.1 0 0 0 7.675-8.1.251.251 0 0 1 .446.206.233.233 0 0 1-.041.089 45.714 45.714 0 0 1-7.765 8.19.225.225 0 0 1-.155.055Zm17.835-16.82a.261.261 0 0 1-.145-.045.255.255 0 0 1-.103-.162.251.251 0 0 1 .043-.188c.32-.45.595-.83.9-1.19a.255.255 0 0 1 .165-.068.25.25 0 0 1 .255.214.254.254 0 0 1-.04.174c-.295.35-.56.715-.875 1.16a.249.249 0 0 1-.2.105Zm-10.92 15.825a.251.251 0 0 1-.165-.435c3.835-3.5 6.56-8.5 8.755-12.5a.25.25 0 1 1 .44.24c-2.21 4.045-4.96 9.075-8.86 12.625a.247.247 0 0 1-.17.07Zm-.09 5.35a.241.241 0 0 1-.195-.095.25.25 0 0 1 .035-.35c.065-.05 6.46-5.245 9.915-11.58 3.5-6.41 5.29-8.5 5.365-8.57a.24.24 0 0 1 .175-.073.24.24 0 0 1 .175.073.256.256 0 0 1 0 .355s-1.84 2.135-5.3 8.5c-3.5 6.425-9.975 11.68-10.04 11.73a.223.223 0 0 1-.13.01Zm14.39-11.23a.215.215 0 0 1-.12-.035.252.252 0 0 1-.075-.063.255.255 0 0 1-.051-.185.25.25 0 0 1 .031-.092l.365-.64c.455-.795.905-1.585 1.375-2.365a.263.263 0 0 1 .064-.08.255.255 0 0 1 .194-.056.253.253 0 0 1 .21.302.251.251 0 0 1-.043.094c-.465.775-.915 1.565-1.365 2.35l-.365.645a.249.249 0 0 1-.22.125Zm-4.14 6.41a.225.225 0 0 1-.155-.055.24.24 0 0 1-.094-.166.239.239 0 0 1 .054-.184 36.164 36.164 0 0 0 2.4-3.5.232.232 0 0 1 .153-.113.243.243 0 0 1 .187.033.236.236 0 0 1 .072.065.234.234 0 0 1 .046.184.25.25 0 0 1-.033.091 35.562 35.562 0 0 1-2.435 3.53.257.257 0 0 1-.195.115Zm-6.84 7.02a.249.249 0 0 1-.16-.445 45.175 45.175 0 0 0 4.15-3.905.244.244 0 0 1 .179-.104.254.254 0 0 1 .106.012.254.254 0 0 1 .15.142c.014.034.02.069.018.105a.256.256 0 0 1-.093.185 45.656 45.656 0 0 1-4.19 3.955.288.288 0 0 1-.16.055Z" class="shade90"/>
    <path fill="#9fbdd0" d="M377.388 226.006c.591-1.297-.273-2.96-1.929-3.714-1.655-.755-3.477-.316-4.068.981-.591 1.297.273 2.959 1.929 3.714 1.656.755 3.477.315 4.068-.981Z" class="shade40"/>
    <path fill="#6998b5" d="M337.45 190.65a101.73 101.73 0 0 1-8.405 9.96l-2.18-1.245s8.095-9.34 11.21-14 3.11-6.54 3.11-6.54l2.18 1.555s-1.245 4.045-5.915 10.27Z" class="shade50"/>
    <path fill="#ffffff" d="M273.5 176.5s6.205 9 6.5 11.5a8.284 8.284 0 0 1-.625 4.355s-3.11-1.555-8.715-6.845-12.45-10.275-12.14-10.9c.31-.625 10.895-.93 10.895-.93" class="shade0"/>
    <path fill="#121212" d="M279.395 192.61a.233.233 0 0 1-.115-.025c-.13-.065-3.21-1.635-8.775-6.89-2.545-2.4-5.36-4.75-7.62-6.635-4-3.325-4.81-4.08-4.575-4.555.315-.625 6.215-.925 11.115-1.07a.249.249 0 0 1 .25.25.25.25 0 0 1-.25.25c-4.65.135-9.81.455-10.635.795.305.5 2.385 2.26 4.405 3.945 2.265 1.89 5.085 4.245 7.64 6.655 4.65 4.395 7.605 6.215 8.42 6.68a8.24 8.24 0 0 0 .5-3.975c-.3-2.4-6.43-11.32-6.5-11.41a.25.25 0 0 1 .415-.28c.255.37 6.265 9.105 6.58 11.63a8.493 8.493 0 0 1-.65 4.5.237.237 0 0 1-.205.135Z" class="shade90"/>
    <path fill="#ffffff" d="m356.675 183.205-1.355-.76s-3.72 2.37-7.465 5.275c-3.745 2.905-3.925 4.38-2.865 4.89 1.06.51 12.42-6.31 12.42-6.31l-.735-3.095Z" class="shade0"/>
    <path fill="#121212" d="M345.09 192.87a.519.519 0 0 1-.21-.035 1.148 1.148 0 0 1-.695-.92c-.105-1 1.075-2.5 3.5-4.395 3.705-2.875 7.445-5.26 7.5-5.285a.257.257 0 0 1 .26 0l1.355.765c.03.017.057.039.077.067a.233.233 0 0 1 .043.093l.735 3.09a.245.245 0 0 1-.012.156.254.254 0 0 1-.103.119c-2.54 1.53-10.73 6.345-12.45 6.345Zm10.24-10.13c-.68.44-4 2.61-7.32 5.175-3 2.34-3.375 3.475-3.325 3.95a.647.647 0 0 0 .415.5c.69.225 6.62-2.965 12-6.2l-.665-2.81-1.105-.615Z" class="shade90"/>
    <path fill="#ffffff" d="m393.645 153.45-16.735 25.155s-.31 4.7-1.825 6.25c-1.515 1.55-8.165 4.065-13.165 8.455s-4.15 7.63-6.31 8.195c-2.16.565-.37-5.695.63-7.855 1.6-3.465 1.915-4.09 1.915-4.09s-1.59.125-3.115 2.18c-1.625 2.19-3.2 6.325-3.71 6.66-1 .645-2.065-1.5-2.065-1.5a2.082 2.082 0 0 1-2.21-1.615c-.5-1.8 3.415-8.975 5.555-11.075 2.14-2.1 13.635-6.655 15.06-8.57 1.425-1.915 11.105-28.405 11.105-28.405l14.87 6.215Z" class="shade0"/>
    <path fill="#121212" d="M355.35 201.795a.828.828 0 0 1-.665-.31c-1.045-1.25.545-6.25 1.325-7.94.945-2.035 1.44-3.09 1.69-3.615a5.349 5.349 0 0 0-2.46 1.96 31.086 31.086 0 0 0-2.5 4.45c-.685 1.41-1 2.09-1.295 2.27a1.01 1.01 0 0 1-.79.125c-.735-.2-1.345-1.19-1.56-1.575a2.321 2.321 0 0 1-1.475-.493 2.32 2.32 0 0 1-.835-1.312c-.5-2 3.5-9.215 5.625-11.315 1.06-1.04 4.185-2.585 7.5-4.22 3.315-1.635 6.835-3.38 7.535-4.32 1.385-1.865 11-28.08 11.075-28.345a.268.268 0 0 1 .053-.087.24.24 0 0 1 .083-.058.242.242 0 0 1 .199 0l14.865 6.21a.227.227 0 0 1 .14.155.233.233 0 0 1 .009.108.231.231 0 0 1-.039.102l-16.7 25.105c-.045.61-.405 4.825-1.885 6.34-.63.645-2.06 1.425-3.875 2.41-2.665 1.45-6.315 3.435-9.305 6.06a15.992 15.992 0 0 0-4.375 5.905c-.56 1.195-.965 2.06-2.035 2.345-.1.027-.202.042-.305.045Zm2.805-12.5a.243.243 0 0 1 .205.11.25.25 0 0 1 0 .25s-.33.67-1.91 4.085c-.925 2-2.15 6.5-1.395 7.41.07.085.19.175.5.1.85-.22 1.175-.92 1.715-2.075a16.408 16.408 0 0 1 4.5-6.065c3.035-2.665 6.71-4.665 9.395-6.125 1.775-.965 3.18-1.73 3.755-2.32 1.435-1.47 1.75-6.045 1.755-6.09 0-.043.014-.085.04-.12l16.565-24.91-14.345-6c-1.04 2.845-9.68 26.385-11.05 28.225-.775 1.04-4.15 2.71-7.72 4.5-3.13 1.545-6.365 3.14-7.365 4.125-2.165 2.125-5.925 9.175-5.5 10.835a1.826 1.826 0 0 0 1.945 1.425.257.257 0 0 1 .146.029c.044.024.08.061.104.106.18.355.77 1.315 1.32 1.46a.434.434 0 0 0 .385-.06c.437-.652.812-1.343 1.12-2.065a31.166 31.166 0 0 1 2.5-4.535c1.57-2.12 3.225-2.275 3.295-2.28l.04-.015Z" class="shade90"/>
    <path fill="#ffffff" d="M349.265 196.905s2.605-8.305 3.9-9.64a3.494 3.494 0 0 1 2.77-1.15" class="shade0"/>
    <path fill="#121212" d="M349.265 197.155h-.075a.25.25 0 0 1-.16-.315c.105-.34 2.635-8.375 3.955-9.74a3.74 3.74 0 0 1 3-1.225.254.254 0 0 1 .168.094.25.25 0 0 1-.228.406 3.268 3.268 0 0 0-2.56 1.08c-1 1-2.945 6.685-3.84 9.54a.25.25 0 0 1-.26.16Z" class="shade90"/>
    <path fill="#ffffff" d="m258.11 190.045 1.5 1.345 5.36-.5c.145-.125.285-.255.425-.39l13.075-16.19 6.53-27.09L255.5 181l-6 3s-1.435 2.77-1.555 2.805c2.02 1.74 8.165 1.44 10.165 3.24Z" class="shade0"/>
    <path fill="#121212" d="M259.6 191.64a.251.251 0 0 1-.165-.065l-1.5-1.345c-.95-.855-3-1.23-4.965-1.59-1.965-.36-4.135-.755-5.19-1.695a.24.24 0 0 1-.075-.245.253.253 0 0 1 .085-.14c.15-.19.87-1.5 1.5-2.72a.29.29 0 0 1 .11-.11l5.96-2.955 29.455-33.715a.242.242 0 0 1 .3-.06c.05.025.09.067.113.118.024.05.03.108.017.162l-6.545 27.085a.266.266 0 0 1-.045.1L265.58 190.65c-.16.16-.305.295-.455.425a.255.255 0 0 1-.14.06l-5.36.5-.025.005Zm-11.31-4.93c1 .75 2.92 1.1 4.775 1.44 2.04.37 4.155.76 5.21 1.71l1.41 1.27 5.17-.5c.12-.105.24-.215.35-.325l13.025-16.125 6.27-26.025-28.82 33a.229.229 0 0 1-.075.06l-5.93 2.94c-.785 1.535-1.175 2.235-1.385 2.555Z" class="shade90"/>
    <path fill="#ffffff" d="m329.5 85.27 1.555 3.425.62 9.34s-2.175 4.05 2.18 6.54 5 4.355 5 4.355 1.87-4.045 4.67-6.535 5-6.54 5-6.54-5-11.205-5.605-14.94c-.605-3.735-.625-4.05-.625-4.05L329.5 85.27Z" class="shade0"/>
    <path fill="#121212" d="M338.855 109.18a.256.256 0 0 1-.225-.17s-.68-1.825-4.865-4.22c-4.185-2.395-2.575-6.245-2.31-6.805l-.615-9.225-1.54-3.385a.253.253 0 0 1-.012-.172.254.254 0 0 1 .102-.138l12.765-8.405a.242.242 0 0 1 .255 0 .258.258 0 0 1 .095.092.259.259 0 0 1 .035.128s.03.445.62 4c.61 3.66 5.535 14.77 5.585 14.88a.247.247 0 0 1 0 .22c-.025.04-2.235 4.115-5.035 6.605-2.8 2.49-4.59 6.415-4.61 6.455a.246.246 0 0 1-.245.14Zm-9.025-23.815 1.465 3.23a.243.243 0 0 1 0 .085l.645 9.32a.258.258 0 0 1 0 .135c-.085.155-2 3.865 2.08 6.2 3.155 1.805 4.395 3.295 4.85 4 .575-1.135 2.22-4.14 4.5-6.175 2.5-2.205 4.5-5.71 4.87-6.36-.555-1.255-5-11.325-5.57-14.89-.36-2.145-.5-3.17-.58-3.655l-12.26 8.11Z" class="shade90"/>
    <path fill="#121212" d="M327.065 80.2s-1.695-2.55-1.415-4.245c.207-1.215.303-2.447.285-3.68 0-.85 3.68-6.23 7.36-6.795 3.68-.565 11.32 1.415 12.455 4.53 1.135 3.115.565 5 0 7.305a17.362 17.362 0 0 0-.57 3.73l-18.115-.845Z" class="shade90"/>
    <path fill="#121212" d="M327.065 75.105s-3.675 1.695-4.245-3.115c-.57-4.81 4.245-6.225 4.245-6.225s-.845-2 3.115-2.55c3.96-.55 4.815.85 4.815.85s4.5-2.265 6.79-1.7c2.29.565 1.135 2.55 1.135 2.55s3.68.85 3.96 2.545c.28 1.695 1.135 5.38 0 7.36-1.135 1.98-11.04-1.13-11.04-1.13l-8.775 1.13v.285Z" class="shade90"/>
    <path fill="#ffffff" d="M331.595 68.025s-3.96 1.135-4.245 11.89c-.285 10.755 9.06 15.57 14.155 8.5 5.095-7.07 6.495-24.065-9.91-20.39Z" class="shade0"/>
    <path fill="#6998b5" d="M343.76 81.93c-.34.105-.4.7-.69.94a2.17 2.17 0 0 1-1.385.35 7.833 7.833 0 0 1-1.795-.365 4.958 4.958 0 0 0-2.03 0 5.665 5.665 0 0 0-2.28 1c-.465.42-.866.905-1.19 1.44a3.002 3.002 0 0 1-2.28 1.17A4.818 4.818 0 0 1 329.5 86c-.81-.44-.84-1.145-.945-1.97-.105-.825-.195-1.645-.3-2.465-.06-.5 0-1.04-.59-1.26a1.076 1.076 0 0 0-.295-.05c-.08 10.5 9.115 15.155 14.16 8.15a19.163 19.163 0 0 0 2.84-6.4 1.125 1.125 0 0 0-.61-.075Z" class="shade50"/>
    <path fill="#121212" d="M335.69 92a6.602 6.602 0 0 1-2.125-.355c-3.34-1.13-6.635-5.19-6.465-11.73.285-10.815 4.26-12.075 4.425-12.125 7.15-1.6 10.465.81 12 3.11 3.07 4.65 1.5 13.04-1.82 17.66-1.61 2.23-3.765 3.44-6.015 3.44Zm-4.03-23.725c-.16.055-3.79 1.44-4.06 11.65-.165 6.285 2.955 10.175 6.125 11.245 2.765.935 5.595-.155 7.575-2.905 3.23-4.5 4.765-12.605 1.805-17.09-2.055-3.115-6.01-4.12-11.445-2.905v.005Z" class="shade90"/>
    <path fill="#121212" d="M336.195 86.12h-.37a.246.246 0 0 1-.23-.27.24.24 0 0 1 .265-.23c.035 0 3.5.24 4.565-2.115a.26.26 0 0 1 .051-.09.257.257 0 0 1 .186-.085.25.25 0 0 1 .239.172.246.246 0 0 1 .011.104.234.234 0 0 1-.032.099c-.98 2.205-3.685 2.415-4.685 2.415Z" class="shade90"/>
    <path fill="#ffffff" d="M335.275 83.88s-2.265-.285-2.265-.85 1.415-2.83 1.415-4.245a4.368 4.368 0 0 0-.565-2.265" class="shade0"/>
    <path fill="#121212" d="M335.275 84.13h-.03c-.93-.115-2.5-.41-2.5-1.095.091-.484.26-.95.5-1.38.39-.865.92-2.055.92-2.865a4.194 4.194 0 0 0-.525-2.13.256.256 0 0 1-.036-.189.253.253 0 0 1 .297-.194.248.248 0 0 1 .159.108c.418.731.628 1.563.605 2.405 0 .92-.535 2.11-.965 3.07a5.951 5.951 0 0 0-.45 1.175c.075.185 1.05.475 2.045.6a.25.25 0 0 1 .22.28.253.253 0 0 1-.24.215Zm-4.67-4.78c.234 0 .425-.253.425-.565 0-.312-.191-.565-.425-.565-.235 0-.425.253-.425.565 0 .312.19.565.425.565Zm7.645.565c.235 0 .425-.253.425-.565 0-.312-.19-.565-.425-.565s-.425.253-.425.565c0 .312.19.565.425.565Z" class="shade90"/>
    <path fill="#ffffff" d="M328.075 73.765s3.24-.645 5.5-.075Z" class="shade0"/>
    <path fill="#121212" d="M328.075 74a.245.245 0 0 1-.245-.2.249.249 0 0 1 .035-.19.248.248 0 0 1 .16-.105c.135 0 3.32-.65 5.615-.075a.254.254 0 0 1 .18.305.255.255 0 0 1-.305.18c-2.18-.545-5.36.075-5.395.08l-.045.005Z" class="shade90"/>
    <path fill="#ffffff" d="M338.67 74.82a6.326 6.326 0 0 1 3.68 2Z" class="shade0"/>
    <path fill="#121212" d="M342.35 77.05a.246.246 0 0 1-.19-.09 6.094 6.094 0 0 0-3.5-1.89.253.253 0 0 1 .065-.5 6.557 6.557 0 0 1 3.84 2.07.256.256 0 0 1-.035.355.226.226 0 0 1-.18.055Z" class="shade90"/>
    <path fill="#ffffff" d="M344 82.745c1.24-.04 4.43-.44 4.885-3.395.57-3.68-3.68-2.55-4.245-.85-.275.825-.55 1.855-.76 2.695" class="shade0"/>
    <path fill="#121212" d="M344 83a.25.25 0 0 1 0-.5c1.26-.04 4.225-.44 4.65-3.185.125-.825.07-1.86-.935-2.105-1.005-.245-2.53.5-2.825 1.375-.23.68-.5 1.58-.76 2.675a.24.24 0 0 1-.111.155.238.238 0 0 1-.189.025.254.254 0 0 1-.185-.305c.28-1.105.54-2 .77-2.71.38-1.135 2.135-2 3.415-1.7.5.12 1.63.62 1.315 2.665-.5 3.115-3.745 3.565-5.125 3.61H344Z" class="shade90"/>
    <path fill="#ffffff" d="M345.75 81.045s2.545 0 2.265-2.83Z" class="shade0"/>
    <path fill="#121212" d="M345.75 81.295a.24.24 0 0 1-.176-.07.242.242 0 0 1-.074-.175.254.254 0 0 1 .25-.255 2.305 2.305 0 0 0 1.54-.665 2.38 2.38 0 0 0 .475-1.89.25.25 0 1 1 .5-.05 2.808 2.808 0 0 1-.6 2.275 2.77 2.77 0 0 1-1.915.83Z" class="shade90"/>
    <path fill="#ffffff" d="M327.76 82.75c-.93 0-4.675-.18-5.17-3.4-.565-3.68 3.68-2.55 4.245-.85.265.8.535 1.785.74 2.605" class="shade0"/>
    <path fill="#121212" d="M327.735 83c-.865 0-4.865-.19-5.39-3.615-.315-2.045.81-2.545 1.31-2.665 1.285-.31 3.04.565 3.42 1.7.225.675.5 1.555.745 2.625a.252.252 0 0 1-.096.264.25.25 0 0 1-.389-.139c-.27-1.06-.5-1.93-.735-2.59-.3-.89-1.805-1.62-2.825-1.375-1.02.245-1.065 1.28-.94 2.105.455 2.95 3.82 3.19 4.895 3.19h.03a.251.251 0 0 1 .25.25.266.266 0 0 1-.085.183.264.264 0 0 1-.19.067Z" class="shade90"/>
    <path fill="#ffffff" d="M325.705 81.045s-2.55 0-2.265-2.83Z" class="shade0"/>
    <path fill="#121212" d="M325.705 81.295a2.771 2.771 0 0 1-1.915-.83 2.843 2.843 0 0 1-.6-2.275.237.237 0 0 1 .029-.094.245.245 0 0 1 .246-.127.249.249 0 0 1 .225.27 2.371 2.371 0 0 0 .47 1.89c.413.41.965.647 1.545.666a.258.258 0 0 1 .25.255.248.248 0 0 1-.075.173.248.248 0 0 1-.175.072Zm-1.47-10.155s-2.265-4.245-.28-6.79 3.395 2.545 3.395 2.545l2.265-2.265s-.85-3.68 1.7-4.245 2.26 2.265 2.26 2.265 1.135-2.265 3.4-2.265c2.265 0 1.695 3.965 1.695 3.965s4.815-2 6.795-.285c1.98 1.715.85 4.81.85 4.81s-20.095-3.375-22.08 2.265Z" class="shade90"/>
    <path fill="#121212" d="m326.22 73.69 1.265 3.845.855-3.42 1-2.125a3.433 3.433 0 0 0 3.4.285c2-.85 2.265-2 2.265-2a3.373 3.373 0 0 0 2.83 2.265c2.26.285 2.545-.28 2.545-.28s-.565 1.13 1.135 1.415c1.7.285 1.695 0 1.695 0l2 3.11.57-6.5-6.795-3.11-6.225-.85-2.55 1.13s.875-2.69-.835.78a43.288 43.288 0 0 1-3.155 5.455Z" class="shade90"/>
    <path fill="#ffffff" d="M366.53 100.685s19 6.69 28.045 26.615c9.045 19.925-8.09 47-8.09 47s-5.915-2.18-9.655-4.67c-3.74-2.49-7.47-7.47-7.47-7.47s10.42-17.5 3.34-29.6c-7.08-12.1-13.3-13.67-13.3-13.67" class="shade0"/>
    <path fill="#121212" d="M386.5 174.555a.272.272 0 0 1-.09 0c-.06 0-6-2.215-9.7-4.695-3.7-2.48-7.5-7.5-7.535-7.53a.257.257 0 0 1 0-.28c.105-.17 10.26-17.5 3.34-29.345-6.92-11.845-13.085-13.54-13.145-13.555a.252.252 0 0 1-.159-.116.26.26 0 0 1 .011-.285.253.253 0 0 1 .074-.068.26.26 0 0 1 .194-.031c.26.065 6.41 1.72 13.46 13.79 2.04 3.5 3.875 9.725 1 19.54a50.555 50.555 0 0 1-4.265 10.165c.62.8 4 5.07 7.31 7.285 3.31 2.215 8.365 4.175 9.41 4.57 1.43-2.35 16.465-27.85 7.97-46.6-8.88-19.59-27.715-26.41-27.905-26.5a.252.252 0 0 1-.155-.315.259.259 0 0 1 .129-.143.258.258 0 0 1 .191-.012c.19.07 19.225 6.955 28.195 26.745 8.97 19.79-7.94 46.975-8.11 47.245a.245.245 0 0 1-.092.097.252.252 0 0 1-.128.038Z" class="shade90"/>
    <path fill="#ffffff" d="M314.8 107.795c-1.135.87-8.9 7.175-19.53 23.55-5.455 8.4-32.115 38.89-36.715 43.425 1.379.47 2.796.823 4.235 1.055a22.315 22.315 0 0 1 6.5 2.09 15.612 15.612 0 0 1 4.65 3.89c1.465 1.795 4.5 8.43 5.425 10.555 7.83-10.545 40.59-58 44.915-65.39" class="shade0"/>
    <path fill="#121212" d="M279.395 192.61h-.03a.232.232 0 0 1-.121-.047.237.237 0 0 1-.079-.103c-.945-2.19-4-8.755-5.395-10.5a15.395 15.395 0 0 0-4.575-3.825 22.087 22.087 0 0 0-6.455-2.065h-.05a25.556 25.556 0 0 1-4.22-1.06.244.244 0 0 1-.16-.18.258.258 0 0 1 .07-.23c4.815-4.745 31.28-35.06 36.68-43.38 10.53-16.225 18.165-22.5 19.585-23.615a.25.25 0 0 1 .305.395c-.865.67-8.765 7-19.47 23.5-5.315 8.19-31 37.63-36.465 43.185 1.234.39 2.494.692 3.77.905h.05a22.556 22.556 0 0 1 6.6 2.115 15.966 15.966 0 0 1 4.725 3.95c1.46 1.795 4.34 8.06 5.29 10.22 8.41-11.405 40.54-58.03 44.64-65a.257.257 0 0 1 .153-.118.275.275 0 0 1 .099-.006.259.259 0 0 1 .166.099.251.251 0 0 1 .012.28c-4.145 7.065-36.935 54.635-44.925 65.41a.259.259 0 0 1-.092.057.266.266 0 0 1-.108.013Zm47.67-118.355.85 7.36-.425.14s-2.545-5.66-2.265-10.19m18.685 1.7-1.415 8.775 2.005-.71 1.9-7.72M324 70.875a.253.253 0 0 1-.225-.135c-.095-.18-2.345-4.41-1.75-6.19.385-1.155 1.245-2.04 2.145-2.2a1.723 1.723 0 0 1 1.68.71c.355.447.672.923.945 1.425a1.59 1.59 0 0 1 .73-1.5 2 2 0 0 1 2.27.33.253.253 0 0 1 .074.177.263.263 0 0 1-.019.097.263.263 0 0 1-.135.137.238.238 0 0 1-.27-.056 1.501 1.501 0 0 0-1.695-.235c-.765.385-.38 2.155-.165 2.81a.25.25 0 0 1-.47.165 11.226 11.226 0 0 0-1.65-3.035 1.212 1.212 0 0 0-1.2-.5c-.715.125-1.44.895-1.76 1.865-.44 1.31 1.09 4.625 1.72 5.795.03.06.036.128.016.191a.253.253 0 0 1-.121.149.23.23 0 0 1-.12 0Zm21.75 14.385a.245.245 0 0 1-.245-.2.25.25 0 0 1 .035-.19.25.25 0 0 1 .16-.106c1.565-.314 4.045-1.14 4.045-2a4.142 4.142 0 0 0-.5-2.124.272.272 0 0 1-.035-.205.246.246 0 0 1 .13-.155c.11-.055 2.63-1.36 1.855-3.95-.75-2.5-1.185-2.81-1.205-2.825a.202.202 0 0 1-.081-.044.201.201 0 0 1-.054-.076.22.22 0 0 1-.022-.098.22.22 0 0 1 .022-.097c0-.035 1.305-3.215 1.035-5.11-.255-1.785-2.34-2.33-2.36-2.335a.256.256 0 0 1-.19-.31.258.258 0 0 1 .31-.19c.1.025 2.43.635 2.735 2.755.255 1.785-.725 4.5-1 5.2.36.39.815 1.435 1.275 3 .75 2.5-1.2 4-1.885 4.41.332.675.503 1.418.5 2.17 0 1.575-4 2.42-4.45 2.5l-.075-.02Zm-1.895-19.82a.248.248 0 0 1-.24-.185c-.5-1.71-1.195-3.205-1.545-3.205-.23 0-1.055.74-1.55 1.175-1.08.955-1.615 1.405-1.97 1.15-.26-.185-.215-.605.175-1.54.42-1 .395-1.79-.08-2.3-.77-.83-2.57-.81-3.575-.5-1.215.405-.905 3-.685 3.955a.246.246 0 0 1-.029.189.24.24 0 0 1-.156.11.248.248 0 0 1-.261-.1.266.266 0 0 1-.039-.09c-.035-.16-.88-3.91 1-4.54 1.115-.37 3.13-.43 4.095.616.43.46.805 1.325.175 2.835-.13.278-.227.57-.29.87.457-.318.89-.67 1.295-1.05.91-.805 1.5-1.3 1.88-1.3.965 0 1.795 2.735 2.025 3.57a.258.258 0 0 1-.024.19.257.257 0 0 1-.151.12l-.05.03Z" class="shade90"/>
    <path fill="#9fbdd0" d="m281.754 162.234-2.396 2.707.375.332 2.396-2.707-.375-.332Zm5.962 6.493-1.713 3.581.451.216 1.713-3.582-.451-.215Zm-14.946 5.295-1.712 3.581.451.216 1.713-3.582-.452-.215Zm-9.716-1.898-.039.499 3.957.314.04-.498-3.958-.315Zm18.948 3.392-.039.499 3.957.314.04-.499-3.958-.314Zm-2.802 3.737-.04.498 3.958.315.039-.499-3.957-.314Zm-.275-6.038a1.245 1.245 0 1 0 0-2.49 1.245 1.245 0 0 0 0 2.49Zm1.245 13.7a1.246 1.246 0 1 0-.002-2.492 1.246 1.246 0 0 0 .002 2.492Zm-11.52-17.12a.625.625 0 1 0 0-1.25.625.625 0 0 0 0 1.25Zm20.86 4.045a.625.625 0 1 0 0-1.25.625.625 0 0 0 0 1.25Zm-14.32-7.16a.625.625 0 1 0 0-1.25.625.625 0 0 0 0 1.25Zm2.49 15.565a.625.625 0 1 0 0-1.25.625.625 0 0 0 0 1.25Zm6.225-17.12a.625.625 0 1 0 0-1.25.625.625 0 0 0 0 1.25Zm6.694-12.677-.499.011.189 8.218.5-.011-.19-8.218Zm11.746-.843-1.713 3.582.451.215 1.713-3.581-.451-.216Zm-24.698 3.371-.04.499 3.958.314.04-.499-3.958-.314Zm16.185 7.158-.04.498 3.958.315.039-.499-3.957-.314Zm-11.338-13.02-.39.31 2.794 3.514.39-.31-2.794-3.514Zm11.061 6.981a1.245 1.245 0 1 0 0-2.49 1.245 1.245 0 0 0 0 2.49Zm-16.185 5.915a1.244 1.244 0 1 0 .001-2.489 1.244 1.244 0 0 0-.001 2.489Zm5.915-9.335a.625.625 0 1 0 0-1.25.625.625 0 0 0 0 1.25Zm6.535-3.115a.625.625 0 1 0 0-1.25.625.625 0 0 0 0 1.25Zm8.72-1.555a.625.625 0 1 0 0-1.25.625.625 0 0 0 0 1.25Zm13.099-22.816-2.396 2.707.375.331 2.395-2.707-.374-.331Zm5.957 6.492-1.713 3.582.451.215 1.713-3.581-.451-.216Zm-15.561 10.275-1.713 3.582.451.215 1.713-3.581-.451-.216Zm.619-4.978-1.713 3.582.451.215 1.713-3.581-.451-.216Zm6.479 5.256-.039.498 3.957.315.04-.499-3.958-.314Zm-10.416-14.115-.391.313 2.813 3.518.391-.312-2.813-3.519Zm10.093 8.051a1.244 1.244 0 1 0 .001-2.489 1.244 1.244 0 0 0-.001 2.489Zm-16.185 5.915a1.245 1.245 0 1 0 0-2.49 1.245 1.245 0 0 0 0 2.49Zm5.915-9.335a.625.625 0 1 0 0-1.25.625.625 0 0 0 0 1.25Zm10.27 15.875a.625.625 0 1 0 0-1.25.625.625 0 0 0 0 1.25Zm-3.735-18.99a.625.625 0 1 0 0-1.25.625.625 0 0 0 0 1.25Zm2.49 15.565a.625.625 0 1 0 0-1.25.625.625 0 0 0 0 1.25Zm6.225-17.12a.625.625 0 1 0 0-1.25.625.625 0 0 0 0 1.25Zm75.218 27.114-.5.01.079 3.97.5-.01-.079-3.97Zm-10.97 11.449-.5.01.079 3.97.5-.01-.079-3.97Zm1.029-16.044-3.671 1.513.191.463 3.67-1.513-.19-.463Zm11.582 10.21-3.67 1.513.19.463 3.671-1.513-.191-.463Zm-.807 4.6-3.67 1.513.19.462 3.671-1.513-.191-.462Zm-17.417-5.492-.203.457 2.211.982.203-.457-2.211-.982Zm10.18 1.843a1.244 1.244 0 1 0 .001-2.489 1.244 1.244 0 0 0-.001 2.489Zm-6.44-31.145a1.244 1.244 0 1 0 .001-2.489 1.244 1.244 0 0 0-.001 2.489Zm-3.99 32.68a.625.625 0 1 0 0-1.25.625.625 0 0 0 0 1.25Zm20.43-5.835a.625.625 0 1 0 0-1.25.625.625 0 0 0 0 1.25Zm-16.01.1a.625.625 0 1 0 0-1.25.625.625 0 0 0 0 1.25Zm9.27 12.75a.625.625 0 1 0 0-1.25.625.625 0 0 0 0 1.25Zm-2.205-18.085a.625.625 0 1 0 0-1.25.625.625 0 0 0 0 1.25Zm.509-14.402-.44.237 3.89 7.241.441-.237-3.891-7.241Zm10.216-4.504-.5.01.079 3.97.5-.01-.079-3.97Zm-15.318 10.735-2.801 1.244.203.457 2.801-1.244-.203-.457Zm16.068-.539-3.67 1.513.19.463 3.671-1.513-.191-.463Zm-19.319-6.383-.207.455 4.102 1.864.207-.455-4.102-1.864Zm12.079 2.738a1.245 1.245 0 1 0 0-2.49 1.245 1.245 0 0 0 0 2.49Zm-10.43 1.535a.625.625 0 1 0 0-1.25.625.625 0 0 0 0 1.25Zm16.35 9.5a.625.625 0 1 0 0-1.25.625.625 0 0 0 0 1.25Zm-11.93-15.235a.625.625 0 1 0 0-1.25.625.625 0 0 0 0 1.25Zm9.27 12.75a.625.625 0 1 0 0-1.25.625.625 0 0 0 0 1.25Zm-2.205-18.09a.625.625 0 1 0 0-1.25.625.625 0 0 0 0 1.25Zm-16.446-8.571-.91 3.499.484.126.91-3.499-.484-.126Zm8.383 4.58-.5.01.079 3.97.5-.01-.079-3.97Zm-1.844-10.928-.5.01.079 3.97.5-.01-.079-3.97Zm-8.831-1.536-3.67 1.513.191.462 3.67-1.513-.191-.462Zm-1.655-7.329-.206.455 4.101 1.864.207-.455-4.102-1.864Zm21.613 20.004a1.245 1.245 0 1 0 0-2.49 1.245 1.245 0 0 0 0 2.49Zm-21.285-4.66a1.246 1.246 0 1 0-.002-2.492 1.246 1.246 0 0 0 .002 2.492Zm1.33-11.075a.625.625 0 1 0 0-1.25.625.625 0 0 0 0 1.25Zm16.35 9.505a.625.625 0 1 0 0-1.25.625.625 0 0 0 0 1.25Zm-13.625-5.315a.625.625 0 1 0 0-1.25.625.625 0 0 0 0 1.25Zm2.49 8.405a.625.625 0 1 0 0-1.25.625.625 0 0 0 0 1.25Zm-46.676-17.52-2.396 2.707.375.331 2.396-2.707-.375-.331Zm5.963 6.494-1.713 3.582.451.216 1.713-3.582-.451-.216Zm-14.94 5.293-1.713 3.581.452.216 1.712-3.581-.451-.216Zm-9.741-1.915-.04.499 3.958.315.039-.499-3.957-.315Zm19.025 3.437-.04.498 3.958.315.04-.498-3.958-.315Zm-3.126-2.329a1.245 1.245 0 1 0 0-2.49 1.245 1.245 0 0 0 0 2.49Zm1.245 13.695a1.245 1.245 0 1 0 0-2.49 1.245 1.245 0 0 0 0 2.49Zm-11.52-17.115a.625.625 0 1 0 0-1.25.625.625 0 0 0 0 1.25Zm20.86 4.045a.625.625 0 1 0 0-1.25.625.625 0 0 0 0 1.25Zm-14.325-7.16a.625.625 0 1 0 0-1.25.625.625 0 0 0 0 1.25Zm2.495 15.565a.625.625 0 1 0 0-1.25.625.625 0 0 0 0 1.25Zm6.225-17.12a.625.625 0 1 0 0-1.25.625.625 0 0 0 0 1.25Zm23.114 27.896-.5.012.19 8.217.5-.011-.19-8.218Zm5.548-15.846-2.396 2.707.374.331 2.396-2.707-.374-.331Zm5.959 6.494-1.713 3.581.451.216 1.713-3.581-.451-.216Zm-14.945 5.295-1.713 3.581.451.216 1.713-3.582-.451-.215Zm-9.738-1.914-.04.498 3.958.315.04-.498-3.958-.315Zm17.457 2.355a1.245 1.245 0 1 0 0-2.49 1.245 1.245 0 0 0 0 2.49Zm-17.745 4.665a1.245 1.245 0 1 0 0-2.49 1.245 1.245 0 0 0 0 2.49Zm5.915-9.335a.625.625 0 1 0 0-1.25.625.625 0 0 0 0 1.25Zm6.535-3.115a.625.625 0 1 0 0-1.25.625.625 0 0 0 0 1.25Zm4.05 17.435a.625.625 0 1 0 0-1.25.625.625 0 0 0 0 1.25Zm4.67-18.99a.625.625 0 1 0 0-1.25.625.625 0 0 0 0 1.25Zm-7.637-17.942-.5.011.189 8.218.5-.012-.189-8.217Zm5.784-7.361-2.396 2.707.375.331 2.396-2.707-.375-.331Zm5.962 6.496-1.713 3.581.451.216 1.713-3.582-.451-.215Zm-19.818 12.488-.04.498 3.958.315.039-.498-3.957-.315Zm.942-16.055-.391.313 2.813 3.518.391-.312-2.813-3.519Zm10.097 8.054a1.244 1.244 0 1 0 .001-2.489 1.244 1.244 0 0 0-.001 2.489Zm-16.19 5.915a1.245 1.245 0 1 0 0-2.49 1.245 1.245 0 0 0 0 2.49Zm5.915-9.34a.625.625 0 1 0 0-1.25.625.625 0 0 0 0 1.25Zm-4.98 15.255a.625.625 0 1 0 0-1.25.625.625 0 0 0 0 1.25Zm11.52-18.365a.625.625 0 1 0 0-1.25.625.625 0 0 0 0 1.25Zm2.49 15.565a.625.625 0 1 0 0-1.25.625.625 0 0 0 0 1.25Zm6.225-17.125a.625.625 0 1 0 0-1.25.625.625 0 0 0 0 1.25Zm-36.578 38.575-.499.032.189 2.909.499-.033-.189-2.908Zm17.653.83-1.713 3.582.451.215 1.713-3.581-.451-.216Zm-36.728-20.853-1.713 3.581.451.216 1.713-3.581-.451-.216Zm54.381 20.806-.04.498 3.958.315.04-.498-3.958-.315Zm5.589-5.301-.04.498 3.958.315.039-.499-3.957-.314Zm-34.868 10.583-.04.499 3.958.314.039-.498-3.957-.315Zm11.834-.931-.04.499 3.958.314.039-.498-3.957-.315Zm-14.903-1.374a1.245 1.245 0 1 0 0-2.49 1.245 1.245 0 0 0 0 2.49Zm-10.585-1.865a1.245 1.245 0 1 0 0-2.49 1.245 1.245 0 0 0 0 2.49Zm17.12-14.945a1.246 1.246 0 1 0-.002-2.492 1.246 1.246 0 0 0 .002 2.492Zm-10.27 10.275a.625.625 0 1 0 0-1.25.625.625 0 0 0 0 1.25Zm15.875 9.965a.625.625 0 1 0 0-1.25.625.625 0 0 0 0 1.25Zm-7.16-11.52a.625.625 0 1 0 0-1.25.625.625 0 0 0 0 1.25Z" class="shade40"/>
    <path fill="#121212" d="M284.685 71.5a.25.25 0 1 1 0-.5c.125 0 12.6-1 14.405-9.145a.255.255 0 1 1 .5.11c-1.885 8.5-14.725 9.5-14.855 9.53l-.05.005Z" class="shade90"/>
    <path fill="#ffffff" d="M353.33 181.935h5.29l1.87-1.87h-.935c-.625 0-4.67.935-4.67.935l-1.87.31" class="shade0"/>
    <path fill="#6998b5" d="M379.13 222.47c-.435-1.375-.445-2.835-.925-4.205-.245-.695-.5-1.39-.76-2.08-.185-.5-.315-1.095-.76-1.415a.254.254 0 0 0-.157-.031.244.244 0 0 0-.143.071.506.506 0 0 0-.14.375c0 .245-.045.5-.06.74-.028.435.028.871.165 1.285a4.493 4.493 0 0 0 1.375 2.03c.215.175.68.595 1 .5.32-.095.405-.5.415-.815 0-.5.15-1.04.17-1.565.02-.525.035-1.085 0-1.625a4.345 4.345 0 0 0-1.025-2.795.258.258 0 0 0-.305-.04.433.433 0 0 0-.275.38c-.015.27-.015.54 0 .81a3.677 3.677 0 0 0 .31 1.54c.16.472.475.876.895 1.145.432.229.922.327 1.41.28 1.03-.145 1.445-1.19 1.565-2.1a7.61 7.61 0 0 0 0-1.72c-.03-.31 0-.75-.285-.96a.252.252 0 0 0-.303-.042.248.248 0 0 0-.117.282c.15.645.38 1.585 1.075 1.85.695.265.875-1.035.945-1.465a8.279 8.279 0 0 0 .1-1.715c0-.285 0-1.03-.39-1.09a.25.25 0 0 0-.305.175.753.753 0 0 0-.018.299c.015.099.05.195.103.281a.255.255 0 0 0 .345.09c.455-.255.54-.95.6-1.415.095-.706.149-1.418.16-2.13 0-.275-.44-.35-.5-.07-.08.211-.095.44-.045.66a.257.257 0 0 0 .305.175c.257-.091.476-.268.62-.5.225-.258.424-.538.595-.835.155-.288.289-.587.4-.895a.89.89 0 0 0 .08-.565.263.263 0 0 0-.077-.121.257.257 0 0 0-.131-.059.246.246 0 0 0-.247.12 1.16 1.16 0 0 1-.095.115l.39.305c.23-.5.5-1.025.705-1.55.221-.558.413-1.127.575-1.705a.258.258 0 0 0-.5-.13 16.93 16.93 0 0 1-.53 1.6c-.205.5-.47 1-.695 1.53a.241.241 0 0 0-.029.172.248.248 0 0 0 .258.202.25.25 0 0 0 .161-.069c.066-.067.125-.141.175-.22l-.455-.06c.03.1-.085.31-.12.405a5.561 5.561 0 0 1-.31.675c-.131.227-.28.442-.445.645-.11.135-.29.42-.47.46l.305.175c-.05-.12 0-.27.045-.395l-.5-.065c0 .57-.06 1.14-.11 1.71a5.721 5.721 0 0 1-.115.77c-.045.2-.1.525-.29.635l.345.09a.18.18 0 0 1-.053-.094.175.175 0 0 1 .013-.106l-.305.175c-.135 0-.045-.09-.04.03.006.067.018.134.035.2 0 .17 0 .335.03.5a7.426 7.426 0 0 1-.18 1.925 3.219 3.219 0 0 1-.11.41c-.03.076-.067.15-.11.22.06.04.045.03-.045 0-.45-.31-.58-1-.695-1.475l-.42.24c.155.125.13.5.15.685.03.421.03.844 0 1.265-.035.66-.215 1.64-.92 1.92a1.692 1.692 0 0 1-1.16-.08 1.292 1.292 0 0 1-.745-.745 2.693 2.693 0 0 1-.365-1.15c0-.215-.03-.435-.03-.655a1.997 1.997 0 0 1 .025-.535l-.3-.04c.705.71.89 1.9.885 2.855 0 .565 0 1.135-.05 1.7 0 .265-.065.53-.095.795s.03.525-.175.655h.25a3.704 3.704 0 0 1-1.69-1.71 3.194 3.194 0 0 1-.365-1.185v-.625a3.942 3.942 0 0 1 .04-.605l-.3.035c.17.176.288.396.34.635l.36.93c.24.655.5 1.31.705 1.97.415 1.255.41 2.605.81 3.865.095.31.575.175.5-.13l.05-.005Z" class="shade50"/>
    <path fill="#121212" d="M55.64 133.79c-5.355 0-10.215-1.025-14.305-2.045-8.89-2.635-16.6-6.87-22.925-12.595a.25.25 0 0 1-.073-.175.244.244 0 0 1 .073-.175.263.263 0 0 1 .082-.055.263.263 0 0 1 .096-.019.26.26 0 0 1 .096.019c.03.013.058.032.081.055 6.265 5.675 13.91 9.87 22.72 12.5 4.346 1.09 9.575 2.18 15.33 2a.25.25 0 0 1 .177.427.25.25 0 0 1-.177.073l-1.175-.01ZM15.2 115.865a.254.254 0 0 1-.18-.075 27.297 27.297 0 0 1-2.425-2.965 43.867 43.867 0 0 0-1.435-1.865.254.254 0 0 1 .035-.355.25.25 0 0 1 .355.035c.53.65 1 1.28 1.445 1.89a27.604 27.604 0 0 0 2.385 2.915.246.246 0 0 1 .054.27.246.246 0 0 1-.234.15Zm51.14-1.21a83.323 83.323 0 0 1-10.5-1.12.259.259 0 0 1-.205-.194.253.253 0 0 1 .29-.306c3.452.589 6.937.96 10.435 1.11a.25.25 0 1 1 0 .5l-.02.01Zm4.66.02a.257.257 0 0 1-.25-.25.25.25 0 0 1 .25-.25c5.08-.03 14.53-1 20.765-7.235a.252.252 0 0 1 .355 0 .25.25 0 0 1 0 .355c-6.365 6.35-15.96 7.35-21.115 7.38H71Z" class="shade90"/>
    <path fill="#ffffff" d="M248.26 184.89s-7.16 8.405-7.47 10.275c-.31 1.87 2.5 11.5 5.29 10.895 2.79-.605 19.305-15.56 19.305-15.56" class="shade0"/>
    <path fill="#121212" d="M245.82 206.34a2.117 2.117 0 0 1-1.44-.69c-2.2-2.085-4.115-8.845-3.835-10.525.32-1.915 7.23-10.05 7.525-10.395a.25.25 0 1 1 .38.325c-1.975 2.32-7.165 8.675-7.415 10.15-.23 1.385 1.5 8 3.69 10.08a1.472 1.472 0 0 0 1.305.53c2.165-.5 13.5-10.355 19.185-15.5a.253.253 0 0 1 .364.007.25.25 0 0 1-.029.363c-.675.61-16.58 15-19.415 15.625-.104.02-.209.03-.315.03Z" class="shade90"/>
    <path fill="#121212" d="M243.28 206.93a.303.303 0 0 1-.095 0 .242.242 0 0 1-.082-.055.228.228 0 0 1-.055-.082.242.242 0 0 1 .002-.193l4.045-9.65a.253.253 0 0 1 .465.002.253.253 0 0 1 0 .193l-4.05 9.65a.26.26 0 0 1-.095.102.246.246 0 0 1-.135.033Zm-2.18-2.175a.303.303 0 0 1-.095 0 .239.239 0 0 1-.082-.054.256.256 0 0 1-.073-.179c0-.034.007-.066.02-.097l4.05-9.65a.255.255 0 0 1 .135-.141.256.256 0 0 1 .196 0 .259.259 0 0 1 .083.056.25.25 0 0 1 .069.183.247.247 0 0 1-.023.097l-4.05 9.65a.252.252 0 0 1-.23.135Z" class="shade90"/>
    <path fill="#ffffff" d="M255.62 199.09s-7.045 11-8 11.33c-.955.33.365-5.15 1.555-8.72a74.425 74.425 0 0 1 1.245-3.425" class="shade0"/>
    <path fill="#121212" d="M247.565 210.68a.403.403 0 0 1-.29-.12c-.805-.81 1.12-7.255 1.685-8.94.615-1.85 1.245-3.42 1.25-3.435a.257.257 0 0 1 .133-.137.267.267 0 0 1 .096-.021c.033 0 .065.006.096.018a.262.262 0 0 1 .136.134.257.257 0 0 1 .004.191s-.63 1.57-1.24 3.41c-1.305 3.91-2.065 7.75-1.83 8.375.815-.545 5.185-7.105 7.805-11.2a.249.249 0 0 1 .345-.075.244.244 0 0 1 .075.345c-1.185 1.85-7.145 11.11-8.11 11.43a.577.577 0 0 1-.155.025Z" class="shade90"/>
    <path fill="#ffffff" d="m239.7 201.235 3.425-7.47 9.03 1.245.62 4.045-6.535 12.765m-33.155 7.935-4.035-1.205s5.28-8.13 5.9-12.5c.62-4.37 3.425-4.67 4.05-3.735s.62 9.025.62 9.025l-6.535 8.415Z" class="shade0"/>
    <path fill="#121212" d="M213.085 220a.19.19 0 0 1-.075 0l-4.01-1.21a.243.243 0 0 1-.161-.154c-.013-.036-.018-.075-.013-.113a.243.243 0 0 1 .039-.108c.05-.08 5.255-8.135 5.865-12.39.5-3.525 2.325-4.205 2.87-4.33a1.503 1.503 0 0 1 1.63.5c.65.97.665 8.33.665 9.165a.24.24 0 0 1-.05.155l-6.54 8.405a.24.24 0 0 1-.22.08Zm-3.645-1.595 3.55 1.06 6.38-8.205c0-3.105-.16-8.175-.58-8.805a1.05 1.05 0 0 0-1.1-.275c-.47.105-2.035.7-2.5 3.91-.555 3.96-4.805 10.825-5.75 12.32v-.005Z" class="shade90"/>
    <path fill="#ffffff" d="M207.945 202.17s14.79 8.56 17.9 17.9c3.11 9.34 9.965 21.5 9.965 21.5s9.025-6.225 17.43-9.34 20.86-9.65 20.86-9.65-28.63-17.355-30.35-23.815c-2.255-8.45-9.655-9.965-9.655-9.965s-14.005 11.2-26.15 13.37Z" class="shade0"/>
    <path fill="#121212" d="M235.81 241.8h-.055a.25.25 0 0 1-.096-.042.236.236 0 0 1-.069-.078c-.065-.12-6.895-12.27-10-21.5-3.045-9.14-17.64-17.675-17.79-17.76a.254.254 0 0 1-.123-.263.242.242 0 0 1 .072-.134.245.245 0 0 1 .136-.068c11.94-2.14 25.895-13.22 26.035-13.335a.243.243 0 0 1 .097-.047.246.246 0 0 1 .108-.003A13.962 13.962 0 0 1 244 198.68c1.675 6.29 29.955 23.5 30.24 23.665a.244.244 0 0 1 .12.22.252.252 0 0 1-.039.125.245.245 0 0 1-.096.09c-.125.065-12.56 6.58-20.885 9.665-8.325 3.085-17.29 9.245-17.38 9.31a.236.236 0 0 1-.15.045Zm-27.175-39.5a70.422 70.422 0 0 1 7.25 5.13c3.755 3.04 8.575 7.69 10.2 12.57 2.83 8.5 8.84 19.455 9.81 21.2 1.46-1 9.66-6.4 17.26-9.215 7.46-2.765 18.255-8.3 20.435-9.435-3.54-2.165-28.445-17.58-30.085-23.73a13.449 13.449 0 0 0-9.35-9.755c-1.24.96-14.155 10.9-25.52 13.225v.01Z" class="shade90"/>
    <path fill="#9fbdd0" d="M259.523 223.262c1.828-.956 2.309-3.645 1.074-6.006s-3.718-3.501-5.546-2.545c-1.828.956-2.309 3.646-1.074 6.007 1.235 2.361 3.718 3.5 5.546 2.544Z" class="shade40"/>
    <path fill="#121212" d="M236.12 230.34s8.715-7.16 10.895-7.78l2.18-.625.31.625s-2.8 2.18-6.225 4.67c-3.425 2.49-6.225 5-6.225 5l-.935-1.89Z" class="shade90"/>
    <path fill="#6998b5" d="M217.755 204.815s16.5-8.715 18.365-9.96l1.87-1.25-1.87-1.865s-8.405 5.29-13.075 7.47c-4.67 2.18-7.78 4.05-7.78 4.05l2.49 1.555Z" class="shade50"/>
    <path fill="#121212" d="M220.555 207.245a.264.264 0 0 1-.12-.031.258.258 0 0 1-.09-.084c-.036-.055-.049-.122-.036-.187a.249.249 0 0 1 .106-.158c.14-.095 14.09-9.38 19.65-11.85a.253.253 0 0 1 .191-.006.258.258 0 0 1 .139.131.257.257 0 0 1-.125.335c-5.5 2.45-19.435 11.715-19.575 11.805a.243.243 0 0 1-.14.045Zm2.8 3.755a.257.257 0 0 1-.115-.031.254.254 0 0 1-.09-.079.25.25 0 0 1 .065-.345c.15-.105 14.975-10.295 17.75-12.145a.25.25 0 0 1 .275.415c-2.77 1.845-17.59 12.04-17.74 12.14a.259.259 0 0 1-.145.045Zm17.145-8.735a.245.245 0 0 1-.139-.043.244.244 0 0 1-.091-.112.258.258 0 0 1-.021-.095.242.242 0 0 1 .151-.23l2.18-.935a.266.266 0 0 1 .097-.024.25.25 0 0 1 .098.017.25.25 0 0 1 .085.053.259.259 0 0 1 .076.181.251.251 0 0 1-.161.233l-2.175.935a.378.378 0 0 1-.1.02Zm-11.85 14.32a.256.256 0 0 1-.248-.29.26.26 0 0 1 .058-.13c2.5-2.79 15.97-12.39 16.545-12.8a.235.235 0 0 1 .088-.04.243.243 0 0 1 .187.033.256.256 0 0 1 .015.417c-.14.1-14 9.975-16.46 12.725a.251.251 0 0 1-.185.085Zm1.555 6.535a.27.27 0 0 1-.175-.07.264.264 0 0 1-.055-.081.27.27 0 0 1-.019-.097c0-.033.007-.065.019-.096a.264.264 0 0 1 .055-.081c.535-.545 13.16-13.445 17.5-15.31a.255.255 0 0 1 .33.135c.025.06.026.128.001.189a.246.246 0 0 1-.131.136c-4.265 1.83-17.225 15.065-17.355 15.2a.258.258 0 0 1-.17.075Zm4.045 0a.24.24 0 0 1-.19-.09.256.256 0 0 1 .035-.355c.115-.09 11.56-9.37 14.645-11.53a.255.255 0 0 1 .35.065c.037.054.052.12.041.185a.255.255 0 0 1-.101.16c-3.075 2.15-14.5 11.415-14.62 11.5a.228.228 0 0 1-.16.065Zm10.275-3.12a.25.25 0 0 1-.225-.135.252.252 0 0 1 .037-.276.268.268 0 0 1 .078-.059l3.11-1.56a.256.256 0 0 1 .34.115.253.253 0 0 1-.115.335l-3.11 1.58a.224.224 0 0 1-.115 0Z" class="shade90"/>
    <path fill="#ffffff" d="M251.065 183.185s-3.115-.16-5.295 1.705c-2.18 1.865-6.85 3.425-8.405 3.425-1.555 0 .935 3.115 3.425 2.8 2.014-.34 3.994-.86 5.915-1.555 0 0 4.67 1.555 7.16.625 2.49-.93 3.735-1.56 3.735-1.56" class="shade0"/>
    <path fill="#121212" d="M240.42 191.39a4.607 4.607 0 0 1-3.465-1.89c-.31-.445-.4-.83-.255-1.105a.686.686 0 0 1 .665-.33c1.46 0 6.095-1.525 8.245-3.365 2.23-1.91 5.335-1.77 5.465-1.765a.25.25 0 0 1 .218.357.232.232 0 0 1-.144.131.237.237 0 0 1-.099.012c-.03 0-3.04-.13-5.115 1.645-2.165 1.855-6.875 3.5-8.57 3.5-.14 0-.205.03-.22.06-.015.03 0 .27.22.59.55.795 1.975 1.835 3.395 1.655a33.873 33.873 0 0 0 5.86-1.545.234.234 0 0 1 .165 0c.045 0 4.615 1.5 7 .625 2.45-.92 3.7-1.54 3.715-1.545a.244.244 0 0 1 .36.205.23.23 0 0 1-.013.097.238.238 0 0 1-.049.084.237.237 0 0 1-.078.059c-.05.025-1.285.64-3.755 1.565-2.39.9-6.585-.38-7.245-.59a33.252 33.252 0 0 1-5.89 1.54 3.503 3.503 0 0 1-.41.01Z" class="shade90"/>
    <path fill="#ffffff" d="M200.32 259.605s4.67 4.36 5 3.735c.33-.625 2.5-1.245.935-8.095-1.565-6.85-1.87-11.5-2.8-14.94-.93-3.44-4.05-5.295-4.05-5.295l-10.905 8.095" class="shade0"/>
    <path fill="#121212" d="M205.21 263.65c-.83 0-3.8-2.685-5.06-3.86a.252.252 0 0 1-.015-.355.253.253 0 0 1 .355-.015c1.85 1.73 4.09 3.585 4.635 3.725.081-.108.17-.21.265-.305.61-.62 1.88-1.915.6-7.54-.815-3.59-1.28-6.5-1.69-9.11-.269-1.958-.64-3.9-1.11-5.82-.785-2.885-3.19-4.65-3.795-5.055l-10.755 8a.254.254 0 0 1-.35-.05.245.245 0 0 1-.047-.185.249.249 0 0 1 .097-.165l10.895-8.095a.269.269 0 0 1 .14-.041c.05 0 .098.015.14.041.13.08 3.21 1.96 4.16 5.445a57.499 57.499 0 0 1 1.12 5.875c.41 2.58.87 5.5 1.685 9.075 1.335 5.89-.06 7.315-.73 8a1.43 1.43 0 0 0-.225.26.343.343 0 0 1-.26.195l-.055-.02Z" class="shade90"/>
    <path fill="#ffffff" d="M121.875 268.145a55.926 55.926 0 0 1-66.035 6.19c-.03-3.5.195-6.92.965-9.125 2.196-6.21 22.726-31.445 28.955-36.71 6.23-5.265 26.455.42 31.125 1.455 4.67 1.035 4.675 33.1 5 38.08a.818.818 0 0 1-.01.11Z" class="shade0"/>
    <path fill="#121212" d="M84.67 282.58a56.045 56.045 0 0 1-28.96-8.035.25.25 0 0 1-.12-.21c-.035-4.15.295-7.245 1-9.21 2.235-6.39 23-31.72 29.025-36.84 5.655-4.81 22.255-.79 29.345.925.82.2 1.5.365 2 .475 3.62.8 4.575 17.65 5.03 34 .055 1.95.1 3.5.15 4.285.003.05.003.1 0 .15a.226.226 0 0 1-.022.102.232.232 0 0 1-.063.083A56.037 56.037 0 0 1 84.67 282.58Zm-28.58-8.39a55.657 55.657 0 0 0 65.53-6.155c-.05-.81-.095-2.35-.145-4.3-.25-8.95-.915-32.725-4.645-33.55-.5-.11-1.185-.275-2-.5-6.41-1.555-23.44-5.675-28.9-1.035-6 5.1-26.66 30.285-28.88 36.625-.665 1.9-.99 4.895-.96 8.915Z" class="shade90"/>
    <path fill="#121212" d="M121.87 268c-.175-2.765-.25-13.875-1.085-23.39-2.425 3.5-4.085 7.425-5.5 11.5a41.962 41.962 0 0 0-.43 4.905c-.15 5-.43 10.15-4.78 13.36-3.64 2.68-8.385 4.595-12.715 5.73-5.365 1.41-10.97 1.415-16.5 1.5a58.69 58.69 0 0 1-6.36-.18 55.955 55.955 0 0 0 47.36-13.26c.007-.055.011-.11.01-.165Z" class="shade90"/>
    <path fill="#ffffff" d="M121.87 215.695s-.7 1.46-1.615 3.54c-1.445 3.285-3.415 8.115-4 11.205-.92 5.06-1.255 7.375-1.255 7.375l-11.5-2.72 7.5-24.835 10.27 5.435" class="shade0"/>
    <path fill="#121212" d="M115 238.065h-.055l-11.5-2.715a.252.252 0 0 1-.16-.12.253.253 0 0 1 0-.195l7.47-24.835a.27.27 0 0 1 .053-.095.252.252 0 0 1 .087-.065.254.254 0 0 1 .215 0l10.255 5.46c.032.014.06.034.083.06a.249.249 0 0 1 .035.286.244.244 0 0 1-.156.124.264.264 0 0 1-.197-.03l-10-5.29-7.305 24.29 11 2.59c.11-.75.465-3.075 1.21-7.11.57-3.07 2.5-7.82 4-11.26.905-2.06 1.615-3.535 1.62-3.55a.254.254 0 0 1 .144-.127.248.248 0 0 1 .191.012c.06.029.106.081.127.144a.244.244 0 0 1-.012.191s-.71 1.5-1.615 3.53c-1.5 3.42-3.41 8.13-3.97 11.15-.92 5-1.24 7.34-1.24 7.36a.262.262 0 0 1-.105.175.258.258 0 0 1-.175.02Z" class="shade90"/>
    <path fill="#121212" d="M121.245 215.695 114.28 212c.285.95.785 1.875 1.12 2.775.5 1.29.92 2.595 1.325 3.915a32.207 32.207 0 0 0 1.815 4.635c.58-1.465 1.18-2.89 1.715-4.1.915-2.08 1.615-3.54 1.615-3.54l-.625.01Z" class="shade90"/>
    <path fill="#ffffff" d="M111.53 213.305s7.16 8.5 12.375 6.92 7.35-8 7.35-8 2.45.185 2.45-1.95c0-.26-1.575-2-2.075-4.025-.5-2.025 1.63-6.285-3.03-12.07s-18.17 0-19.295 7.245 2.225 11.88 2.225 11.88Z" class="shade0"/>
    <path fill="#121212" d="M122.535 220.67c-5.06 0-10.925-6.885-11.2-7.205-.035-.045-3.395-4.805-2.265-12.05.5-3.395 4.255-7.685 10.355-9.32 4.08-1.095 7.5-.38 9.38 1.955 3.5 4.335 3.23 7.86 3.06 10.195a6.844 6.844 0 0 0 0 1.97 10.984 10.984 0 0 0 1.665 3.305c.325.5.42.625.42.78a2.028 2.028 0 0 1-.615 1.555 2.957 2.957 0 0 1-1.91.65c-.39 1.07-2.595 6.5-7.45 7.975a5.074 5.074 0 0 1-1.44.19Zm-10.81-7.5c.255.295 7.17 8.325 12.11 6.835 5.03-1.5 7.16-7.765 7.185-7.83a.235.235 0 0 1 .255-.17 2.628 2.628 0 0 0 1.725-.5 1.547 1.547 0 0 0 .455-1.185c0-.03-.185-.28-.335-.5a11.377 11.377 0 0 1-1.735-3.465 7.38 7.38 0 0 1-.03-2.13c.17-2.255.42-5.66-2.95-9.84-1.75-2.175-5-2.83-8.86-1.79-4.355 1.17-9.335 4.69-10 8.915-1.045 6.885 2.035 11.43 2.18 11.64v.02Z" class="shade90"/>
    <path fill="#121212" d="M128.109 205.836c.02-.364-.139-.669-.354-.68-.215-.012-.405.274-.425.638-.019.364.139.668.354.68.215.012.406-.274.425-.638Z" class="shade90"/>
    <path fill="#ffffff" d="M124.885 204.89s1.76-2.26 4.31-2.71Z" class="shade0"/>
    <path fill="#121212" d="M124.885 205.14a.255.255 0 0 1-.25-.221.245.245 0 0 1 .05-.184c.075-.095 1.85-2.34 4.47-2.8a.25.25 0 0 1 .29.2.253.253 0 0 1-.205.29c-2.425.43-4.14 2.595-4.16 2.62a.263.263 0 0 1-.195.095Z" class="shade90"/>
    <path fill="#ffffff" d="m196.585 256.5 16.185-22.415a21.863 21.863 0 0 0 9.34-3.11c4.36-2.8 12.145-10.895 15.255-15.565 3.11-4.67 1.635-8.085 1.635-9.41 0-.04-4.445 8.16-4.445 8.16s4.84-8.035 5.375-10.865c.145-.75-.36-1.5-1.22-2.21-2.375-1.925-7.45-3.245-8.825-1.87-1.87 1.87-10.585 7.785-16.19 14.32S191 236.255 191 236.255l5.585 20.245Z" class="shade0"/>
    <path fill="#121212" d="M196.585 256.74h-.045a.254.254 0 0 1-.195-.18l-5.605-20.235a.239.239 0 0 1 0-.135.241.241 0 0 1 .07-.115c.17-.16 17.175-16.255 22.705-22.705 3.925-4.58 9.345-8.835 12.93-11.65 1.5-1.19 2.72-2.13 3.275-2.685 1.5-1.5 6.645-.185 9.16 1.85 1 .81 1.455 1.66 1.305 2.45-.218.9-.53 1.775-.93 2.61a.14.14 0 0 1 0 .05c.017.317.056.633.115.945a10.933 10.933 0 0 1-1.8 8.6c-2.975 4.46-10.79 12.715-15.33 15.635a22.274 22.274 0 0 1-9.335 3.14L196.78 256.64a.243.243 0 0 1-.085.074.247.247 0 0 1-.11.026Zm-5.325-20.405 5.425 19.59 15.885-22a.249.249 0 0 1 .185-.1 21.851 21.851 0 0 0 9.245-3.07c4.5-2.89 12.235-11.07 15.185-15.5 2.46-3.695 2-6.54 1.725-8.24 0-.07 0-.135-.035-.2-1.57 3.3-3.93 7.23-4.07 7.465a.25.25 0 0 1-.34.085.241.241 0 0 1-.117-.148.243.243 0 0 1 .022-.187l2.215-4.08c.945-1.735 1.5-2.765 1.845-3.365a16.203 16.203 0 0 0 1.29-3.35c.145-.755-.535-1.5-1.13-1.97-2.47-2-7.31-3.065-8.5-1.88-.575.575-1.785 1.525-3.315 2.725-3.57 2.8-8.965 7.035-12.86 11.58-5.335 6.205-21.18 21.245-22.655 22.645Z" class="shade90"/>
    <path fill="#ffffff" d="M104.765 231.775c.86-2.09 1.46-3.4 1.46-3.4s19.69 1.655 31.5 8.5c11.81 6.845 14.945 9.65 21.17 11.205 6.225 1.555 21.17-6.535 21.17-6.535l15.255-9.965s0 9.655 2.18 16.815c2.18 7.16 7.78 14.94 7.78 14.94s-20.525 7.165-22.395 8.41c-1.87 1.245-16.185 2.805-31.75.935-15.565-1.87-27.085-9.96-34.87-11.5a20.01 20.01 0 0 0-5.55-.205" class="shade0"/>
    <path fill="#121212" d="M165.85 273.78c-4.927.006-9.851-.277-14.745-.85-9.695-1.165-17.87-4.755-24.44-7.64-4.035-1.77-7.5-3.3-10.445-3.885a19.39 19.39 0 0 0-5.5-.2.25.25 0 0 1-.04-.5 19.575 19.575 0 0 1 5.62.21c3 .595 6.5 2.135 10.55 3.92 6.54 2.87 14.68 6.44 24.3 7.595 15.685 1.885 29.815.285 31.585-.89 1.77-1.175 19.47-7.39 22.155-8.325-1-1.45-5.69-8.38-7.625-14.745-1.895-6.225-2.15-14.415-2.185-16.425l-14.875 9.715c-.63.34-15.12 8.13-21.365 6.57-4.475-1.12-7.295-2.84-12.915-6.27-2.195-1.335-4.92-3-8.32-4.965-11.055-6.4-29.255-8.265-31.24-8.455-.185.415-.705 1.585-1.385 3.23a.255.255 0 0 1-.33.135.264.264 0 0 1-.133-.138.265.265 0 0 1-.002-.192c.855-2.065 1.46-3.39 1.465-3.4a.25.25 0 0 1 .102-.114.24.24 0 0 1 .148-.031c.195 0 19.885 1.735 31.63 8.535 3.4 1.97 6.13 3.63 8.325 4.97 5.575 3.4 8.375 5.11 12.775 6.21 6.06 1.5 20.84-6.435 21-6.5l15.235-9.955a.245.245 0 0 1 .259-.013.248.248 0 0 1 .131.223c0 .1.025 9.7 2.165 16.74 2.14 7.04 7.695 14.79 7.75 14.87a.259.259 0 0 1 .035.22.26.26 0 0 1-.059.098.238.238 0 0 1-.096.062c-.205.075-20.54 7.165-22.36 8.38-1.375.905-8.325 1.81-17.17 1.81Z" class="shade90"/>
    <path fill="#6998b5" d="M97.59 226.404c.283.02.567.042.852.067l22.012 18.627c-.094.14-.185.28-.276.421L97.59 226.404Zm19.671 24.613-28.42-24.051c-.194.055-.382.114-.566.176l28.778 24.354.208-.479Zm-2.188 6.768L83.268 230.87l-.35.359 32.095 27.161c.019-.202.038-.403.06-.605Zm6.659 6.291-.012-.405-.007-.266.009.008.02.671-.01-.008Zm-39.663 17.511-.305.004-.456.007-22.95-19.422c.084-.141.172-.285.263-.432l23.447 19.843Zm9.646-.461a80.19 80.19 0 0 1-.688.072l-28.99-24.533.292-.408 29.386 24.869Zm8.123-1.745a43.5 43.5 0 0 1-.564.178l-33.312-28.191.305-.397 33.571 28.41Zm6.806-2.856c-.158.085-.317.169-.477.251l-36.146-30.589.313-.39 36.31 30.728Zm5.403-4.054c-.103.13-.209.259-.319.385L74.19 241.089l.321-.383 37.536 31.765Zm2.475-6.526c-.027.195-.056.388-.087.581L78.469 236.09l.331-.375 35.722 30.23Zm6.916-10.738-.029-.68.004.003.029.681-.004-.004Zm-65.371 13.647c.022-.201.046-.4.071-.595l14.525 12.292a55.81 55.81 0 0 1-1.136-.307l-13.46-11.39Zm54.034-40.487 9.665 8.179a47.883 47.883 0 0 0-.15-.782l-8.464-7.163c-.342-.077-.692-.156-1.051-.234Z" class="shade50"/>
    <path fill="#6998b5" d="m183.864 239.063.437-.285 13.961 11.814c.129.332.262.664.4.994l-14.798-12.523Zm-5.95 3.583.487-.242 25.363 21.463-.547.193-25.303-21.414Zm-6.669 2.977c.177-.069.352-.14.526-.21l24.822 21.006-.543.196-24.805-20.992Zm-7.45 2.316c.205-.04.412-.083.621-.129l25.069 21.215-.535.202-25.155-21.288Zm-16.471-5.313c.953.579 1.825 1.104 2.644 1.582l32.688 27.663a4.655 4.655 0 0 1-.534.203l-34.798-29.448Zm-23.259-11.062c.381.101.763.206 1.145.313l48.895 41.378c-.235.018-.473.034-.715.051l-49.325-41.742Zm-13.322-2.654c.3.042.611.087.933.134l52.573 44.491-.789-.012-52.717-44.613Zm-5.806 3.712-.161-.792 48.557 41.093-.883-.093-47.513-40.208Zm2.123 10.417-.161-.791 33.071 27.987c-.42-.131-.836-.265-1.248-.401l-31.662-26.795Zm2.122 10.417-.161-.792 11.627 9.84a42.17 42.17 0 0 0-1.345-.484l-10.121-8.564Zm86.759-12.794-6.327-5.355.437-.285 5.801 4.91c.028.241.058.484.089.73Z" class="shade50"/>
    <path fill="#ffffff" d="M129.87 211s.79 1.14 1.655 1.325Z" class="shade0"/>
    <path fill="#121212" d="M131.525 212.55h-.055c-.945-.2-1.77-1.375-1.805-1.425a.259.259 0 0 1-.045-.091.259.259 0 0 1 .03-.195.251.251 0 0 1 .425.001s.745 1.06 1.5 1.22a.256.256 0 0 1 .195.3.25.25 0 0 1-.09.137.249.249 0 0 1-.155.053Zm-8.27-23.7s9.24-.445 11.315 2.5c2.075 2.945 2.19 6.35-3.555 7-5.745.65-10.205-.085-10.835 2.745-.63 2.83-4.96 4.06-5.93 8.95-.97 4.89 3.875 13.745-2.03 22.175-5.905 8.43-14.895 3.47-20.37 1.9-5.475-1.57-10.935 5.415-10.935 5.415l-.316-1.255a9.967 9.967 0 0 1 8-5.5c6-.695 7.17 1.945 10.94 1 3.771-.945 4.086-7.17 4.086-7.17s-5.26 8.63-9.285 3.225c-4.026-5.405-9.76 5.025-14.225 6.415-4.465 1.39-17.5-5.77-17.5-5.77l-2.206-8.805c-.884-3.5-1.89-4.335-1.89-4.335a39.554 39.554 0 0 0 12.886-1.84c6.665-2.205 5.275-10.945 8.92-12.39 3.644-1.445 10.674 8.525 16.674 1.415 6.001-7.11 8.501-20.31 26.256-15.675Z" class="shade90"/>
    <path fill="#ffffff" d="M118.265 204.795c-.14-1.115-.58-2.455-1.855-2.735-2.265-.5-5.15 3.965-2.255 8.05.865 1.225 1.5.345 2.5-1.03" class="shade0"/>
    <path fill="#121212" d="M114.965 210.945a1.327 1.327 0 0 1-1-.69c-1.88-2.65-1.365-5.37-.355-6.89.78-1.175 1.88-1.77 2.87-1.55 1.125.25 1.835 1.27 2.045 2.95a.255.255 0 0 1-.217.283.255.255 0 0 1-.283-.218c-.125-1-.5-2.275-1.66-2.525-.765-.17-1.69.35-2.345 1.335-.92 1.39-1.385 3.88.345 6.325.225.315.43.475.61.5.39 0 .89-.7 1.47-1.5l.41.285c-.73.975-1.245 1.695-1.89 1.695Z" class="shade90"/>
    <path fill="#ffffff" d="M115.97 203.5s-1.38 1.95-.875 3.965Z" class="shade0"/>
    <path fill="#121212" d="M115.095 207.72a.252.252 0 0 1-.154-.053.26.26 0 0 1-.091-.137c-.5-2.1.86-4.085.915-4.17a.26.26 0 0 1 .35-.06.23.23 0 0 1 .068.071.25.25 0 0 1 .033.19.249.249 0 0 1-.041.089s-1.31 1.885-.84 3.755a.252.252 0 0 1-.091.263.251.251 0 0 1-.089.042l-.06.01Z" class="shade90"/>
    <path fill="#6998b5" d="M61.595 226.7a.25.25 0 0 1-.187-.416.26.26 0 0 1 .172-.084c.19 0 19.15-1.11 22.685-7.7 3.695-6.895 14.895-3.31 15-3.275a.248.248 0 0 1 .18.219.25.25 0 0 1-.335.256c-.11-.035-10.91-3.5-14.41 3.035-1.545 2.885-5.915 5.105-13 6.59a76.233 76.233 0 0 1-10.115 1.375h.01Z" class="shade50"/>
    <path fill="#9fbdd0" d="M127.34 213.82h.13c.61-.115 3.18-.565 3.695-.17.515.395-.825 1.315-.825 1.315a1.647 1.647 0 0 1-.665 1.47c-.78.5-2.335-2.615-2.335-2.615Z" class="shade40"/>
    <path fill="#121212" d="M130.45 215.11h-.035c-.15 0-3.765-.555-4.595-2.21a.253.253 0 0 1-.012-.191.254.254 0 0 1 .127-.144.249.249 0 0 1 .335.115c.59 1.18 3.245 1.8 4.215 1.935a.257.257 0 0 1 .168.097.251.251 0 0 1 .047.188.248.248 0 0 1-.087.15.249.249 0 0 1-.163.06Zm-2.9-14.715a92.31 92.31 0 0 1-11.13-.84.252.252 0 1 1 .07-.5c3.096.423 6.212.69 9.335.8-4.205-.36-9.325-2.83-9.905-5.7-.31-1.53.55-3.68 6.435-5.205 7.71-2 11.12.095 12.625 2.205 1.705 2.4 1.5 5.765.345 7.5-.885 1.345-4.18 1.74-7.775 1.74Zm-.135-.5c3.58.025 6.725-.345 7.5-1.5.895-1.345 1.41-4.5-.34-6.94-1.41-2-4.65-3.94-12.09-2-4.295 1.11-6.45 2.755-6.07 4.62.59 2.92 7.245 5.91 11.67 5.26 2.275-.34 3.63-1 3.915-1.915.345-1.105-.925-2.31-.935-2.325a.25.25 0 0 1 0-.35.256.256 0 0 1 .355 0c.06.06 1.5 1.435 1.075 2.84-.35 1.125-1.805 1.885-4.32 2.255-.252.03-.506.047-.76.05v.005ZM64.71 216.42a30.717 30.717 0 0 1-5.595-.54.232.232 0 0 1-.09-.038.247.247 0 0 1 .003-.414.256.256 0 0 1 .187-.038c.115.025 11.25 2.235 13.725-2.715a33.729 33.729 0 0 0 1.73-4.5c1.285-3.915 2.5-7.62 6.825-7.03 2.32.32 4.445 1.65 6.315 2.825 2.88 1.8 5.155 3.23 7.2.89 3.585-4.095 9.5-11.655 9.58-11.73a.267.267 0 0 1 .074-.064.259.259 0 0 1 .191-.023.245.245 0 0 1 .151.119.238.238 0 0 1 .023.191.239.239 0 0 1-.044.087c-.06.075-6 7.645-9.6 11.75-2.325 2.655-5 1-7.84-.8-1.83-1.145-3.905-2.445-6.12-2.75-3.91-.53-5 2.815-6.28 6.69a33.87 33.87 0 0 1-1.755 4.58c-1.425 2.84-5.315 3.51-8.68 3.51Zm165.495-2.95a.225.225 0 0 1-.14-.045.227.227 0 0 1-.069-.069.238.238 0 0 1-.035-.187.245.245 0 0 1 .039-.089l8.405-12.145a.253.253 0 0 1 .159-.094.25.25 0 0 1 .251.379l-8.405 12.14a.247.247 0 0 1-.205.11Zm-4.98-3.115a.247.247 0 0 1-.17-.065.24.24 0 0 1-.054-.08.238.238 0 0 1 0-.19.24.24 0 0 1 .054-.08l9.865-10.875a.255.255 0 0 1 .175-.093.256.256 0 0 1 .188.064.253.253 0 0 1 .007.364l-9.865 10.875a.24.24 0 0 1-.091.063.24.24 0 0 1-.109.017Zm-75.65 42.96a.252.252 0 0 1-.29-.21.26.26 0 0 1 .045-.189.258.258 0 0 1 .165-.101l17.465-5.945a.256.256 0 0 1 .192.012.25.25 0 0 1-.027.463l-17.47 5.945a.198.198 0 0 1-.08.025Z" class="shade90"/>
    <path fill="#eaf1f5" d="M115 209.175s-2.8 6.845-3.735 9c-.935 2.155 2.025 4.205 2.025 4.205l1.71-13.205Z" class="shade10"/>
    <path fill="#121212" d="M114.865 210.265a.625.625 0 1 0 0-1.25.625.625 0 0 0 0 1.25Z" class="shade90"/>
    <path fill="#6998b5" d="M76.325 233.19c-4.665 0-16.565-4.28-17.115-4.5a.253.253 0 0 1-.157-.323.246.246 0 0 1 .132-.142.25.25 0 0 1 .194-.005c.146.05 14.6 5.255 17.906 4.35 1.1-.3 2.5-1.855 4.115-3.66 3.23-3.61 7.25-8.105 11.935-5.975a.24.24 0 0 1 .13.14.24.24 0 0 1-.01.19.248.248 0 0 1-.14.13.248.248 0 0 1-.19-.005c-4.345-1.975-8.23 2.365-11.355 5.85-1.67 1.865-3.11 3.5-4.35 3.815a4.302 4.302 0 0 1-1.095.135ZM62.2 221.735c-1.29.006-2.58-.052-3.865-.175a.254.254 0 0 1-.167-.092.252.252 0 0 1-.053-.183.255.255 0 0 1 .275-.22c.11 0 10.885 1.19 17.275-2.765a.252.252 0 0 1 .278.008.253.253 0 0 1 .097.26.255.255 0 0 1-.11.157c-4.095 2.535-9.93 3.01-13.73 3.01Z" class="shade50"/>
    <path fill="#9fbdd0" d="M212.105 242.5a2.21 2.21 0 0 1-.65-.11c-1.54-.46-5.11-3.535-7.97-6.37-3.73-3.71-6.455-7.15-7.29-9.205-.34-.84-.385-1.465-.14-1.905a2.772 2.772 0 0 1 1.74-1.4c1.815-.5 3.965.785 4.055.84a.248.248 0 0 1 .073.064.254.254 0 0 1 .046.185.255.255 0 0 1-.1.164.25.25 0 0 1-.089.041.249.249 0 0 1-.19-.029s-2.055-1.215-3.67-.78a2.281 2.281 0 0 0-1.43 1.155c-.16.295-.105.805.17 1.5 1.845 4.54 12.33 14.5 14.94 15.285.46.14.77.115.93-.07.565-.67-.355-3.245-1.07-4.715a.249.249 0 0 1-.037-.098.248.248 0 0 1 .237-.289.262.262 0 0 1 .104.018.246.246 0 0 1 .141.149c.205.42 1.97 4.125 1 5.255a1 1 0 0 1-.8.315Z" class="shade40"/>
    <path fill="#121212" d="M73.82 280.63h-.07a.256.256 0 0 1-.17-.315 74.823 74.823 0 0 0 1.97-8.6c2.76-15.945 1.876-22.275 1.865-22.335a.25.25 0 0 1 .309-.282.23.23 0 0 1 .089.041.248.248 0 0 1 .098.166c0 .06.91 6.45-1.865 22.5a75.89 75.89 0 0 1-2 8.66.246.246 0 0 1-.225.165Z" class="shade90"/>
    <path fill="#ffffff" d="m220.71 210.575 13.24-11.5c.375.072.745.172 1.105.3 1.35.465 3.5 1.4 4.15 2.45.65 1.05-.34 4.665-.34 4.665l.24 4.62-7.5 8.455-10.895-8.99Z" class="shade0"/>
    <path fill="#121212" d="M229.585 180.78c-.045 0-4.705-.345-34.25-3.425s-83.205-8.04-83.74-8.09a.247.247 0 0 1-.17-.095.226.226 0 0 1-.055-.185l2.8-24.905a.25.25 0 0 1 .25-.22h11.41L117 127.415a.251.251 0 0 1 .06-.31.253.253 0 0 1 .32 0l19.54 15.82 98.91.625a.25.25 0 0 1 .25.25.242.242 0 0 1-.1.195c-.08.105-.535.87-2.09 5.795-1.84 5.82-4 30.5-4.04 30.765a.27.27 0 0 1-.026.092.231.231 0 0 1-.06.075.24.24 0 0 1-.179.058Zm-117.71-12c4.06.375 55 5.1 83.5 8.07 26 2.71 32.735 3.3 34 3.405.245-2.76 2.26-25 4.035-30.625a48.681 48.681 0 0 1 2-5.595l-98.56-.62a.257.257 0 0 1-.155-.055L118 128.275 126.45 144a.258.258 0 0 1 0 .25.264.264 0 0 1-.215.12h-11.61l-2.75 24.41Z" class="shade90"/>
    <path fill="#ffffff" d="M123.115 153.135c9.5-.155 79.925.91 89.345.935Z" class="shade0"/>
    <path fill="#121212" d="M212.46 154.32c-3.44 0-15.19-.16-28.795-.335-24.29-.31-54.5-.695-60.545-.6a.25.25 0 0 1-.25-.245.259.259 0 0 1 .245-.255c6.03-.095 36.27.29 60.565.6 13.6.175 25.35.325 28.785.335a.25.25 0 0 1 .231.347.25.25 0 0 1-.139.135.25.25 0 0 1-.097.018Z" class="shade90"/>
    <path fill="#eaf1f5" d="M293.09 30.5s8.405 5 5.605 21.795C295.895 69.09 271.3 64.105 271.3 47s13.075-22.12 21.79-16.5Z" class="shade10"/>
    <path fill="#121212" d="m282.5 39.87 1.63 8.765-1.45-.685c11.305-5.295 22.775-10.355 34.705-14.045-11.68 4.315-22.82 9.97-33.78 15.84a.998.998 0 0 1-1.45-.685l-2.1-8.665a1.251 1.251 0 0 1 2.445-.525Z" class="shade90"/>
    <path fill="#eaf1f5" d="M198.765 174.62a7.55 7.55 0 0 0 7.55-7.55 7.55 7.55 0 0 0-7.55-7.55 7.55 7.55 0 0 0-7.55 7.55 7.55 7.55 0 0 0 7.55 7.55Z" class="shade10"/>
    <path fill="#121212" d="M198.125 171.275a4.328 4.328 0 0 1-4-2.195.25.25 0 0 1 .102-.319.254.254 0 0 1 .177-.029.253.253 0 0 1 .151.098c2.06 3.53 6.86 1.185 6.905 1.16a.26.26 0 0 1 .34.11.256.256 0 0 1-.115.34 9.228 9.228 0 0 1-3.56.835Zm-1.028-4.67c.103-.59-.006-1.102-.243-1.143-.237-.041-.511.404-.614.994-.102.591.007 1.103.243 1.144.237.041.512-.405.614-.995Zm3.117.628c.103-.59-.006-1.102-.243-1.143-.236-.041-.511.404-.614.994-.102.591.007 1.103.243 1.144.237.041.512-.405.614-.995Z" class="shade90"/>
    <path fill="#9fbdd0" d="M219.62 157.185s-3.425-3.735-3.425-6.54 3.425-.62 3.425-.62 1.09-2.645 3.58-1.715c2.49.93-3.58 8.875-3.58 8.875Z" class="shade40"/>
    <path fill="#6998b5" d="M100.7 137.57s-3.425-3.735-3.425-6.535c0-2.8 3.425-.625 3.425-.625s1.09-2.645 3.58-1.71-3.58 8.87-3.58 8.87Z" class="shade50"/>
    <path fill="#121212" d="M235.185 154.63h-.045a.257.257 0 0 1-.2-.295c1.065-5.585 3.97-10.775 4.795-12.17l-14.5-.605a.259.259 0 0 1-.174-.083.25.25 0 0 1 .015-.354.243.243 0 0 1 .179-.063l14.945.62a.256.256 0 0 1 .242.26.258.258 0 0 1-.032.125c-.04.06-3.725 5.95-4.95 12.365a.245.245 0 0 1-.275.2Zm-49.81 3.425-61.95-.62a.25.25 0 1 1 0-.5l61.95.62a.25.25 0 1 1 0 .5Z" class="shade90"/>
    <path fill="#9fbdd0" d="M127.32 210.67c-1.77 0-3.21-2-3.21-4.455s1.44-4.45 3.21-4.45 3.205 2 3.205 4.45-1.44 4.455-3.205 4.455Zm0-8.405c-1.5 0-2.71 1.77-2.71 3.95s1.215 3.955 2.71 3.955c1.495 0 2.705-1.775 2.705-3.955s-1.215-3.95-2.705-3.95Z" class="shade40"/>
    <path fill="#9fbdd0" d="m130.415 205.955-.28-.415a1.994 1.994 0 0 1 2.145 0l-.275.415a1.502 1.502 0 0 0-1.59 0Zm-12.439-2.816-.172.47 6.465 2.367.172-.469-6.465-2.368Z" class="shade40"/>
  </g>
</svg>