<svg xmlns="http://www.w3.org/2000/svg" width="400" height="300" fill="none" viewBox="0 0 400 300">
  <g class="Girl with puzzle" clip-path="url(#a)">
    <path fill="#ebf1f5" d="M35.66 295h64.645c-6.945-1.84-12.75-4.28-16.915-7.355C55.27 266.89 2.205 258.525 35.66 295Zm330.645-51.905c-4.755-19.9-25.09-17.735-35.47 10.38-10.38 28.115-21.63 14.71-22.93-10.38-1.3-25.09-49.745 1.3-68.78 29-7.25 10.53-27.38 18.405-51.125 22.905h174.845s8.22-32 3.46-51.905Z" class="shade10"/>
    <path fill="#ffffff" d="M229.434 146.29s-1.21 36.06-1.745 40.81c-.535 4.75-.22 90.25-.22 90.25l10.5 2 13.775-89.66s7.115-44.775 6.255-62.19" class="shade0"/>
    <path fill="#121212" d="m238.171 279.65-10.95-2.095v-.205c0-3.5-.305-85.57.22-90.28.525-4.71 1.735-40.43 1.745-40.79h.5c0 .36-1.215 36.125-1.745 40.825-.5 4.57-.24 85.33-.225 90l10.04 1.92 13.745-89.365c.07-.45 7.105-44.96 6.275-62.13l.5-.025c.835 17.22-6.21 61.78-6.28 62.23l-13.825 89.915Z" class="shade90"/>
    <path fill="#ebf1f5" d="M258.341 92.315s2.705 3.375 3.275 13.345c.36 6.375 3 26.185 4.89 39.66.08.585.16 1.16.24 1.72.352 3.87.91 7.719 1.67 11.53-6.57-.5-12.94-.7-19.23-2.31-9.3-2.39-18.33-4.705-27.84-6.27.845-3.285 1.755-6.84 2.42-10.265l.39-1.89 10.885-53.06 23.3 7.54Z" class="shade10"/>
    <path fill="#ffffff" d="M262.616 150.375a92.388 92.388 0 0 0-9.9-.8 41.438 41.438 0 0 1-12.715-2.795c-2.56-.965-5.08-2-7.685-2.835-3-.69-6-1.275-9.07-1.785-.345 1.57-.725 3.155-1.115 4.705 3.042.057 6.073.391 9.055 1 5.06 1.075 9.845 2.87 14.775 4.315 6.025 1.37 12.27 1.81 18.445 1.88 1.06-.02 2.12-.053 3.18-.1-.137-.92-.262-1.845-.375-2.775-1.52-.285-3.05-.57-4.595-.81Z" class="shade0"/>
    <path fill="#121212" d="m268.73 158.845-.335-.025c-1.22-.1-2.435-.185-3.64-.265-5.395-.38-10.5-.735-15.635-2.055-9.42-2.415-18.315-4.7-27.815-6.265l-.27-.045.07-.26c.82-3.2 1.75-6.825 2.415-10.25l11.33-55.23 23.65 7.65.05.06c.11.14 2.76 3.55 3.33 13.5.35 6.205 2.85 25 4.885 39.635L267 147c.358 3.86.916 7.698 1.67 11.5l.06.345Zm-47.075-9.055c9.42 1.565 18.25 3.83 27.59 6.225 5.1 1.31 10.175 1.665 15.545 2.04l3.31.24c-.77-3.67-1.215-7.555-1.605-11.225l-.24-1.715c-2.035-14.665-4.535-33.455-4.89-39.68-.5-9.07-2.84-12.665-3.18-13.145L235.23 85.1 224 139.775c-.64 3.345-1.54 6.875-2.345 10.015Z" class="shade90"/>
    <path fill="#121212" d="M263.261 122.5c-13.19-7.535-18.04-30.3-18.085-30.53l.5-.1c.045.225 4.85 22.775 17.84 30.195l-.255.435Z" class="shade90"/>
    <path fill="#ffffff" d="M253.311 151.365s7.79 35.23 8.455 39.965c.665 4.735 22.235 87.47 22.235 87.47l10.66-.665-8.96-90.27s-4.235-45.145-9.375-61.785" class="shade0"/>
    <path fill="#121212" d="m283.789 279.065-.055-.2c-.88-3.38-21.56-82.81-22.22-87.5-.66-4.69-8.37-39.59-8.45-39.94l.5-.11c.08.355 7.8 35.295 8.455 40 .64 4.55 21 82.71 22.16 87.245l10.195-.64-8.915-90c-.04-.45-4.29-45.31-9.36-61.74l.5-.145c5.055 16.465 9.305 61.355 9.35 61.81l8.965 90.525-11.125.695Z" class="shade90"/>
    <path fill="#121212" d="m263.563 199.296-.163.473 4.615 1.586.163-.472-4.615-1.587Z" class="shade90"/>
    <path fill="#ebf1f5" d="M267.889 91.905s3.465 2.595 6.5 12.11c1.935 6.08 9.43 24.61 14.595 37.2l.66 1.605a109.63 109.63 0 0 0 4.5 10.75c-6.5 1.13-12.71 2.545-19.205 2.545-9.6 0-18.92 0-28.5.845 0-3.39 0-7.06-.205-10.545-.035-.62-.065-1.265-.095-1.925l-2.645-54.1 24.395 1.515Z" class="shade10"/>
    <path fill="#ffffff" d="M276.9 149.195c-5.22 1.16-10.545 1.725-15.85 2.335-4.91.57-9.79.285-14.685.105v2.435c6.38-.103 12.764-.16 19.15-.17h-3.79c3.863.046 7.726-.121 11.57-.5 3.765-.425 7.37-1.415 11.045-2.285 2.605-.62 5.22-1.19 7.835-1.755-.59-1.395-1.15-2.82-1.695-4.255a113.932 113.932 0 0 1-13.58 4.09Z" class="shade0"/>
    <path fill="#121212" d="M246.146 157.235v-.275c0-3.305 0-7.05-.205-10.53l-.095-1.93-2.66-54.38 24.815 1.535.06.045c.145.11 3.56 2.755 6.58 12.24 1.885 5.92 8.97 23.5 14.585 37.18l.66 1.61a111.87 111.87 0 0 0 4.475 10.73l.15.3-.33.055c-1.205.21-2.4.43-3.59.65-5.32.975-10.34 1.9-15.655 1.9-9.725 0-18.91 0-28.5.845l-.29.025Zm-2.43-66.58 2.72 55.75c.205 3.39.21 7.035.21 10.28 9.5-.82 18.625-.82 28.27-.82 5.265 0 10.27-.92 15.565-1.89 1.085-.2 2.17-.4 3.265-.59-1.655-3.36-3.05-7-4.345-10.475l-.655-1.6c-5.62-13.705-12.715-31.28-14.6-37.22-2.755-8.655-5.9-11.56-6.35-11.945l-24.08-1.49Z" class="shade90"/>
    <path fill="#121212" d="M280.156 119.9c-14.65-4-25-24.865-25.105-25.075l.45-.22c.1.205 10.36 20.855 24.785 24.815l-.13.48Zm-48.131-98.61s12.77-25.225 29.065-10.965c16.295 14.26 11.32 21.61 20.755 25.72 9.435 4.11 2.37 24.5 8 27.33 5.63 2.83.305 17.39.305 17.39s-23.755 10-27.355 1.775c-3.6-8.225-14.205-22.96-11.175-35.745 3.03-12.785-19.595-25.505-19.595-25.505Z" class="shade90"/>
    <path fill="#121212" d="M290.705 62c-2.26-1.075-2.295-3.585-2.34-7.385a50.582 50.582 0 0 0-1.21-11.7c-2.195-9.33-6.15-10.725-9.035-11.745-.445-.155-.86-.305-1.255-.47-1.18-.5-2-2.1-3.25-4.525C271.5 22.06 268.305 15.85 260.5 9.08c-3.595-3.115-7.24-4.435-10.82-3.915-6.155.885-10.105 6.945-10.145 7l-.42-.27c.04-.065 4.11-6.31 10.5-7.23 3.735-.535 7.5.815 11.22 4.03 7.89 6.835 11.115 13.095 13.245 17.24 1.2 2.325 2 3.86 3 4.29.38.16.79.305 1.225.46 3 1.055 7.1 2.5 9.355 12.1a50.827 50.827 0 0 1 1.225 11.805c.045 3.745.075 6 2.055 6.945l-.235.465Z" class="shade90"/>
    <path fill="#121212" d="M260.499 13.71s-23.44-15.935-30.265 5.83c-6.825 21.765 1.37 27.295-4.595 36.405s9.885 22.075 6.5 27.825 8.165 14.84 8.165 14.84 10.25-17.025 9.3-26.115c-.95-9.09 15.46-16.6 6.71-25.56-8.75-8.96 4.185-33.225 4.185-33.225Z" class="shade90"/>
    <path fill="#ffffff" d="M247.501 47.13s-4.23 1.055-7.885 5.865c-3.655 4.81-24.32 26.36-40.76 27.445-16.44 1.085-31.145-13-31.145-13l-.65 24.875s32.445.215 46.5-.43 34.605-22.5 34.605-22.5" class="shade0"/>
    <path fill="#ffffff" d="M247.501 47.13s-4.23 1.055-7.885 5.865c-3.655 4.81-24.32 26.36-40.76 27.445-16.44 1.085-31.145-13-31.145-13l-.65 24.875s32.445.215 46.5-.43 34.605-22.5 34.605-22.5" class="shade0"/>
    <path fill="#121212" d="M179.23 92.62c-6.97 0-12.05-.035-12.18-.035h-.255v-.255l.66-25.44.41.39c.145.14 14.835 13.96 30.96 12.91 15.84-1.045 36.22-21.62 40.575-27.35 3.665-4.82 7.845-5.91 8-5.955l.125.5c-.045 0-4.195 1.1-7.745 5.775-4.385 5.77-24.925 26.5-40.945 27.545-14.835.95-28.4-10.46-30.895-12.705l-.63 24.07c3.08 0 33 .18 46.235-.43 5.695-.265 13.45-4.22 22.43-11.435 4.22-3.42 8.227-7.093 12-11l.365.345a133.917 133.917 0 0 1-12.06 11.025C227.1 88 219.455 91.88 213.57 92.15c-8.43.39-23.615.47-34.34.47Z" class="shade90"/>
    <path fill="#121212" d="m244.465 78.88-.295-.405c.09-.065 9.03-6.715 7.65-12.58-1.435-6.09 2-11.21 7-17.785 4.09-5.385 1.23-9.265-1.8-13.37a86.198 86.198 0 0 1-1.365-1.885c-3.28-4.76 1.73-19.355 1.945-19.975l.5.165c-.05.15-5.145 14.97-2 19.525.43.625.9 1.26 1.35 1.875 3 4.075 6.115 8.285 1.795 13.97-5.06 6.665-8.275 11.5-6.885 17.365 1.405 6.185-7.515 12.82-7.895 13.1Zm-13.7 4.23-.43-.26c1.225-2 .155-3.915-1.625-7.1A48.262 48.262 0 0 1 224 65.07c-2.745-9.425 0-13.095 2-15.77.29-.39.57-.76.81-1.12.65-1 .575-2.755.455-5.435a58.778 58.778 0 0 1 2.805-22.44c1.67-5.23 4.405-8.73 8.14-10.4 5.645-2.5 11.65.11 11.71.135l-.205.46c-.06-.03-5.87-2.57-11.305-.135-3.595 1.61-6.24 5-7.86 10.095a58.268 58.268 0 0 0-2.785 22.265c.12 2.78.205 4.615-.54 5.735-.25.37-.53.745-.825 1.14-1.945 2.59-4.61 6.145-1.935 15.33a47.863 47.863 0 0 0 4.685 10.57c1.8 3.24 2.99 5.37 1.615 7.61Z" class="shade90"/>
    <path fill="#ffffff" d="m188.595 87.345-14.625-.29a25.46 25.46 0 0 0-9.17-2.335c-5.305-.34-8.335-1.795-10 .205-1.75 2.075 6.5 2.815 6.5 2.815s-.295.16-.635 5.47c-.025.43.45.91 1.1 1.36a8.086 8.086 0 0 0 5.86 1.275c1.075-.17 2.28-.37 3.16-.53 2-.38 5.865.62 5.865.62l13.24-1.705-1.295-6.885Z" class="shade0"/>
    <path fill="#121212" d="M166.265 96.205a8.127 8.127 0 0 1-4.65-1.43c-.845-.585-1.24-1.1-1.21-1.585.215-3.305.405-4.665.55-5.235-1.365-.14-6-.725-6.6-2.135a.968.968 0 0 1 .235-1.055c1.255-1.5 3.125-1.21 5.96-.79 1.24.185 2.64.39 4.265.5a26.198 26.198 0 0 1 9.215 2.335l14.775.295 1.37 7.345-13.55 1.74h-.05c-.035 0-3.82-1-5.755-.615-.945.175-2.245.385-3.165.535-.46.066-.925.098-1.39.095ZM161.5 87.92c-.07.19-.305 1.125-.575 5.305 0 .16.105.525 1 1.14A7.77 7.77 0 0 0 167.6 95.6c.92-.145 2.215-.36 3.155-.535 1.945-.365 5.455.5 5.925.615L189.59 94l-1.205-6.42-14.5-.295h-.05a25.431 25.431 0 0 0-9.07-2.305c-1.645-.105-3.06-.315-4.31-.5-2.665-.4-4.425-.66-5.5.62-.225.265-.195.435-.155.54.4.965 4.2 1.655 6.5 1.86l.81.07-.61.35Z" class="shade90"/>
    <path fill="#ffffff" d="m161.645 87.735-6.425-1.055c-1.05.295-.955 2.665.7 2.88l5.58.72" class="shade0"/>
    <path fill="#121212" d="m161.451 90.525-5.565-.715a1.867 1.867 0 0 1-1.595-1.79c-.055-.785.29-1.42.86-1.58h.11l6.425 1.06-.08.5-6.365-1.04a1.002 1.002 0 0 0-.45 1.04 1.369 1.369 0 0 0 1.16 1.33l5.55.7-.05.495Z" class="shade90"/>
    <path fill="#ffffff" d="M161.776 90.33s-6.32-1.13-6.39-.94c-1.2 3.29 7.13 3.89 7.13 3.89" class="shade0"/>
    <path fill="#121212" d="M162.501 93.53c-.235 0-5.831-.445-7.176-2.525a1.827 1.827 0 0 1-.169-1.7c.09-.245.139-.39 6.67.78l-.085.5c-2.085-.37-5.435-.93-6.16-.955a1.28 1.28 0 0 0 .164 1.115c1.21 1.875 6.74 2.295 6.795 2.3l-.039.485Z" class="shade90"/>
    <path fill="#ffffff" d="M162.755 93.215s-5.735-1.125-5.82-.82c-.755 2.69 7.29 3.34 7.29 3.34" class="shade0"/>
    <path fill="#121212" d="M164.205 96c-.245 0-6-.5-7.29-2.385a1.46 1.46 0 0 1-.22-1.275c.07-.255.15-.525 6.105.645l-.095.5a50.013 50.013 0 0 0-5.56-.87.979.979 0 0 0 .18.725c1.175 1.66 6.86 2.16 6.92 2.16l-.04.5Z" class="shade90"/>
    <path fill="#ffffff" d="M270.174 55.78c-6.825 4.38-12.555 10.63-20.385 8.15-1.835-.585-5.46-5-7-6.205l1.875-7.93c2.22-3.955 5.26-6.26 9.695-7.195l.13-.03c6.315-1.3 16 4.5 19.58 10.245a31.224 31.224 0 0 1-3.895 2.965Z" class="shade0"/>
    <path fill="#121212" d="M253.351 64.745a11.996 11.996 0 0 1-3.64-.58c-1.25-.395-3.185-2.38-4.885-4.13a28.799 28.799 0 0 0-2.185-2.11l-.125-.1 1.935-8.15c2.275-4.055 5.41-6.38 9.865-7.32l.13-.03c6.39-1.315 16.25 4.595 19.84 10.36l.115.175-.16.14a30.802 30.802 0 0 1-3.93 3c-1.4.9-2.77 1.89-4.095 2.845-4.185 3.01-8.185 5.9-12.865 5.9Zm-10.275-7.115c.54.45 1.27 1.2 2.105 2.06 1.58 1.62 3.55 3.64 4.685 4 6.1 1.935 10.935-1.56 16.055-5.26 1.33-.96 2.71-1.955 4.12-2.86a30.977 30.977 0 0 0 3.71-2.8c-3.6-5.57-13.065-11.215-19.205-9.955l-.13.03c-4.29.905-7.315 3.145-9.5 7.045l-1.84 7.74Zm-9.885-42.715s-1.525 7.64-.23 11.955 10.54 9.825 10.54 9.825l-5.395-17.345" class="shade90"/>
    <path fill="#121212" d="M255.891 30.535a9.25 9.25 0 0 0 4.54-6.68c.805-4.87-3.315-17.27-9.16-19.095-5.845-1.825-19.845 6.46-18.65 11.08 1.195 4.62 23.27 14.695 23.27 14.695Z" class="shade90"/>
    <path fill="#ffffff" d="M248.924 48.76c0-.03-.5-5.095-.53-5.125l-1.83-11.095 7.735-4.59 7.16 16.455" class="shade0"/>
    <path fill="#121212" d="M248.689 48.83c0-.035 0-.035-.26-2.455-.125-1.225-.27-2.615-.28-2.7l-1.86-11.26 8.13-4.825 7.27 16.715-.46.2-7.045-16.195-7.345 4.36 1.805 10.925.28 2.725c.12 1.145.24 2.33.25 2.405l-.485.105Z" class="shade90"/>
    <path fill="#121212" d="m254.299 27.95.64 2.115c-.94 4.74-3.21 8.765-7.335 8.765l-1.04-6.29 7.735-4.59Z" class="shade90"/>
    <path fill="#ffffff" d="M242.334 12.83c-4.345.23-7.685 3.865-7.94 8.26-.155 2.715.315 6.245 2.395 10.33 4.945 9.69 17.965 7.65 16.395-3.745-1.185-8.72-4.745-15.175-10.85-14.845Z" class="shade0"/>
    <path fill="#121212" d="M245.834 37.87c-3.97 0-7.5-2.905-9.265-6.34a20.35 20.35 0 0 1-2.425-10.455c.265-4.61 3.78-8.26 8.175-8.5 5.69-.31 9.755 5.185 11.115 15.065.8 5.82-2.125 8.905-5.13 9.845a8.237 8.237 0 0 1-2.47.385Zm-3.5-24.79c-4.14.22-7.45 3.67-7.7 8.025a19.91 19.91 0 0 0 2.365 10.2c2 3.945 6.5 7.175 11.14 5.71 2.81-.885 5.54-3.79 4.785-9.305-1.32-9.59-5.165-14.925-10.595-14.63h.005Z" class="shade90"/>
    <path fill="#a0bdcf" d="M246.725 31.24c-.823.08-1.639.214-2.445.4-.257.173-.454.42-.565.71a3.25 3.25 0 0 0-.875-.09c-.4.03-.84 1.24-.84 1.24s1.54 1.9 2.82 2.09c1.28.19 2.76-1.33 1.905-4.35Z" class="shade40"/>
    <path fill="#ffffff" d="m252.689 26.57.09-.075Z" class="shade0"/>
    <path fill="#121212" d="M252.69 26.82a.253.253 0 0 1-.195-.09.25.25 0 0 1 .035-.35l.08-.07a.256.256 0 0 1 .355 0 .246.246 0 0 1 .074.178.244.244 0 0 1-.074.177l-.095.085a.25.25 0 0 1-.18.07Z" class="shade90"/>
    <path fill="#ffffff" d="M252.779 26.5c.5-.455 2.965-2.85 2.13-5.555-.93-3-4.06-1.39-3.71.81" class="shade0"/>
    <path fill="#121212" d="m252.944 26.68-.335-.37c.5-.435 2.85-2.735 2.06-5.3-.335-1.09-1-1.625-1.84-1.435a1.897 1.897 0 0 0-1.38 2.14l-.5.075a2.41 2.41 0 0 1 1.76-2.7c.85-.195 1.935.165 2.435 1.775.885 2.85-1.675 5.345-2.2 5.815Z" class="shade90"/>
    <path fill="#ffffff" d="M252.914 20.895s1.395.23 1.045 2.315Z" class="shade0"/>
    <path fill="#121212" d="m254.209 23.25-.5-.08c.3-1.82-.795-2.025-.84-2.03l.085-.5s1.635.305 1.255 2.61ZM251.815 19l-.5 3.78s-2.785-4.75-3.855-6.07l-1.065-1.32a39.892 39.892 0 0 1-7.5 1.325c-4.5.4-4.645 2.385-4.645 2.385s.54-1.78.865-2.865c.325-1.085 5.165-3.575 5.165-3.575l5-.885 2.275.945 4.155 6" class="shade90"/>
    <path fill="#ffffff" d="M241.311 28.415c.115.2.795 1.28.81 1.395.13 1.055-.415 1.37.44 1.5.565.085 1.265-.53 1.695-1.09" class="shade0"/>
    <path fill="#121212" d="M242.661 31.56h-.135a.88.88 0 0 1-.61-.27.77.77 0 0 1-.07-.625c.048-.269.057-.543.025-.815-.03-.075-.385-.655-.555-.935a5.728 5.728 0 0 1-.22-.365l.435-.245.21.35c.535.875.615 1.025.625 1.13.04.318.032.64-.025.955a.872.872 0 0 0 0 .26c.086.04.179.064.275.07.435.065 1.06-.5 1.465-1l.395.305c-.475.58-1.175 1.185-1.815 1.185Zm2.124-5.14a.48.48 0 1 0 0-.96.48.48 0 0 0 0 .96Zm-5.254 3.315a.48.48 0 1 0 0-.96.48.48 0 0 0 0 .96Z" class="shade90"/>
    <path fill="#ffffff" d="M246.885 30.83a5.885 5.885 0 0 1-2.395 2.25c-1.655.76-2.56.5-2.56.5s2.125 1.415 3.455.625 1.5-3.375 1.5-3.375Z" class="shade0"/>
    <path fill="#121212" d="M244.43 34.685a5.5 5.5 0 0 1-2.635-.91.248.248 0 0 1-.104-.138.249.249 0 0 1 .014-.172.248.248 0 0 1 .3-.135s.85.225 2.38-.5a5.669 5.669 0 0 0 2.28-2.145.242.242 0 0 1 .29-.12.256.256 0 0 1 .18.255c0 .11-.195 2.715-1.625 3.565a2.1 2.1 0 0 1-1.08.3Zm-1.5-.86c.685.295 1.63.56 2.31.155.68-.405 1.045-1.385 1.22-2.145a5.674 5.674 0 0 1-1.88 1.47 6.056 6.056 0 0 1-1.635.52h-.015Z" class="shade90"/>
    <path fill="#ffffff" d="M251.145 73s6 .36 8.435-1.23Z" class="shade0"/>
    <path fill="#121212" d="M252.641 73.3c-.85 0-1.435-.035-1.5-.04l.03-.5c.06 0 5.93.335 8.285-1.19l.27.42c-1.725 1.13-5.12 1.31-7.085 1.31Zm-15.076-58.04 11.2-1.2.195 1.285c-.477.4-.922.839-1.33 1.31a7.821 7.821 0 0 0-1.775 4.5c-1.5 1.535-4.61 4.43-7.71 5.23-4.28 1.11-4.95-.72-4.95-3.075 0-2.355 2.595-7.855 4.37-8.05Z" class="shade90"/>
    <path fill="#ffffff" d="M245.175 48.57c.14.16-.425 1.255-.405 1.5.655 6.745 4.045 14.045 7.47 13.845 3.425-.2 8.81-12 11.38-14.37a19.73 19.73 0 0 0 3.09-3.65c4.915 3.075 8.885 7.615 8.765 11.26-.115 3.5-3.715 14.875-5.03 24.75-1.16 8.71-.435 11.105 2.16 16.295l-.39.125a33.3 33.3 0 0 1-23.555-1.38L244.35 73.5s-5.915-2.4-5.71-8.705l2.065-6.68" class="shade0"/>
    <path fill="#121212" d="M262.255 100.075a33.586 33.586 0 0 1-13.695-2.925l-.12-.055-.025-.13-4.285-23.32c-.88-.405-5.93-3-5.74-8.88V64.7l2.075-6.7.475.145-2.055 6.655c-.17 6 5.5 8.405 5.56 8.425l.125.05 4.315 23.455a33.048 33.048 0 0 0 23.255 1.315l.115-.035c-2.5-5.045-3.21-7.535-2.06-16.175.72-5.405 2.13-11.29 3.265-16 .96-4 1.715-7.145 1.765-8.715.105-3.26-3.28-7.625-8.445-10.91a19.608 19.608 0 0 1-3 3.5c-.92.84-2.275 3.03-3.71 5.345-2.6 4.2-5.545 8.96-7.825 9.09h-.15c-3.57 0-6.93-7.355-7.585-14.08.024-.248.093-.488.205-.71.1-.224.174-.46.22-.7a.148.148 0 0 0 .045.085l.37-.34c.18.2.065.5-.17 1.135a3.68 3.68 0 0 0-.17.5c.625 6.44 3.91 13.815 7.205 13.61 2-.12 5-4.965 7.43-8.86 1.5-2.445 2.825-4.56 3.795-5.45a19.11 19.11 0 0 0 3.05-3.605l.135-.2.205.13c4.5 2.82 9 7.465 8.885 11.5-.05 1.625-.815 4.8-1.78 8.82-1.13 4.71-2.535 10.58-3.255 15.96-1.15 8.65-.42 11.03 2.14 16.15l.13.26-.67.21a33.458 33.458 0 0 1-10.025 1.515Zm-48.912-24.966-.304.396 2.163 1.658.304-.397-2.163-1.657ZM261.836 295h37l-3.335-46.28s-7.64-.865-12.11-.435-9.5 3.03-9.5 3.03l3.895 32.3s-9.5 1.73-12.255 3.605c-2.755 1.875-3.695 7.78-3.695 7.78Z" class="shade90"/>
    <path fill="#ffffff" d="M298.535 292.305h-36.34v.5h36.34v-.5Z" class="shade0"/>
    <path fill="#ffffff" d="m297.215 275.104-11.238 17.019.417.276 11.239-17.019-.418-.276Zm-22.8-20.374-.12-.5c.125-.03 12.555-3.07 21.54-1.545l-.085.5c-8.88-1.5-21.21 1.515-21.335 1.545Zm21.819 2.215c-3.095-.5-6.595-.575-11-.155l-.045-.5c4.46-.425 8-.37 11.14.16l-.095.495Z" class="shade0"/>
    <path fill="#121212" d="M205.311 295h37l-3.31-46.28s-7.645-.865-12.115-.435c-4.47.43-9.5 3.03-9.5 3.03l3.895 32.3s-9.5 1.73-12.26 3.605-3.71 7.78-3.71 7.78Z" class="shade90"/>
    <path fill="#ffffff" d="M242.01 292.305h-36.34v.5h36.34v-.5Z" class="shade0"/>
    <path fill="#ffffff" d="m240.69 275.102-11.239 17.019.417.276 11.239-17.019-.417-.276Zm-22.8-20.372-.12-.5c.125-.03 12.555-3.07 21.54-1.545l-.085.5c-8.88-1.5-21.225 1.515-21.335 1.545Zm21.814 2.215c-3.095-.5-6.595-.575-11-.155l-.05-.5c4.465-.425 8-.37 11.145.16l-.095.495ZM148.555 203.1a7.993 7.993 0 0 1-.9.115h-85.57c-.375 0-.75-.05-1.26-.09v-87.45h87.74v32.285c0 1.79.115 3.5 1.5 4.965 1.385 1.465 4.81 2.41 6.75 1.535 2.695-1.22 5.365-2.65 8.2-3.37 4.635-1.17 7.34-.23 9.58 2.825 2.1 2.875 2.195 6.165 1.29 9.38-1.395 5-5.465 6.915-10.5 5.755-2.085-.5-3.965-1.77-6-2.5-1.865-.645-3.68-1.605-5.775-1.37-2.295.26-4.465 2.22-4.785 4.5a24.506 24.506 0 0 0-.235 3.315v28.575l-.035 1.53Z" class="shade0"/>
    <path fill="#121212" d="M62.08 203.465c-.26 0-.5-.025-.8-.05l-.5-.04h-.23V115.4h88.24v32.535c0 1.785.11 3.38 1.425 4.795 1.42 1.535 4.685 2.28 6.46 1.475.605-.27 1.205-.555 1.81-.835a36.08 36.08 0 0 1 6.435-2.545c4.615-1.17 7.465-.325 9.84 2.92 1.93 2.64 2.38 5.865 1.335 9.59-1.39 4.95-5.43 7.165-10.805 5.935a16.984 16.984 0 0 1-3.54-1.395 24.017 24.017 0 0 0-2.5-1.095c-.385-.13-.76-.275-1.14-.42-1.435-.55-2.915-1.12-4.53-.935-2.22.255-4.265 2.165-4.565 4.265a24.487 24.487 0 0 0-.23 3.28v30.325l-.215.03-.37.055a3.513 3.513 0 0 1-.56.06H62.07l.01.025Zm-1-.57h.25c.28.025.5.05.755.05h85.57c.168-.006.335-.024.5-.055l.165-.025v-29.87c.002-1.121.081-2.24.235-3.35.335-2.35 2.53-4.41 5-4.69 1.735-.195 3.275.39 4.76.96.375.145.75.29 1.125.42.875.319 1.73.691 2.56 1.115a16.752 16.752 0 0 0 3.435 1.36c5.085 1.165 8.905-.92 10.21-5.58 1-3.575.58-6.655-1.255-9.165-2.23-3.05-4.925-3.845-9.31-2.73a35.915 35.915 0 0 0-6.35 2.5c-.605.285-1.205.57-1.81.84-2 .89-5.465.105-7.04-1.59-1.43-1.545-1.555-3.31-1.555-5.135v-32.025h-87.24v78.6l-.005 8.37Z" class="shade90"/>
    <path fill="#ffffff" d="M60.835 294.715v-87.45h87.72v30.565c-.007.94-.089 1.878-.245 2.805-.25 1.5-1.25 2.03-2.675 1.42-2.315-1-4.575-2.15-6.945-3a14.763 14.763 0 0 0-10.19-.12c-2.845 1.055-4.91 3.165-6.305 5.965-1.08 2.165-1.88 4.455-1.725 6.755.295 4.375 1.78 8.435 5.455 11.175 2.5 1.855 5.475 2.375 8.575 2.14 2.7-.21 5.1-1.2 7.45-2.5a19.942 19.942 0 0 1 4.35-1.595c1.11-.3 1.81.395 2 1.5.168.968.257 1.948.265 2.93 0 9.4 0 18.8.035 28.2 0 1.085-.305 1.365-1.36 1.355-10.085-.075-76.955 0-85.41 0-.305-.035-.59-.1-.995-.145Z" class="shade0"/>
    <path fill="#121212" d="M147.265 295.09h-.045c-8.355-.06-56.1-.035-76.5 0h-8.91a4.826 4.826 0 0 1-.635-.06l-.37-.05h-.22V207h88.22v30.815c-.006.954-.09 1.905-.25 2.845a2.196 2.196 0 0 1-1 1.68 2.292 2.292 0 0 1-2-.07c-.78-.335-1.555-.69-2.335-1.045-1.5-.685-3.035-1.385-4.595-1.945a14.58 14.58 0 0 0-10-.12c-2.65 1-4.725 2.95-6.165 5.845-1.29 2.585-1.83 4.69-1.7 6.625.33 4.89 2.13 8.59 5.355 11 2.205 1.645 5.03 2.35 8.405 2.09 2.315-.18 4.585-.94 7.35-2.465a19.923 19.923 0 0 1 4.405-1.62 1.749 1.749 0 0 1 1.43.165 2.137 2.137 0 0 1 .87 1.5c.171.981.262 1.974.27 2.97v10.89c0 5.675 0 11.54.025 17.31a1.695 1.695 0 0 1-.35 1.26 1.598 1.598 0 0 1-1.255.36Zm-32-.54c14.81 0 27.925 0 31.945.04.5 0 .76-.055.9-.2.14-.145.205-.42.205-.905-.03-5.77-.03-11.635-.025-17.31v-10.89a17.613 17.613 0 0 0-.26-2.89 1.676 1.676 0 0 0-.65-1.165 1.234 1.234 0 0 0-1.03-.105 19.34 19.34 0 0 0-4.29 1.57c-2.835 1.565-5.165 2.345-7.555 2.525-3.5.265-6.44-.465-8.745-2.185-3.345-2.5-5.215-6.315-5.555-11.355-.135-2.03.42-4.215 1.75-6.885 1.5-3 3.67-5.06 6.44-6.085a15 15 0 0 1 10.36.115c1.585.565 3.135 1.275 4.64 1.96.77.35 1.545.705 2.325 1.04a1.814 1.814 0 0 0 1.575.09 1.737 1.737 0 0 0 .755-1.32c.152-.914.232-1.838.24-2.765V207.5H61.075v87h.16c.187.029.376.047.565.055h8.92c10.6.005 28.565-.005 44.56-.005h-.015Z" class="shade90"/>
    <path fill="#a0bdcf" d="M140.555 203.1a8.11 8.11 0 0 1-.905.115c-10.087-.02-20.174-.049-30.26-.085a12.761 12.761 0 0 1-2.42-.24 1.84 1.84 0 0 1-1.404-.982 1.831 1.831 0 0 1 .019-1.713c1.065-2.36 2.38-4.64 3.175-7.09 1.16-3.585 1.275-7.195-.465-10.785a11.944 11.944 0 0 0-7.095-6.255 15.371 15.371 0 0 0-10.45.1c-2.805 1.04-5.305 2.81-6.5 5.735-.78 1.92-1.585 4-1.61 6-.025 2 .79 4 1.5 5.94.815 2.285 1.915 4.465 2.81 6.725.385.96-.42 2.1-1.6 2.285a26.481 26.481 0 0 1-3.825.31c-9.14.035-18.28.03-27.425.035-.375 0-.745-.05-1.255-.09v-87.45h87.74v32.285c0 1.79.12 3.5 1.5 4.965 1.38 1.465 4.815 2.41 6.755 1.535 2.695-1.22 5.36-2.65 8.2-3.37 4.635-1.17 7.34-.23 9.575 2.825 2.105 2.875 2.195 6.165 1.295 9.38-1.4 5-5.47 6.915-10.5 5.755-2.085-.5-3.97-1.77-6-2.5-1.86-.645-3.675-1.605-5.775-1.37-2.295.26-4.465 2.22-4.785 4.5a23.716 23.716 0 0 0-.23 3.315c-.02 9.526-.02 19.051 0 28.575l-.065 1.55Z" class="shade40"/>
    <path fill="#121212" d="M54.075 203.465c-.255 0-.5-.025-.8-.05l-.47-.04h-.23V115.4h88.24v32.535c0 1.785.115 3.38 1.425 4.795 1.425 1.535 4.685 2.28 6.465 1.475.6-.27 1.205-.555 1.805-.835a36.187 36.187 0 0 1 6.44-2.545c4.615-1.17 7.465-.325 9.835 2.92 1.935 2.64 2.38 5.865 1.335 9.59-1.39 4.95-5.43 7.165-10.805 5.935a17.252 17.252 0 0 1-3.54-1.395 23.025 23.025 0 0 0-2.5-1.095c-.38-.13-.76-.275-1.14-.42-1.435-.55-2.915-1.12-4.5-.935-2.22.255-4.27 2.165-4.565 4.265a23.687 23.687 0 0 0-.23 3.28v30.325l-.22.03-.37.055a3.5 3.5 0 0 1-.56.06c-10.086-.02-20.173-.048-30.26-.085a12.999 12.999 0 0 1-2.465-.245 2.088 2.088 0 0 1-1.57-3.04c.345-.76.72-1.525 1.08-2.26a36.122 36.122 0 0 0 2.085-4.81c1.265-3.9 1.115-7.365-.45-10.595a11.71 11.71 0 0 0-6.955-6.13 15.084 15.084 0 0 0-10.275.1c-3.225 1.205-5.38 3.085-6.38 5.625-.825 2.035-1.57 4-1.59 5.935 0 1.725.62 3.5 1.245 5.24l.215.61c.47 1.325 1.05 2.635 1.61 3.9.405.92.825 1.865 1.2 2.815a1.725 1.725 0 0 1-.14 1.5 2.316 2.316 0 0 1-1.66 1.115 26.19 26.19 0 0 1-3.855.315c-7.78.03-15.685.03-23.33.035h-4.12Zm-1-.57h.245c.28.025.5.05.755.05h4.105c7.645 0 15.55 0 23.325-.035a26.074 26.074 0 0 0 3.785-.31 1.824 1.824 0 0 0 1.3-.87 1.22 1.22 0 0 0 .11-1.075c-.375-.94-.79-1.885-1.195-2.795-.56-1.275-1.145-2.595-1.62-3.935l-.22-.61c-.635-1.77-1.295-3.6-1.27-5.42.025-2 .785-4.035 1.63-6.11 1.085-2.67 3.32-4.645 6.64-5.875a15.58 15.58 0 0 1 10.615-.1 12.181 12.181 0 0 1 7.22 6.4c1.625 3.355 1.78 6.94.5 10.97a37.307 37.307 0 0 1-2.115 4.875c-.36.735-.735 1.5-1.075 2.245a1.589 1.589 0 0 0 1.21 2.345c.781.154 1.574.233 2.37.235 10.09.04 20.179.068 30.265.085.168-.005.335-.024.5-.055l.17-.025v-29.89c0-1.121.078-2.24.235-3.35.33-2.35 2.53-4.41 5-4.69 1.73-.2 3.27.39 4.76.96.375.145.75.29 1.125.42.873.32 1.727.692 2.555 1.115a16.797 16.797 0 0 0 3.435 1.36c5.08 1.165 8.9-.92 10.21-5.58 1-3.575.58-6.655-1.255-9.165-2.235-3.05-4.93-3.845-9.315-2.73a35.713 35.713 0 0 0-6.345 2.5c-.605.285-1.21.57-1.815.84-2 .895-5.465.105-7.035-1.59-1.435-1.545-1.555-3.31-1.56-5.135v-32.025H53.08v78.6l-.005 8.37Z" class="shade90"/>
    <path fill="#6a97b4" d="M52.835 294.715v-87.45H83.98c1.79 0 3.625 0 5.025-1.41a5.372 5.372 0 0 0 1.27-1.655c1.15-2.875.32-5.605-.87-8.235-.915-2-2-3.92-2.47-6.17-.31-1.465-.065-2.725.14-4.085.275-1.835 1.455-3.075 2.75-4.23 2.35-2.095 8.345-2.835 11.035-1.2 4 2.43 5.36 4.755 4.445 9.88-.315 1.76-1.29 3.395-1.945 5.095-.655 1.7-1.5 3.35-1.88 5.105-.565 2.575 1.435 6.735 4.855 6.765.81 0 1.615.145 2.425.145h31.83v30.565c-.005.94-.085 1.878-.24 2.805-.255 1.5-1.255 2.03-2.68 1.42-2.315-1-4.575-2.15-6.945-3a14.757 14.757 0 0 0-10.19-.12c-2.845 1.055-4.905 3.165-6.305 5.965-1.075 2.165-1.88 4.455-1.725 6.755.3 4.375 1.785 8.435 5.455 11.175 2.5 1.855 5.5 2.375 8.575 2.14 2.7-.21 5.105-1.2 7.455-2.5a19.84 19.84 0 0 1 4.35-1.595c1.105-.3 1.805.395 2 1.5.167.968.258 1.948.27 2.93 0 9.4 0 18.8.03 28.2 0 1.085-.305 1.365-1.355 1.355-10.09-.075-76.955 0-85.41 0-.375-.04-.64-.105-1.04-.15Z" class="shade50"/>
    <path fill="#ffffff" d="m-36.43 223.029-.323.382L134.21 368.09l.323-.381-170.963-144.68Zm5.061-5.061-.323.382 170.963 144.679.323-.381-170.963-144.68Zm5.06-5.058-.323.382 170.963 144.679.323-.381-170.963-144.68Zm5.059-5.057-.324.381 170.963 144.68.323-.382-170.963-144.679Zm5.055-5.061-.323.381 170.963 144.68.323-.382-170.963-144.679Zm5.062-5.061-.324.381 170.963 144.68.323-.382-170.963-144.679Zm5.057-5.05-.323.382 170.962 144.679.323-.381-170.962-144.68Zm5.061-5.061-.323.381 170.962 144.68.323-.382L-1.015 187.62Zm5.06-5.058-.323.381 170.962 144.68.323-.382L4.045 182.562Zm5.057-5.057-.323.381 170.963 144.68.323-.382L9.102 177.505Zm5.057-5.062-.323.382 170.963 144.679.323-.382L14.159 172.443Zm5.065-5.058-.323.382 170.962 144.679.323-.381-170.962-144.68Zm5.053-5.057-.323.381 170.962 144.68.323-.382L24.277 162.328Zm5.061-5.061-.323.381 170.962 144.68.323-.382L29.338 157.267Zm5.06-5.058-.323.381 170.962 144.68.323-.382L34.398 152.209Zm5.058-5.058-.323.382 170.962 144.679.323-.381-170.962-144.68Zm5.056-5.056-.323.382 170.963 144.679.323-.382L44.512 142.095Zm5.065-5.058-.323.381 170.963 144.68.323-.382L49.577 137.037Zm5.053-5.057-.323.381 170.963 144.68.323-.382L54.63 131.98Z" class="shade0"/>
    <path fill="#121212" d="M139.26 295.09h-.045c-8.355-.06-56.1-.035-76.5 0H53.81a4.903 4.903 0 0 1-.64-.06l-.365-.05h-.22V207H83.96c1.73 0 3.5 0 4.845-1.335a5.225 5.225 0 0 0 1.22-1.575c1.14-2.86.255-5.55-.87-8.04a42.91 42.91 0 0 0-.63-1.335 21.568 21.568 0 0 1-1.855-4.885 10.192 10.192 0 0 1 .085-3.845l.05-.325c.3-2 1.62-3.3 2.83-4.38 2.5-2.215 8.625-2.875 11.335-1.23 4.3 2.615 5.45 5.17 4.56 10.14a15.28 15.28 0 0 1-1.255 3.5c-.24.535-.5 1.085-.7 1.635-.2.55-.4 1-.605 1.475a20.87 20.87 0 0 0-1.265 3.595c-.315 1.425.22 3.36 1.3 4.71a4.294 4.294 0 0 0 3.31 1.75c.405 0 .81.04 1.205.075.395.035.815.07 1.22.07h32.08v30.815a17.503 17.503 0 0 1-.245 2.845 2.219 2.219 0 0 1-.306.955c-.173.292-.41.539-.694.725a2.286 2.286 0 0 1-2-.07 97.65 97.65 0 0 1-2.335-1.045c-1.5-.68-3.035-1.385-4.6-1.945a14.539 14.539 0 0 0-10-.12c-2.65 1-4.725 2.95-6.17 5.845-1.29 2.585-1.83 4.69-1.7 6.625.33 4.89 2.135 8.59 5.355 11 2.205 1.645 5.03 2.35 8.405 2.09 2.32-.18 4.585-.94 7.355-2.465a19.823 19.823 0 0 1 4.405-1.62 1.738 1.738 0 0 1 1.425.165 2.165 2.165 0 0 1 .875 1.5c.169.981.259 1.974.27 2.97v28.2a1.645 1.645 0 0 1-.35 1.26 1.596 1.596 0 0 1-1.25.36Zm-32-.54c14.81 0 27.925 0 31.945.04.5 0 .76-.055.9-.2.14-.145.21-.42.205-.905v-28.2c-.012-.969-.1-1.935-.265-2.89a1.662 1.662 0 0 0-.65-1.165 1.221 1.221 0 0 0-1.025-.105 19.261 19.261 0 0 0-4.295 1.57c-2.835 1.565-5.165 2.345-7.555 2.525-3.5.265-6.44-.465-8.745-2.185-3.345-2.5-5.21-6.315-5.555-11.355-.135-2.03.42-4.215 1.755-6.885 1.5-3 3.665-5.06 6.44-6.085a14.994 14.994 0 0 1 10.36.115c1.58.565 3.135 1.275 4.64 1.96.77.355 1.545.705 2.32 1.04a1.8 1.8 0 0 0 .777.225c.273.016.546-.03.798-.135a1.737 1.737 0 0 0 .755-1.32c.157-.914.237-1.838.24-2.765V207.5h-31.58c-.425 0-.85-.04-1.265-.075a16.13 16.13 0 0 0-1.165-.07 4.801 4.801 0 0 1-3.7-1.935c-1.18-1.5-1.74-3.545-1.395-5.13a21.174 21.174 0 0 1 1.295-3.685c.205-.5.41-.97.595-1.46s.47-1.12.715-1.665a14.829 14.829 0 0 0 1.22-3.38c.855-4.78-.2-7.115-4.33-9.63-2.5-1.525-8.435-.88-10.74 1.175-1.15 1.025-2.395 2.27-2.67 4.085l-.05.325a9.81 9.81 0 0 0-.09 3.67 20.963 20.963 0 0 0 1.82 4.77c.21.445.425.89.63 1.345 1.175 2.585 2.09 5.4.88 8.43a5.627 5.627 0 0 1-1.33 1.745c-1.47 1.475-3.365 1.475-5.2 1.5H53.07V294.5h.155c.189.029.38.047.57.055h8.915c10.605.005 28.57-.005 44.565-.005h-.015Z" class="shade90"/>
    <path fill="#ffffff" d="M240.58 268.355a46.026 46.026 0 0 0-.255-5.25c-.235-1.88-1.13-2.67-2.75-2.17-1.275.39-2.5 1-3.72 1.5-1.85.755-3.635 1.815-5.56 2.215-4.83 1-9.165.115-12.57-3.895a13.632 13.632 0 0 1-3.225-8.185c-.225-3.595.57-7 3.05-9.92 1.66-1.975 3.55-3.375 6-4a14.763 14.763 0 0 1 8.835.425c2.315.86 4.53 2 6.775 3 1.04.5 2.05.58 2.58-.605.401-.86.624-1.792.655-2.74.1-10.125.145-20.245.195-30.37a6.083 6.083 0 0 0-.125-.86c-.325 0-.58-.05-.835-.05h-29.105a14.229 14.229 0 0 0-1.665.085c-2 .235-2.785 1.445-2.055 3.34.47 1.215 1.035 2.4 1.625 3.57 1.025 2.045 1.925 4.11 2.2 6.425.47 3.975-.5 7.57-3.21 10.455-2.29 2.465-5.425 3.645-8.745 4.045-3.16.375-6.095-.475-8.875-2.025-3.615-2-5.305-5.255-6.055-9.11-.5-2.5.35-4.895 1.105-7.235.46-1.43 1.26-2.75 1.83-4.15a18.764 18.764 0 0 0 1.12-3.435 1.617 1.617 0 0 0-.81-1.325 9.997 9.997 0 0 0-3.185-.62c-9.32-.045-18.635-.03-27.955-.025V295h84.65c.04-.435.09-.725.09-1 .01-8.565.02-17.105-.01-25.645Z" class="shade0"/>
    <path fill="#121212" d="M155.605 295.245v-88h3.555c8.08 0 16.43 0 24.65.025 1.116.03 2.22.245 3.265.635a1.815 1.815 0 0 1 1 1.61 18.797 18.797 0 0 1-1.135 3.5c-.235.58-.5 1.15-.78 1.7a19.28 19.28 0 0 0-1.04 2.43l-.11.33c-.705 2.185-1.44 4.45-1 6.785.835 4.315 2.72 7.155 5.925 8.94 3 1.68 5.875 2.33 8.725 2 3.665-.44 6.555-1.77 8.59-3.965 2.565-2.76 3.625-6.21 3.145-10.26-.255-2.17-1.055-4.1-2.175-6.34-.53-1.055-1.14-2.305-1.635-3.59-.38-1-.38-1.855 0-2.5s1.17-1.055 2.25-1.185c.563-.06 1.129-.09 1.695-.09h29.105c.175 0 .35 0 .55.025l.5.035.03.2c0 .095.03.185.045.275.047.205.074.415.08.625v3.935c-.045 8.665-.09 17.625-.18 26.435a7.186 7.186 0 0 1-.67 2.845 1.725 1.725 0 0 1-.96 1 2.584 2.584 0 0 1-1.955-.26l-1.82-.885c-1.605-.76-3.27-1.54-4.95-2.165a14.398 14.398 0 0 0-8.685-.415c-2.225.555-4.085 1.795-5.86 3.9-2.255 2.67-3.235 5.855-3 9.74a13.404 13.404 0 0 0 3.145 8.035c3.09 3.645 7.125 4.895 12.33 3.815A17.735 17.735 0 0 0 232 263c.57-.265 1.155-.54 1.745-.78.37-.15.74-.31 1.11-.47.858-.39 1.736-.734 2.63-1.03a2.278 2.278 0 0 1 1.975.13c.59.38.96 1.14 1.095 2.25.188 1.752.275 3.513.26 5.275V294a5.955 5.955 0 0 1-.05.64c0 .12-.03.25-.045.395v.23h-85.115v-.02Zm.5-87.5v87h84.18c0-.065 0-.125.025-.185.026-.192.041-.386.045-.58v-25.61a44.625 44.625 0 0 0-.255-5.22c-.12-.955-.41-1.595-.87-1.89a1.811 1.811 0 0 0-1.555-.07c-.877.287-1.738.621-2.58 1-.375.165-.745.325-1.12.5-.575.235-1.16.5-1.72.77a18.201 18.201 0 0 1-3.885 1.46c-5.4 1.12-9.59-.185-12.81-4a13.862 13.862 0 0 1-3.265-8.325c-.25-4 .765-7.325 3.105-10.1 1.85-2.185 3.79-3.5 6.12-4.065a14.997 14.997 0 0 1 9 .435c1.705.63 3.38 1.42 5 2.18l1.8.84a2.102 2.102 0 0 0 1.57.245 1.25 1.25 0 0 0 .61-.73 6.76 6.76 0 0 0 .625-2.645c.09-8.81.135-17.77.18-26.43v-3.935a2.872 2.872 0 0 0-.07-.53v-.095h-.115c-.185 0-.345-.025-.5-.025h-29.09c-.546 0-1.092.03-1.635.09-.925.105-1.575.435-1.885.945-.31.51-.295 1.2.035 2.055.5 1.265 1.09 2.5 1.61 3.55 1.145 2.28 1.965 4.26 2.23 6.5.5 4.2-.61 7.785-3.28 10.655-2.12 2.28-5.11 3.67-8.895 4.12-2.96.355-5.91-.315-9.025-2.05-3.3-1.835-5.32-4.87-6.18-9.28-.475-2.46.28-4.785 1-7.035l.105-.33c.301-.856.659-1.691 1.07-2.5.265-.545.54-1.11.77-1.67a19.13 19.13 0 0 0 1.105-3.39 1.418 1.418 0 0 0-.65-1.045 9.715 9.715 0 0 0-3.1-.605c-8.22-.035-16.57-.03-24.65-.025l-3.05.02Z" class="shade90"/>
    <path fill="#ffffff" d="M165.36 84.33s-6.92-2.88-8.29-3.315c-1.37-.435-.975.9.14 2.2 1.115 1.3 5.23 3.39 5.23 3.39" class="shade0"/>
    <path fill="#121212" d="M162.325 86.825c-.17-.085-4.165-2.13-5.3-3.45-.705-.815-1.33-1.885-.975-2.425.19-.285.555-.345 1.095-.175 1.365.435 8 3.21 8.31 3.325l-.19.465c-.07-.03-6.93-2.885-8.27-3.31-.36-.115-.5-.07-.525-.03-.095.14.085.845.93 1.825 1.075 1.245 5.11 3.31 5.155 3.33l-.23.445Z" class="shade90"/>
    <path fill="#a0bdcf" d="M144.5 295v-29.695c0-2-.175-3.875-1.095-5.675-1.295-2.525-4.5-3.615-7.31-2.41-2.66 1.145-5.285 2.4-8 3.355a9.244 9.244 0 0 1-6.535-.28 7.559 7.559 0 0 1-4-4.17c-1.57-3.555-1.28-7.045.83-10.395 1.61-2.555 4.105-3.605 6.825-3.625 1.845 0 3.725.9 5.545 1.535 2.5.875 4.925 2 7.46 2.765 1.35.4 4.5-1.11 5.325-3.13.825-2.02.975-4 .975-6.095v-29.585c.455-.04.82-.1 1.185-.1 9.87 0 19.74 0 29.61.025a9.959 9.959 0 0 1 3.185.62 1.591 1.591 0 0 1 .81 1.325 18.688 18.688 0 0 1-1.12 3.435c-.565 1.4-1.365 2.72-1.83 4.15-.75 2.34-1.59 4.725-1.1 7.235.75 3.855 2.44 7.1 6.05 9.11 2.785 1.55 5.715 2.4 8.875 2.025 3.32-.4 6.455-1.58 8.745-4.045 2.685-2.885 3.68-6.5 3.21-10.455-.27-2.315-1.175-4.38-2.2-6.425-.585-1.17-1.155-2.355-1.625-3.57-.73-1.895.045-3.105 2.06-3.34.54-.059 1.083-.088 1.625-.085h29.11c.25 0 .5.03.835.05.064.283.104.571.12.86-.05 10.125-.095 20.245-.195 30.37a7.04 7.04 0 0 1-.65 2.74c-.535 1.185-1.545 1.08-2.58.605-2.25-1.03-4.465-2.155-6.775-3a14.77 14.77 0 0 0-8.835-.425c-2.435.61-4.325 2-6 4-2.5 2.935-3.27 6.325-3.05 9.92a13.705 13.705 0 0 0 3.205 8.18c3.405 4 7.745 4.895 12.575 3.895 1.92-.4 3.705-1.46 5.555-2.215 1.24-.5 2.45-1.105 3.72-1.5 1.625-.5 2.5.29 2.75 2.17.191 1.743.276 3.497.255 5.25.03 8.54.039 17.082.025 25.625 0 .29-.05.58-.09 1H144.5V295Z" class="shade40"/>
    <path fill="#121212" d="M146.295 295.245h-2v-29.93c0-1.71-.12-3.71-1.07-5.56-1.245-2.435-4.315-3.445-7-2.295-.72.305-1.435.625-2.15.94-1.905.845-3.88 1.72-5.88 2.42a9.461 9.461 0 0 1-6.695-.32c-1.785-.71-3.22-2.2-4.15-4.305-1.6-3.62-1.315-7.195.85-10.63 1.525-2.42 3.955-3.715 7.035-3.74h.045c1.5 0 2.955.56 4.39 1.105.4.155.795.305 1.195.445 1 .355 2.045.765 3.035 1.155 1.435.575 2.915 1.165 4.41 1.605 1.18.345 4.22-1.055 5.025-3 .805-1.945.955-3.77.955-6V207.32h.23l.42-.04c.26-.034.522-.054.785-.06h4.77c8.14 0 16.56 0 24.84.025 1.117.031 2.222.245 3.27.635a1.82 1.82 0 0 1 .97 1.61 19.208 19.208 0 0 1-1.13 3.5c-.235.58-.5 1.15-.78 1.7a19.89 19.89 0 0 0-1.045 2.43l-.105.335c-.71 2.185-1.445 4.45-1 6.78.84 4.31 2.72 7.155 5.93 8.94 3 1.68 5.87 2.33 8.72 2 3.665-.44 6.555-1.77 8.59-3.965 2.565-2.76 3.625-6.21 3.15-10.26-.255-2.165-1.055-4.1-2.18-6.34-.5-1.055-1.135-2.305-1.63-3.59a2.807 2.807 0 0 1 0-2.5c.39-.65 1.17-1.055 2.255-1.185a15.89 15.89 0 0 1 1.69-.09h29.11c.175 0 .35 0 .545.025l.5.035.03.2c0 .095.03.185.05.275.048.205.073.415.075.625v4.125c-.045 8.6-.085 17.5-.175 26.245a7.383 7.383 0 0 1-.67 2.845 1.762 1.762 0 0 1-.96 1 2.584 2.584 0 0 1-1.955-.26c-.605-.275-1.205-.56-1.805-.84-1.61-.76-3.27-1.54-4.955-2.165a14.429 14.429 0 0 0-8.685-.415c-2.22.555-4.085 1.795-5.86 3.9-2.25 2.67-3.23 5.855-3 9.74a13.385 13.385 0 0 0 3.145 8.035c3.095 3.645 7.125 4.895 12.33 3.815a17.775 17.775 0 0 0 3.74-1.43 39.11 39.11 0 0 1 1.74-.78c.375-.15.74-.31 1.11-.47a25.86 25.86 0 0 1 2.635-1.03 2.302 2.302 0 0 1 1.975.13c.59.38.955 1.14 1.095 2.25.188 1.752.273 3.513.255 5.275.025 7 .025 14.13.025 21V294c-.003.214-.02.428-.05.64 0 .12 0 .25-.04.395v.23h-85.95v-.02Zm-1.5-.5h87v-.185c.026-.192.041-.386.045-.58v-4.61c0-6.89 0-14-.025-21a43.77 43.77 0 0 0-.255-5.22c-.115-.955-.41-1.595-.87-1.89a1.8 1.8 0 0 0-1.555-.07c-.878.286-1.739.62-2.58 1l-1.12.5c-.575.235-1.155.5-1.72.77a18.16 18.16 0 0 1-3.88 1.46c-5.4 1.12-9.595-.18-12.815-4a13.92 13.92 0 0 1-3.265-8.325c-.25-4 .77-7.325 3.11-10.1 1.845-2.185 3.79-3.5 6.12-4.065a14.967 14.967 0 0 1 9 .435c1.705.635 3.375 1.42 5 2.18.6.285 1.2.565 1.805.84a2.101 2.101 0 0 0 1.57.245 1.258 1.258 0 0 0 .64-.73c.386-.83.601-1.73.63-2.645.09-8.745.13-17.64.175-26.245v-4.12a2.964 2.964 0 0 0-.065-.53.753.753 0 0 1 0-.095h-.11c-.185 0-.35-.025-.5-.025H202c-.546 0-1.092.03-1.635.09-.92.105-1.575.435-1.88.945-.305.51-.3 1.2.03 2.055.5 1.265 1.09 2.5 1.615 3.55 1.145 2.28 1.96 4.265 2.225 6.5.5 4.2-.605 7.785-3.275 10.655-2.12 2.28-5.115 3.67-8.9 4.12-2.96.355-5.91-.315-9-2.05-3.3-1.835-5.32-4.875-6.175-9.28-.5-2.46.275-4.785 1-7.03l.11-.335c.299-.857.656-1.692 1.07-2.5.265-.545.535-1.11.765-1.67a18.426 18.426 0 0 0 1.105-3.39 1.425 1.425 0 0 0-.645-1.045 9.723 9.723 0 0 0-3.105-.605c-8.28-.04-16.7-.03-24.84-.025h-4.77a6.603 6.603 0 0 0-.73.055h-.205v29.36c0 2.29-.17 4.215-1 6.195-.865 2.075-4.095 3.72-5.625 3.27-1.53-.45-3-1.045-4.455-1.62-1-.39-2-.795-3-1.15-.4-.14-.805-.29-1.21-.445-1.405-.535-2.86-1.085-4.255-1.075-2.895.025-5.185 1.235-6.615 3.5-2.065 3.285-2.34 6.705-.81 10.165.875 2 2.215 3.38 3.875 4.04a8.998 8.998 0 0 0 6.36.275c2-.695 3.945-1.565 5.845-2.405a51.4 51.4 0 0 1 2.15-.945c2.91-1.25 6.265-.14 7.63 2.53 1 1.945 1.13 4 1.125 5.785v20.93l.02 8.555Z" class="shade90"/>
    <path fill="#ffffff" d="m155.164 132.05 5.025 1.04c2.28.475 4.56.965 6.845 1.42 2.285.455 45.615 9.105 47.265 9.415 2 .385 4.035.84 6.055 1.25 2.59.5 5.19 1 7.775 1.545 1.945.415 3.86.945 5.805 1.355 2.14.455 4.295.845 6.455 1.205a.835.835 0 0 0 .7-.46c.405-1.875.715-3.77 1.1-5.65.67-3.235 1.4-6.455 2.055-9.69.455-2.265.82-4.55 1.25-6.82.415-2.17.95-4.32 1.26-6.5a12.213 12.213 0 0 0-.12-3.545c-.15-.935-1.38-1.36-2.885-1-2.335.5-4.63 1.2-6.975 1.68-2.765.57-5.375-.08-7.97-1.12-2.705-1.085-4.5-3.06-5.845-5.5-1.475-2.67-1.315-5.595-1.035-8.545a13.062 13.062 0 0 1 3.85-8c1.965-2 4.35-3.73 7.5-3.535 1.46.085 2.94.045 4.375.27 2.445.38 4.5 1.7 6.42 3.155 1.415 1.06 2.83 2.11 4.29 3.1 1.265.855 2.805.19 3.21-1.47.765-3.13 1.4-6.295 2.095-9.445.655-2.965 1.335-5.925 1.955-8.9.44-2.1.78-4.215 1.19-6.32.465-2.415.96-4.82 1.475-7.4-2.56-.5-5.17-1.04-7.77-1.6-2.07-.44-4.12-1-6.19-1.405-2.07-.405-4.29-.785-6.425-1.21-2.465-.5-4.915-1.075-7.39-1.5a25.22 25.22 0 0 0-4.5-.38c-1.155 0-1.755.82-1.575 2 .138 1.1.366 2.187.68 3.25a23.104 23.104 0 0 1 1.125 8.17 12.107 12.107 0 0 1-3.555 8.03c-2.34 2.45-5.245 3.465-8.425 3.67a14.876 14.876 0 0 1-9.625-2.745c-3.415-2.35-5.045-5.63-5.3-9.62-.13-2.035.475-4 1.28-5.905 1.17-2.8 3.34-4.875 4.88-7.38.5-.825 1.64-1.87.73-2.945a4.954 4.954 0 0 0-2.54-1.45c-3.14-.725-6.325-1.25-9.5-1.895-2.21-.45-4.395-1-6.6-1.46-2.205-.46-4.38-.845-6.565-1.28-2.33-.47-4.665-.92-7-1.455-1.335-.31-1.5-.255-1.79 1.16-.713 3.53-1.425 7.062-2.135 10.595-.92 4.625-1.8 9.255-2.76 13.875a51.92 51.92 0 0 1-1.635 6.535c-.915 2.645-6.89 34.97-7.43 37.59-.7 3.407-1.393 6.812-2.08 10.215-.345 1.8-.655 3.61-1.025 5.605Z" class="shade0"/>
    <path fill="#121212" d="M240.42 149.535h-.07c-2.53-.43-4.585-.81-6.465-1.21-1-.205-2-.45-2.94-.685a88.45 88.45 0 0 0-2.865-.67c-1.575-.335-3.185-.645-4.74-.95-1-.195-2.025-.39-3.035-.595-.82-.165-1.64-.34-2.465-.5-1.175-.25-2.39-.5-3.585-.735-1.535-.29-44.34-8.825-47.27-9.415-1.5-.305-3.035-.625-4.555-.94l-2.295-.5-5.26-1.09.045-.24c.115-.635.23-1.255.335-1.86.235-1.29.46-2.525.705-3.75.6-3 1.212-6 1.835-9l.245-1.205c.13-.625.575-3 1.19-6.235 1.94-10.26 5.55-29.36 6.25-31.385a50.355 50.355 0 0 0 1.55-6.145l.075-.36c.63-3.035 1.24-6.135 1.825-9.13a2167.454 2167.454 0 0 1 2.52-12.63L172 47.6c.155-.775.285-1.175.6-1.38.315-.205.79-.135 1.5 0 1.965.455 4 .855 5.935 1.245l1.04.21c.925.185 1.855.36 2.78.535 1.245.235 2.525.5 3.785.745 1.05.22 2.095.455 3.135.695 1.135.26 2.305.53 3.465.765 1.16.235 2.4.5 3.605.7 1.935.37 3.935.745 5.885 1.195a5.185 5.185 0 0 1 2.675 1.53c.87 1.03.145 2.04-.385 2.78-.12.16-.23.315-.32.46a33.586 33.586 0 0 1-1.965 2.765 21.357 21.357 0 0 0-2.9 4.58c-.7 1.67-1.395 3.665-1.26 5.795.265 4.12 1.965 7.205 5.19 9.43a14.681 14.681 0 0 0 9.47 2.7c3.465-.225 6.165-1.4 8.26-3.59a11.952 11.952 0 0 0 3.5-7.87c.119-2.74-.259-5.48-1.115-8.085a20.967 20.967 0 0 1-.685-3.29 2.062 2.062 0 0 1 .003-.885c.066-.29.195-.564.377-.8a1.841 1.841 0 0 1 1.435-.6 24.45 24.45 0 0 1 4.555.385c1.53.265 3.07.595 4.565.915.94.2 1.885.405 2.83.59.945.185 1.915.365 2.875.54 1.165.21 2.37.43 3.55.67 1.18.24 2.245.5 3.335.755.95.225 1.9.45 2.855.655 1.83.39 3.67.76 5.5 1.13l2.53.5-.5 2.555a393.23 393.23 0 0 0-1 5.085c-.165.855-.32 1.715-.5 2.57-.225 1.235-.455 2.5-.715 3.755-.42 2.035-.885 4.1-1.33 6.095-.21.935-.42 1.875-.625 2.81-.205.935-.415 1.9-.615 2.85-.47 2.17-.95 4.41-1.5 6.6a2.606 2.606 0 0 1-1.525 1.89 2.215 2.215 0 0 1-2.065-.275c-1.435-.97-2.795-2-4.3-3.105-2.145-1.61-4.04-2.755-6.31-3.11a23.26 23.26 0 0 0-2.89-.21c-.5 0-.975-.03-1.46-.055-3.26-.205-5.605 1.745-7.3 3.46a12.71 12.71 0 0 0-3.775 7.845c-.285 2.955-.42 5.82 1 8.395 1.475 2.665 3.345 4.42 5.715 5.37 2.09.835 4.865 1.72 7.83 1.11 1.275-.26 2.56-.59 3.8-.905 1.035-.265 2.105-.54 3.17-.775a3.361 3.361 0 0 1 2.56.28 1.4 1.4 0 0 1 .625.95c.22 1.192.26 2.411.12 3.615-.2 1.43-.5 2.86-.795 4.245-.16.755-.315 1.5-.46 2.27-.185.955-.35 1.91-.5 2.865-.23 1.3-.47 2.645-.735 3.96-.36 1.765-.745 3.55-1.115 5.28-.333 1.47-.647 2.94-.94 4.41-.18.865-.34 1.735-.5 2.6-.19 1-.38 2.035-.6 3.05a1.09 1.09 0 0 1-.95.685Zm-84.965-17.68 4.785 1 2.29.5c1.5.32 3.035.635 4.555.94 2.93.59 45.725 9.125 47.26 9.415 1.205.23 2.425.5 3.6.735.82.175 1.64.35 2.46.5l3.03.595c1.56.305 3.17.615 4.75.95.965.205 1.935.445 2.88.675.945.23 1.945.475 2.92.68 1.88.4 3.925.78 6.445 1.205a.755.755 0 0 0 .415-.275c.215-1 .405-2.03.59-3.03.165-.87.325-1.745.5-2.61.307-1.473.62-2.945.94-4.415.37-1.725.755-3.5 1.115-5.27.265-1.315.5-2.655.73-3.955.17-.955.34-1.915.5-2.87.145-.76.305-1.5.465-2.28.29-1.375.59-2.8.79-4.205a11.705 11.705 0 0 0-.115-3.47.915.915 0 0 0-.415-.615 2.916 2.916 0 0 0-2.17-.205c-1.055.23-2.125.5-3.155.77-1.25.32-2.54.65-3.825.91-3.095.635-5.965-.275-8.115-1.135-2.5-1-4.435-2.825-5.965-5.59-1.53-2.765-1.36-5.65-1.065-8.69a13.178 13.178 0 0 1 3.915-8.145c1.77-1.79 4.24-3.82 7.685-3.61.5.03.96.045 1.445.055.988.012 1.975.084 2.955.215 2.365.375 4.325 1.55 6.53 3.205 1.5 1.12 2.855 2.13 4.28 3.09a1.714 1.714 0 0 0 1.605.225 2.105 2.105 0 0 0 1.22-1.54c.535-2.185 1-4.425 1.5-6.59l.615-2.85c.21-.94.42-1.875.625-2.815.45-2 .91-4.055 1.335-6.09.255-1.24.5-2.5.71-3.74.155-.855.31-1.715.5-2.575.325-1.675.66-3.355 1-5.085l.415-2.07-2.035-.415c-1.825-.37-3.66-.74-5.5-1.135-.955-.205-1.91-.43-2.86-.65-1.09-.26-2.215-.5-3.33-.755-1.115-.255-2.375-.46-3.535-.67a183.33 183.33 0 0 1-2.885-.54c-.96-.19-1.89-.39-2.835-.59-1.5-.32-3.025-.65-4.545-.915a24.364 24.364 0 0 0-4.465-.375 1.355 1.355 0 0 0-1.06.425 1.577 1.577 0 0 0-.265 1.285c.135 1.086.358 2.16.665 3.21a23.258 23.258 0 0 1 1.165 8.245 12.455 12.455 0 0 1-3.62 8.195c-2.19 2.285-5 3.5-8.595 3.745a15.14 15.14 0 0 1-9.785-2.79c-3.32-2.28-5.14-5.585-5.41-9.81-.14-2.23.575-4.29 1.295-6a21.572 21.572 0 0 1 2.97-4.69c.665-.875 1.35-1.78 1.935-2.725.095-.16.215-.325.335-.5.625-.865 1-1.5.41-2.16a4.691 4.691 0 0 0-2.4-1.37c-1.945-.445-3.94-.82-5.865-1.185-1.21-.23-2.415-.46-3.615-.705-1.2-.245-2.34-.5-3.475-.765-1.04-.24-2.08-.5-3.125-.695-1.255-.265-2.535-.5-3.775-.74l-2.79-.54-1.04-.21c-1.95-.39-3.975-.795-5.95-1.245-.54-.125-.94-.205-1.11-.095-.17.11-.265.465-.38 1.06l-.55 2.705c-.53 2.63-1.058 5.26-1.585 7.89-.315 1.58-.625 3.155-.935 4.735-.585 3-1.195 6.095-1.825 9.14l-.115.34a50.836 50.836 0 0 1-1.565 6.21c-.69 2-4.295 21.065-6.235 31.315-.615 3.255-1.06 5.61-1.19 6.245l-.245 1.2c-.62 3-1.232 6-1.835 9-.245 1.225-.465 2.455-.7 3.745-.075.55-.175 1.09-.275 1.64Z" class="shade90"/>
    <path fill="#6a97b4" d="m151.414 131.22 5.025 1.04c2.28.5 4.56.965 6.85 1.425 2.29.46 45.61 9.1 47.26 9.41 2 .385 4.035.84 6.055 1.25 2.59.5 5.19 1 7.775 1.545 1.945.415 3.865.945 5.805 1.36 2.14.45 4.295.84 6.455 1.205a.875.875 0 0 0 .705-.465c.4-1.875.71-3.77 1.095-5.65.67-3.23 1.4-6.45 2.055-9.685.455-2.27.82-4.555 1.255-6.825.41-2.17.945-4.32 1.255-6.5a12.04 12.04 0 0 0-.12-3.545c-.15-.935-1.38-1.355-2.885-1-2.335.5-4.63 1.205-6.97 1.68-2.77.57-5.38-.08-7.975-1.12-2.705-1.085-4.5-3.06-5.84-5.5-1.5-2.67-1.32-5.595-1.035-8.545a13.033 13.033 0 0 1 3.845-8c1.965-2 4.35-3.725 7.5-3.535 1.455.09 2.935.045 4.37.27 2.445.385 4.5 1.7 6.425 3.155 1.41 1.06 2.825 2.115 4.285 3.1 1.265.855 2.805.19 3.21-1.465.765-3.135 1.405-6.295 2.095-9.445.655-2.97 1.34-5.93 1.96-8.905.435-2.1.78-4.215 1.185-6.32.47-2.415.96-4.82 1.475-7.4-2.56-.525-5.17-1.04-7.77-1.595-2.07-.445-4.12-1-6.19-1.405-2.07-.405-4.29-.79-6.425-1.215-2.465-.5-4.915-1.075-7.39-1.5a25.22 25.22 0 0 0-4.5-.38c-1.155 0-1.75.82-1.575 2 .141 1.1.368 2.186.68 3.25a23.128 23.128 0 0 1 1.14 8.165 12.127 12.127 0 0 1-3.55 8.03c-2.34 2.45-5.25 3.465-8.43 3.67a14.875 14.875 0 0 1-9.625-2.745c-3.415-2.35-5.045-5.63-5.295-9.62-.13-2.035.47-4 1.275-5.905 1.17-2.8 3.34-4.87 4.885-7.38.5-.825 1.635-1.865.725-2.945a4.954 4.954 0 0 0-2.54-1.45c-3.14-.725-6.325-1.245-9.5-1.89-2.21-.455-4.395-1-6.6-1.465-2.205-.465-4.38-.845-6.565-1.28-2.33-.47-4.665-.92-7-1.455-1.34-.31-1.5-.255-1.795 1.16-.713 3.53-1.425 7.063-2.135 10.6-.92 4.62-1.8 9.255-2.76 13.87a52.83 52.83 0 0 1-1.63 6.535c-.92 2.645-6.895 34.97-7.435 37.59-.695 3.405-1.4 6.81-2.08 10.215-.35 1.805-.66 3.615-1.03 5.61Z" class="shade50"/>
    <path fill="#121212" d="M236.67 148.705h-.07c-2.53-.425-4.58-.81-6.465-1.21-1-.205-2-.45-2.94-.685a85.467 85.467 0 0 0-2.865-.67c-1.575-.335-3.185-.645-4.74-.95-1-.195-2.025-.39-3.035-.595-.825-.165-1.65-.34-2.47-.5-1.175-.25-2.385-.5-3.58-.735-1.66-.31-44.685-8.895-47.265-9.41-1.53-.31-3.05-.63-4.575-.95l-2.275-.475-5.265-1.09.045-.24c.115-.635.23-1.255.34-1.855.235-1.295.455-2.53.7-3.755.58-2.92 1.18-5.835 1.78-8.75l.3-1.47c.13-.635.58-3 1.2-6.28 1.935-10.245 5.54-29.32 6.24-31.345a49.226 49.226 0 0 0 1.55-6.145l.075-.355c.635-3.055 1.245-6.16 1.835-9.17.307-1.57.615-3.137.925-4.7.52-2.607 1.043-5.212 1.57-7.815l.565-2.785c.155-.77.285-1.175.6-1.38.315-.205.79-.135 1.5.025 1.97.455 4 .86 5.945 1.25l1.03.205c.925.185 1.855.36 2.785.54 1.24.235 2.525.5 3.78.74 1.05.22 2.095.455 3.135.695 1.135.26 2.31.53 3.465.765 1.155.235 2.405.475 3.605.705 1.935.365 3.935.74 5.885 1.19A5.158 5.158 0 0 1 202.65 53c.87 1 .145 2.035-.385 2.775-.12.16-.23.315-.32.46a33.684 33.684 0 0 1-1.965 2.77 21.319 21.319 0 0 0-2.9 4.575c-.7 1.67-1.395 3.665-1.26 5.795.265 4.12 1.965 7.205 5.195 9.43a14.65 14.65 0 0 0 9.465 2.7c3.465-.225 6.165-1.4 8.26-3.59a11.914 11.914 0 0 0 3.5-7.87A22.759 22.759 0 0 0 221.11 62a20.738 20.738 0 0 1-.685-3.29 2.075 2.075 0 0 1 .38-1.685 1.878 1.878 0 0 1 1.44-.6c1.525-.01 3.048.12 4.55.385 1.53.265 3.07.595 4.565.915.94.2 1.885.405 2.83.59.945.185 1.915.365 2.875.54 1.165.21 2.37.43 3.55.675 1.18.245 2.245.5 3.34.75.95.225 1.9.45 2.85.655 1.805.385 3.62.75 5.41 1.115l2.36.5.245.05-.535 2.655c-.34 1.695-.67 3.34-1 5-.165.855-.32 1.71-.475 2.565-.22 1.235-.45 2.5-.71 3.76-.425 2-.88 4.07-1.325 6.05-.21.95-.425 1.905-.635 2.855-.21.95-.415 1.92-.62 2.88-.465 2.16-.945 4.39-1.5 6.57a2.584 2.584 0 0 1-1.525 1.89 2.22 2.22 0 0 1-2.065-.275c-1.44-1-2.855-2.025-4.295-3.105-2.15-1.61-4.045-2.75-6.315-3.11a23.349 23.349 0 0 0-2.895-.205c-.5 0-.97-.03-1.45-.06-3.245-.19-5.61 1.745-7.305 3.46a12.71 12.71 0 0 0-3.775 7.845c-.28 2.955-.42 5.82 1 8.4 1.475 2.66 3.345 4.415 5.715 5.37 2.09.835 4.865 1.715 7.835 1.105 1.27-.26 2.555-.585 3.795-.905 1.035-.265 2.11-.54 3.17-.775a3.356 3.356 0 0 1 2.565.285 1.38 1.38 0 0 1 .62.945c.222 1.194.263 2.414.12 3.62-.2 1.425-.5 2.86-.795 4.245-.16.755-.315 1.5-.46 2.265-.18.95-.35 1.9-.5 2.855-.23 1.3-.47 2.65-.735 4-.36 1.765-.745 3.56-1.12 5.295-.315 1.46-.63 2.925-.935 4.39-.175.86-.34 1.73-.5 2.595-.185 1-.38 2.04-.595 3.055a1.1 1.1 0 0 1-.905.585Zm-84.965-17.68 4.785 1 2.28.5c1.5.32 3.04.64 4.565.95 2.585.5 45.605 9.095 47.26 9.41 1.205.23 2.42.5 3.595.735.82.175 1.64.35 2.465.5 1 .205 2 .4 3.035.595 1.555.305 3.165.615 4.745.95.965.205 1.94.445 2.88.675.94.23 1.945.475 2.925.685 1.875.395 3.92.775 6.44 1.2a.755.755 0 0 0 .415-.275c.215-1 .41-2.035.595-3.04.16-.865.325-1.735.5-2.6.305-1.47.62-2.935.935-4.395.375-1.735.76-3.525 1.12-5.29.265-1.315.5-2.665.735-3.965.17-.95.335-1.905.5-2.855.145-.765.31-1.5.465-2.28.295-1.375.595-2.8.79-4.21a11.704 11.704 0 0 0-.115-3.47.902.902 0 0 0-.415-.615 2.911 2.911 0 0 0-2.17-.205c-1.055.23-2.125.5-3.155.77-1.25.32-2.54.65-3.82.91-3.1.635-5.965-.27-8.12-1.135-2.5-1-4.435-2.82-5.965-5.59-1.53-2.77-1.36-5.65-1.065-8.69a13.205 13.205 0 0 1 3.915-8.145c1.77-1.79 4.245-3.82 7.69-3.61.475.03.955.045 1.435.06.99.01 1.979.081 2.96.215 2.5.39 4.62 1.77 6.535 3.2 1.435 1.08 2.845 2.125 4.275 3.095a1.726 1.726 0 0 0 1.605.22 2.098 2.098 0 0 0 1.22-1.54c.535-2.175 1-4.405 1.475-6.56.205-.96.41-1.92.625-2.88.215-.96.42-1.905.635-2.86.44-2 .9-4.025 1.32-6.04.26-1.245.5-2.5.71-3.75.155-.855.31-1.715.475-2.57.32-1.645.65-3.29 1-5l.435-2.165-2.11-.43c-1.8-.365-3.61-.73-5.42-1.115a176.28 176.28 0 0 1-2.86-.655c-1.09-.255-2.215-.5-3.325-.75-1.11-.25-2.375-.465-3.535-.675-.965-.175-1.93-.345-2.89-.54-.96-.195-1.89-.39-2.835-.59-1.5-.32-3.025-.65-4.545-.91a24.734 24.734 0 0 0-4.46-.38 1.361 1.361 0 0 0-1.06.425 1.546 1.546 0 0 0-.27 1.285 20.03 20.03 0 0 0 .67 3.215 23.324 23.324 0 0 1 1.135 8.255 12.431 12.431 0 0 1-3.62 8.195c-2.19 2.285-5 3.5-8.595 3.745a15.185 15.185 0 0 1-9.78-2.785c-3.32-2.285-5.135-5.59-5.405-9.815-.145-2.23.575-4.29 1.295-6a21.507 21.507 0 0 1 2.965-4.69c.665-.875 1.355-1.78 1.935-2.725.095-.16.215-.32.335-.5.625-.865 1-1.5.415-2.165a4.684 4.684 0 0 0-2.405-1.365c-1.945-.45-3.935-.825-5.865-1.19-1.205-.23-2.415-.455-3.615-.7-1.2-.245-2.34-.5-3.475-.77-1.04-.24-2.08-.5-3.125-.695-1.255-.265-2.535-.5-3.77-.74-.935-.18-1.865-.355-2.795-.54l-1.03-.205c-1.955-.39-4-.795-5.96-1.25-.54-.125-.94-.205-1.105-.095-.165.11-.265.47-.385 1.06l-.565 2.785c-.527 2.607-1.05 5.21-1.57 7.81-.31 1.565-.62 3.135-.925 4.7-.59 3-1.2 6.12-1.835 9.175l-.075.355a49.89 49.89 0 0 1-1.565 6.21c-.69 2-4.29 21.04-6.225 31.275-.62 3.28-1.07 5.65-1.2 6.285l-.3 1.47c-.6 2.913-1.193 5.828-1.78 8.745-.245 1.225-.465 2.455-.7 3.75l-.285 1.6Z" class="shade90"/>
    <path fill="#ffffff" d="m228.22 131.435-.26 12.145s-1.81-1.855-5-5.075-5.675-12.425-5.675-12.425l7.835 1.27 2.645 5.29" class="shade0"/>
    <path fill="#121212" d="M227.959 143.83a.224.224 0 0 1-.095-.019.246.246 0 0 1-.08-.056s-1.81-1.855-5-5.075-5.635-12.155-5.74-12.535a.288.288 0 0 1 0-.124.282.282 0 0 1 .055-.111.261.261 0 0 1 .23-.075l7.835 1.27a.26.26 0 0 1 .185.135l2.585 5.165v-.975a.25.25 0 0 1 .25-.245.26.26 0 0 1 .245.255l-.26 12.145a.24.24 0 0 1-.155.225.2.2 0 0 1-.055.02Zm-10.31-17.44c.5 1.755 2.78 9.165 5.5 11.94 2.285 2.315 3.865 3.93 4.57 4.65l.215-10.145-.045.025a.239.239 0 0 1-.19.016.224.224 0 0 1-.085-.048.255.255 0 0 1-.06-.078l-2.555-5.17-7.35-1.19Z" class="shade90"/>
    <path fill="#ffffff" d="M157 83.955s7.405.16 8.345 1.385c.94 1.225-2.13 2.055-6.275 2" class="shade0"/>
    <path fill="#121212" d="M159.499 87.58h-.47v-.5c3.58.055 5.845-.555 6.155-1.17.04-.085.07-.205-.085-.41-.63-.825-5.335-1.23-8.15-1.29v-.5c.77 0 7.555.2 8.535 1.5a.837.837 0 0 1 .135.94c-.505 1.055-3.51 1.43-6.12 1.43Z" class="shade90"/>
    <path fill="#ffffff" d="M155.194 86.76s9.72-.89 10.395.935c.53 1.45-3.14 1.685-7.285 1.61 0 0-2.27.325-3.34-.24-1.07-.565-.675-2.27.23-2.305Z" class="shade0"/>
    <path fill="#121212" d="M156.899 89.65a4.736 4.736 0 0 1-2.05-.36 1.542 1.542 0 0 1-.735-1.73 1.232 1.232 0 0 1 1.06-1.05c1.67-.15 9.945-.805 10.645 1.1a.872.872 0 0 1-.095.855c-.59.835-2.885 1.17-7.425 1.09a9.55 9.55 0 0 1-1.4.095Zm3.065-2.86c-1.63 0-3.355.09-4.75.22-.315 0-.53.34-.6.66a1.023 1.023 0 0 0 .5 1.175c1 .5 3.17.22 3.19.215 4.225.07 6.585-.225 7.05-.885a.396.396 0 0 0 .035-.39c-.31-.75-2.74-.995-5.425-.995Z" class="shade90"/>
    <path fill="#ffffff" d="M155.676 89.5s7.845-.425 8.785.8c.94 1.225-2 1.925-6.155 1.855 0 0-1.66.18-2.465-.445-.805-.625-1.2-2.105-.165-2.21Z" class="shade0"/>
    <path fill="#121212" d="M157.759 92.43a3.616 3.616 0 0 1-2.07-.5 2.18 2.18 0 0 1-.845-2 .87.87 0 0 1 .805-.64c.82-.045 8-.395 9 .895a.828.828 0 0 1 .145.935c-.67 1.325-5.14 1.35-6.5 1.325-.01-.04-.225-.015-.535-.015Zm-2.065-2.68a.371.371 0 0 0-.37.275 1.704 1.704 0 0 0 .67 1.5c.595.46 1.85.44 2.285.39 3.775.07 5.795-.5 6.075-1.05 0-.045.085-.17-.095-.405-.625-.825-5.58-.87-8.565-.71Z" class="shade90"/>
    <path fill="#ffffff" d="M156.84 92.25s4.5-.31 5.455.915c.955 1.225-.16 1.32-3.78 1.27a3.067 3.067 0 0 1-1.68-.5c-.56-.38-.965-.965.005-1.685Z" class="shade0"/>
    <path fill="#121212" d="M159.499 94.695h-1a3.298 3.298 0 0 1-1.815-.54 1.296 1.296 0 0 1-.69-1 1.366 1.366 0 0 1 .685-1.08l.06-.045h.075c.5-.03 4.68-.285 5.67 1 .21.28.47.69.285 1.055-.245.485-1.19.61-3.27.61Zm-2.575-2.2c-.21.165-.43.395-.425.625.005.23.26.465.47.61.458.3.993.458 1.54.455 1.265 0 3.62.05 3.82-.345 0-.03.04-.16-.24-.525-.68-.9-3.885-.895-5.16-.815l-.005-.005Z" class="shade90"/>
    <path fill="#ffffff" d="m227.646 117.06-10 10.69a25.455 25.455 0 0 0-7.845 5.25c-3.795 3.72-9.365 8.23-9.365 10.845s9.27-6.22 9.27-6.22-.075.33 3.645 4.13c.305.305 1 .27 1.75.09a8.072 8.072 0 0 0 4.86-3.5 127.33 127.33 0 0 0 1.715-2.705c1.06-1.75 4.375-3.955 4.375-3.955l7.58-11-5.985-3.625Z" class="shade0"/>
    <path fill="#121212" d="M200.845 144.585a.657.657 0 0 1-.66-.725c0-2.18 3.5-5.455 6.91-8.625.895-.835 1.74-1.625 2.53-2.4a26.285 26.285 0 0 1 7.875-5.3l10.085-10.795 6.415 3.88-7.81 11.28c-.03 0-3.28 2.195-4.305 3.875-.5.82-1.205 1.925-1.715 2.71a8.241 8.241 0 0 1-5 3.615c-1 .24-1.645.185-2-.155-2.315-2.36-3.2-3.415-3.53-3.905-.575.53-2.135 1.97-3.785 3.345-3.325 2.765-4.515 3.2-5.01 3.2Zm26.845-27.205-9.885 10.58h-.055a25.705 25.705 0 0 0-7.75 5.235c-.79.775-1.68 1.605-2.54 2.405-3.165 2.955-6.75 6.295-6.75 8.26 0 .08 0 .18.065.2.77.33 5.075-3.095 8.78-6.6l.6-.565-.165.73c.095.175.63 1 3.565 3.97.115.115.46.27 1.5 0a7.763 7.763 0 0 0 4.71-3.4c.5-.78 1.215-1.885 1.71-2.7 1.03-1.69 4-3.735 4.415-4l7.395-10.74-5.595-3.375Z" class="shade90"/>
    <path fill="#ffffff" d="m209.939 137.375-7 6.03a4.104 4.104 0 0 0 4.535-.545l4.25-3.665" class="shade0"/>
    <path fill="#121212" d="M204.801 144.105a4.344 4.344 0 0 1-2-.475l-.33-.17 7.285-6.275.325.38-6.705 5.775a3.83 3.83 0 0 0 3.915-.67l4.25-3.665.325.38-4.25 3.665a4.345 4.345 0 0 1-2.815 1.055Z" class="shade90"/>
    <path fill="#ffffff" d="M211.955 139s-5.345 4.3-5.245 4.5c1.645 3.09 7.935-3.055 7.935-3.055" class="shade0"/>
    <path fill="#121212" d="M208.164 144.605a1.93 1.93 0 0 1-.34 0 1.746 1.746 0 0 1-1.335-1c-.125-.225-.195-.36 5.31-4.79l.315.39c-1.775 1.43-4.615 3.745-5.115 4.295a1.242 1.242 0 0 0 .895.59c2.26.35 6.53-3.795 6.575-3.835l.345.36c-.165.17-4.115 3.99-6.65 3.99Z" class="shade90"/>
    <path fill="#ffffff" d="M214.754 140.21s-4.665 3.5-4.5 3.785c1.5 2.36 7.355-3.195 7.355-3.195" class="shade0"/>
    <path fill="#121212" d="M211.385 144.83h-.24a1.45 1.45 0 0 1-1.095-.685c-.145-.225-.295-.46 4.555-4.12l.3.4a50.37 50.37 0 0 0-4.36 3.555.93.93 0 0 0 .665.35c2.065.25 6.19-3.655 6.23-3.695l.345.365c-.17.145-4.08 3.83-6.4 3.83Z" class="shade90"/>
    <path fill="#ffffff" d="M273.745 52.5c6.25 9.23.07 16.64-10.3 31-14 19.37-35.5 60.065-35.5 60.065S226 131 222.745 128.64c-3.72-2.68-5.44-2.56-5.44-2.56l48.11-69" class="shade0"/>
    <path fill="#121212" d="m227.83 144.365-.115-.75c0-.12-1.965-12.5-5.115-14.77-3.575-2.575-5.26-2.5-5.28-2.5l-.5.025.29-.42 48.11-69 .41.285-47.875 68.635c.755.125 2.435.62 5.135 2.57 2.895 2.08 4.725 11.61 5.2 14.37 2.83-5.32 22.28-41.615 35.155-59.445l1.77-2.445c9.225-12.715 14.31-19.72 8.5-28.27l.415-.28c6 8.84.83 15.945-8.53 28.845l-1.77 2.445c-13.82 19.14-35.25 59.63-35.465 60.035l-.335.67Z" class="shade90"/>
    <path fill="#121212" d="m227.83 144.365-.115-.75c0-.12-1.965-12.5-5.115-14.77-3.575-2.575-5.26-2.5-5.28-2.5l-.5.025.29-.42 48.11-69 .41.285-47.875 68.635c.755.125 2.435.62 5.135 2.57 2.895 2.08 4.725 11.61 5.2 14.37 2.83-5.32 22.28-41.615 35.155-59.445l1.77-2.445c9.225-12.715 14.31-19.72 8.5-28.27l.415-.28c6 8.84.83 15.945-8.53 28.845l-1.77 2.445c-13.82 19.14-35.25 59.63-35.465 60.035l-.335.67Z" class="shade90"/>
    <path fill="#ffffff" d="M218.414 128.215s-1.635 0-2.165.05-9.565 3.94-11.68 4.615c-2.115.675.24 2 1.155 2.065.915.065 2.45 0 2.45 0" class="shade0"/>
    <path fill="#121212" d="M206.771 135.215h-1.06c-.69-.035-2.14-.715-2.24-1.5-.04-.315.105-.75 1.025-1.045 1.085-.345 4.065-1.57 6.695-2.65 3.3-1.355 4.77-1.95 5.035-2 .535-.05 2.12-.05 2.19-.05v.5s-1.63 0-2.145.05c-.27.04-2.725 1.05-4.89 1.94-2.64 1.08-5.63 2.31-6.735 2.66-.215.07-.71.255-.68.5.055.43 1.16 1.045 1.77 1.075.89.05 2.415 0 2.43 0v.5c-.025 0-.665.02-1.395.02ZM50.185 119.66h-.5v-7.75H66.52v.5H50.185v7.25ZM345.11 294.755H39.265v.5H345.11v-.5Zm-25.924-33.875a1.827 1.827 0 0 1-.37-.035c-3.28-.59-4.82-9.125-4.88-9.5l.5-.09c0 .085 1.54 8.555 4.5 9.085 1.135.2 2.38-.845 3.71-3.11l.43.25c-1.345 2.265-2.645 3.4-3.89 3.4Zm50.389 17.975-.5-.145c.055-.175 5.35-18.165 1.94-40.77-.935-6.195-3.43-10.38-7.415-12.43-7.84-4.03-18.935 1.53-19.045 1.585l-.225-.445c.11-.06 11.435-5.725 19.5-1.585 4.14 2.13 6.725 6.435 7.685 12.8 3.445 22.72-1.885 40.81-1.94 40.99Zm-349.245-6.14-.5-.115c2.18-9.175 14-9.15 14.085-9.135v.5c-.115 0-11.495-.035-13.585 8.75Z" class="shade90"/>
  </g>
  <defs>
    <clipPath id="a" class="a">
      <path fill="#fcfdfd" d="M0 0h400v300H0z"/>
    </clipPath>
  </defs>
</svg>